<?xml version="1.0" encoding="utf-8"?>
<!-- Generator: Adobe Illustrator 16.0.0, SVG Export Plug-In . SVG Version: 6.00 Build 0)  -->
<!DOCTYPE svg PUBLIC "-//W3C//DTD SVG 1.1//EN" "http://www.w3.org/Graphics/SVG/1.1/DTD/svg11.dtd">
<svg version="1.1" id="Layer_1" xmlns="http://www.w3.org/2000/svg" xmlns:xlink="http://www.w3.org/1999/xlink" x="0px" y="0px"
	 width="568.471px" height="404.584px" viewBox="0 0 568.471 404.584" enable-background="new 0 0 568.471 404.584"
	 xml:space="preserve">
<path opacity="0.7" fill="#3FA9F5" stroke="#000000" stroke-miterlimit="10" d="M111.888,259.298c0,4.584-1.83,8.202-4.317,8.202
	h-85.18c-2.487,0-4.503-3.618-4.503-8.202v-45.649c0-4.584,2.016-8.148,4.503-8.148h85.18c2.487,0,4.317,3.564,4.317,8.148V259.298z
	"/>
<g>
	<rect x="64.047" y="28.453" fill="none" width="439.682" height="46.032"/>
	<path d="M100.377,53.22c-1.152,0.576-3.456,1.152-6.407,1.152c-6.839,0-11.986-4.319-11.986-12.274
		c0-7.595,5.147-12.742,12.67-12.742c3.023,0,4.931,0.648,5.759,1.08l-0.756,2.556c-1.188-0.576-2.88-1.008-4.896-1.008
		c-5.688,0-9.467,3.636-9.467,10.007c0,5.939,3.419,9.755,9.323,9.755c1.908,0,3.852-0.396,5.111-1.008L100.377,53.22z"/>
	<path d="M105.563,45.877c0.072,4.283,2.808,6.047,5.975,6.047c2.268,0,3.636-0.396,4.823-0.9l0.54,2.268
		c-1.116,0.504-3.023,1.08-5.795,1.08c-5.363,0-8.567-3.527-8.567-8.783s3.096-9.395,8.171-9.395c5.688,0,7.199,5.003,7.199,8.207
		c0,0.648-0.072,1.152-0.108,1.476H105.563z M114.85,43.609c0.036-2.016-0.828-5.147-4.392-5.147c-3.204,0-4.607,2.951-4.859,5.147
		H114.85z"/>
	<path d="M121.835,41.306c0-1.8-0.036-3.275-0.144-4.715h2.808l0.18,2.88h0.072c0.864-1.656,2.879-3.276,5.759-3.276
		c2.412,0,6.155,1.44,6.155,7.415v10.403h-3.168V43.969c0-2.808-1.043-5.147-4.031-5.147c-2.088,0-3.708,1.476-4.248,3.239
		c-0.144,0.396-0.216,0.936-0.216,1.476v10.475h-3.168V41.306z"/>
	<path d="M145.487,31.587v5.003h4.535v2.412h-4.535v9.395c0,2.16,0.612,3.383,2.375,3.383c0.828,0,1.44-0.108,1.836-0.216
		l0.144,2.376c-0.612,0.252-1.584,0.432-2.808,0.432c-1.476,0-2.664-0.468-3.42-1.332c-0.9-0.936-1.224-2.484-1.224-4.536v-9.503
		h-2.7V36.59h2.7v-4.175L145.487,31.587z"/>
	<path d="M153.587,42.026c0-2.052-0.036-3.816-0.144-5.436h2.771l0.108,3.419h0.144c0.792-2.339,2.7-3.815,4.823-3.815
		c0.36,0,0.612,0.036,0.9,0.108v2.988c-0.324-0.072-0.648-0.108-1.08-0.108c-2.232,0-3.815,1.692-4.248,4.067
		c-0.072,0.432-0.144,0.936-0.144,1.476v9.287h-3.132V42.026z"/>
	<path d="M174.826,54.012l-0.252-2.196h-0.108c-0.972,1.368-2.844,2.592-5.327,2.592c-3.528,0-5.328-2.484-5.328-5.003
		c0-4.211,3.744-6.515,10.475-6.479v-0.36c0-1.439-0.396-4.031-3.959-4.031c-1.62,0-3.312,0.504-4.535,1.296l-0.72-2.088
		c1.44-0.936,3.528-1.548,5.724-1.548c5.327,0,6.623,3.636,6.623,7.127v6.515c0,1.512,0.072,2.987,0.288,4.175H174.826z
		 M174.358,45.121c-3.456-0.072-7.379,0.54-7.379,3.924c0,2.052,1.368,3.023,2.988,3.023c2.268,0,3.708-1.44,4.211-2.916
		c0.108-0.324,0.18-0.684,0.18-1.008V45.121z"/>
	<path d="M182.531,28.456h3.168v25.557h-3.168V28.456z"/>
	<path d="M194.555,31.695c0.036,1.08-0.756,1.944-2.016,1.944c-1.116,0-1.908-0.864-1.908-1.944c0-1.116,0.828-1.979,1.979-1.979
		C193.799,29.715,194.555,30.579,194.555,31.695z M191.027,54.012V36.59h3.168v17.422H191.027z"/>
	<path d="M197.471,52.176l7.883-10.259c0.756-0.936,1.476-1.764,2.268-2.699v-0.072h-9.431V36.59h13.283l-0.036,1.98l-7.775,10.115
		c-0.72,0.972-1.44,1.835-2.232,2.735v0.072h10.187v2.52h-14.146V52.176z"/>
	<path d="M216.371,45.877c0.072,4.283,2.808,6.047,5.975,6.047c2.268,0,3.636-0.396,4.823-0.9l0.54,2.268
		c-1.116,0.504-3.023,1.08-5.795,1.08c-5.363,0-8.567-3.527-8.567-8.783s3.096-9.395,8.171-9.395c5.688,0,7.199,5.003,7.199,8.207
		c0,0.648-0.072,1.152-0.108,1.476H216.371z M225.658,43.609c0.036-2.016-0.828-5.147-4.392-5.147c-3.204,0-4.607,2.951-4.859,5.147
		H225.658z"/>
	<path d="M247.689,28.456v21.057c0,1.548,0.036,3.312,0.144,4.5h-2.844l-0.144-3.023h-0.072c-0.972,1.943-3.096,3.419-5.939,3.419
		c-4.211,0-7.451-3.563-7.451-8.855c-0.036-5.795,3.563-9.359,7.811-9.359c2.664,0,4.463,1.26,5.255,2.664h0.072V28.456H247.689z
		 M244.521,43.682c0-0.396-0.036-0.936-0.144-1.332c-0.468-2.016-2.196-3.671-4.572-3.671c-3.275,0-5.219,2.879-5.219,6.731
		c0,3.528,1.728,6.443,5.147,6.443c2.124,0,4.067-1.404,4.644-3.78c0.108-0.432,0.144-0.864,0.144-1.368V43.682z"/>
	<path d="M264.718,54.012l-7.919-24.261h3.383l3.78,11.95c1.044,3.276,1.944,6.228,2.592,9.071h0.072
		c0.684-2.808,1.692-5.867,2.771-9.035l4.104-11.986h3.348l-8.675,24.261H264.718z"/>
	<path d="M279.947,45.877c0.072,4.283,2.808,6.047,5.975,6.047c2.268,0,3.636-0.396,4.823-0.9l0.54,2.268
		c-1.116,0.504-3.023,1.08-5.795,1.08c-5.363,0-8.567-3.527-8.567-8.783s3.096-9.395,8.171-9.395c5.688,0,7.199,5.003,7.199,8.207
		c0,0.648-0.072,1.152-0.108,1.476H279.947z M289.233,43.609c0.036-2.016-0.828-5.147-4.392-5.147c-3.204,0-4.607,2.951-4.859,5.147
		H289.233z"/>
	<path d="M296.218,42.026c0-2.052-0.036-3.816-0.144-5.436h2.771l0.108,3.419h0.144c0.792-2.339,2.7-3.815,4.823-3.815
		c0.36,0,0.612,0.036,0.9,0.108v2.988c-0.324-0.072-0.648-0.108-1.08-0.108c-2.232,0-3.816,1.692-4.248,4.067
		c-0.072,0.432-0.144,0.936-0.144,1.476v9.287h-3.132V42.026z"/>
	<path d="M307.559,50.772c0.936,0.612,2.592,1.26,4.175,1.26c2.304,0,3.384-1.152,3.384-2.591c0-1.512-0.9-2.34-3.24-3.204
		c-3.131-1.116-4.607-2.844-4.607-4.932c0-2.808,2.268-5.111,6.011-5.111c1.764,0,3.312,0.504,4.284,1.08l-0.792,2.304
		c-0.684-0.432-1.944-1.008-3.563-1.008c-1.872,0-2.916,1.08-2.916,2.375c0,1.44,1.044,2.088,3.312,2.952
		c3.023,1.152,4.571,2.664,4.571,5.255c0,3.06-2.376,5.219-6.515,5.219c-1.908,0-3.672-0.468-4.896-1.188L307.559,50.772z"/>
	<path d="M325.774,31.695c0.036,1.08-0.756,1.944-2.016,1.944c-1.116,0-1.908-0.864-1.908-1.944c0-1.116,0.828-1.979,1.979-1.979
		C325.018,29.715,325.774,30.579,325.774,31.695z M322.246,54.012V36.59h3.168v17.422H322.246z"/>
	<path d="M346.436,45.157c0,6.443-4.463,9.251-8.675,9.251c-4.715,0-8.351-3.456-8.351-8.963c0-5.832,3.815-9.251,8.639-9.251
		C343.053,36.194,346.436,39.83,346.436,45.157z M332.614,45.337c0,3.815,2.196,6.695,5.292,6.695c3.023,0,5.292-2.843,5.292-6.767
		c0-2.952-1.476-6.695-5.22-6.695C334.234,38.57,332.614,42.026,332.614,45.337z"/>
	<path d="M350.434,41.306c0-1.8-0.036-3.275-0.144-4.715h2.808l0.18,2.88h0.072c0.864-1.656,2.879-3.276,5.759-3.276
		c2.412,0,6.155,1.44,6.155,7.415v10.403h-3.168V43.969c0-2.808-1.043-5.147-4.031-5.147c-2.088,0-3.708,1.476-4.248,3.239
		c-0.144,0.396-0.216,0.936-0.216,1.476v10.475h-3.168V41.306z"/>
	<path d="M395.107,53.22c-1.152,0.576-3.456,1.152-6.407,1.152c-6.839,0-11.986-4.319-11.986-12.274
		c0-7.595,5.147-12.742,12.67-12.742c3.023,0,4.931,0.648,5.759,1.08l-0.756,2.556c-1.188-0.576-2.88-1.008-4.896-1.008
		c-5.688,0-9.467,3.636-9.467,10.007c0,5.939,3.419,9.755,9.323,9.755c1.908,0,3.852-0.396,5.111-1.008L395.107,53.22z"/>
	<path d="M414.295,45.157c0,6.443-4.463,9.251-8.675,9.251c-4.715,0-8.351-3.456-8.351-8.963c0-5.832,3.815-9.251,8.639-9.251
		C410.912,36.194,414.295,39.83,414.295,45.157z M400.473,45.337c0,3.815,2.196,6.695,5.292,6.695c3.023,0,5.292-2.843,5.292-6.767
		c0-2.952-1.476-6.695-5.22-6.695C402.093,38.57,400.473,42.026,400.473,45.337z"/>
	<path d="M418.293,41.306c0-1.8-0.036-3.275-0.144-4.715h2.808l0.18,2.88h0.072c0.864-1.656,2.88-3.276,5.759-3.276
		c2.413,0,6.155,1.44,6.155,7.415v10.403h-3.166V43.969c0-2.808-1.045-5.147-4.033-5.147c-2.087,0-3.707,1.476-4.247,3.239
		c-0.144,0.396-0.216,0.936-0.216,1.476v10.475h-3.168V41.306z"/>
	<path d="M441.945,31.587v5.003h4.535v2.412h-4.535v9.395c0,2.16,0.611,3.383,2.377,3.383c0.826,0,1.439-0.108,1.834-0.216
		l0.145,2.376c-0.611,0.252-1.584,0.432-2.807,0.432c-1.477,0-2.664-0.468-3.42-1.332c-0.9-0.936-1.225-2.484-1.225-4.536v-9.503
		h-2.699V36.59h2.699v-4.175L441.945,31.587z"/>
	<path d="M450.046,42.026c0-2.052-0.037-3.816-0.145-5.436h2.771l0.107,3.419h0.145c0.791-2.339,2.699-3.815,4.824-3.815
		c0.359,0,0.611,0.036,0.898,0.108v2.988c-0.324-0.072-0.646-0.108-1.08-0.108c-2.23,0-3.814,1.692-4.246,4.067
		c-0.072,0.432-0.145,0.936-0.145,1.476v9.287h-3.131V42.026z"/>
	<path d="M477.222,45.157c0,6.443-4.463,9.251-8.674,9.251c-4.717,0-8.352-3.456-8.352-8.963c0-5.832,3.816-9.251,8.639-9.251
		C473.839,36.194,477.222,39.83,477.222,45.157z M463.4,45.337c0,3.815,2.197,6.695,5.291,6.695c3.025,0,5.293-2.843,5.293-6.767
		c0-2.952-1.477-6.695-5.221-6.695C465.021,38.57,463.4,42.026,463.4,45.337z"/>
	<path d="M481.22,28.456h3.168v25.557h-3.168V28.456z"/>
</g>
<g>
	<rect x="159.301" y="74.484" fill="none" width="250" height="23.016"/>
	<path d="M184.033,84.42c-0.12-2.256-0.264-4.969-0.24-6.985h-0.072c-0.552,1.896-1.224,3.913-2.041,6.145l-2.856,7.849h-1.584
		l-2.616-7.705c-0.768-2.28-1.416-4.368-1.872-6.289h-0.048c-0.048,2.016-0.168,4.729-0.312,7.153l-0.432,6.937h-1.992l1.128-16.177
		h2.665l2.76,7.825c0.672,1.992,1.224,3.768,1.632,5.448h0.072c0.408-1.632,0.984-3.408,1.704-5.448l2.88-7.825h2.664l1.008,16.177
		h-2.041L184.033,84.42z"/>
	<path d="M196.2,91.524l-0.168-1.464h-0.072c-0.648,0.912-1.896,1.729-3.552,1.729c-2.353,0-3.553-1.656-3.553-3.336
		c0-2.808,2.497-4.344,6.985-4.32v-0.24c0-0.96-0.264-2.688-2.64-2.688c-1.08,0-2.208,0.336-3.024,0.864l-0.48-1.392
		c0.96-0.624,2.352-1.032,3.816-1.032c3.552,0,4.417,2.424,4.417,4.752v4.344c0,1.008,0.048,1.992,0.192,2.784H196.2z
		 M195.888,85.596c-2.304-0.048-4.92,0.36-4.92,2.616c0,1.368,0.912,2.017,1.992,2.017c1.512,0,2.472-0.96,2.808-1.944
		c0.072-0.216,0.12-0.456,0.12-0.672V85.596z"/>
	<path d="M203.688,76.643c0.024,0.72-0.504,1.296-1.344,1.296c-0.744,0-1.272-0.576-1.272-1.296c0-0.744,0.552-1.32,1.32-1.32
		C203.183,75.323,203.688,75.899,203.688,76.643z M201.335,91.524V79.907h2.112v11.617H201.335z"/>
	<path d="M206.951,83.052c0-1.2-0.024-2.184-0.096-3.145h1.872l0.12,1.92h0.048c0.576-1.104,1.92-2.184,3.84-2.184
		c1.608,0,4.104,0.96,4.104,4.944v6.937h-2.112v-6.697c0-1.872-0.696-3.432-2.688-3.432c-1.393,0-2.473,0.984-2.833,2.16
		c-0.096,0.264-0.144,0.624-0.144,0.984v6.984h-2.112V83.052z"/>
	<path d="M225.143,88.98c0.936,0.576,2.304,1.056,3.744,1.056c2.136,0,3.384-1.128,3.384-2.76c0-1.512-0.864-2.376-3.048-3.216
		c-2.641-0.936-4.272-2.304-4.272-4.584c0-2.521,2.088-4.393,5.232-4.393c1.656,0,2.856,0.384,3.576,0.792l-0.576,1.704
		c-0.528-0.288-1.608-0.768-3.072-0.768c-2.208,0-3.048,1.32-3.048,2.424c0,1.512,0.984,2.256,3.216,3.12
		c2.736,1.056,4.128,2.376,4.128,4.752c0,2.497-1.848,4.657-5.665,4.657c-1.56,0-3.264-0.456-4.128-1.032L225.143,88.98z"/>
	<path d="M238.51,86.1c0.048,2.856,1.872,4.032,3.984,4.032c1.512,0,2.424-0.264,3.216-0.6l0.36,1.512
		c-0.744,0.336-2.016,0.72-3.864,0.72c-3.576,0-5.712-2.353-5.712-5.857c0-3.504,2.064-6.264,5.448-6.264
		c3.792,0,4.801,3.336,4.801,5.472c0,0.432-0.048,0.768-0.072,0.984H238.51z M244.703,84.588c0.024-1.344-0.552-3.433-2.928-3.433
		c-2.136,0-3.072,1.968-3.24,3.433H244.703z"/>
	<path d="M249.358,83.532c0-1.368-0.024-2.544-0.096-3.625h1.848l0.072,2.28h0.096c0.528-1.56,1.8-2.544,3.216-2.544
		c0.24,0,0.408,0.024,0.6,0.072v1.992c-0.216-0.048-0.432-0.072-0.72-0.072c-1.488,0-2.544,1.128-2.832,2.712
		c-0.048,0.288-0.096,0.624-0.096,0.984v6.192h-2.088V83.532z"/>
	<path d="M258.622,79.907l2.28,6.529c0.384,1.056,0.696,2.016,0.936,2.976h0.072c0.264-0.96,0.6-1.92,0.984-2.976l2.256-6.529h2.208
		l-4.561,11.617h-2.016l-4.417-11.617H258.622z"/>
	<path d="M270.286,86.1c0.048,2.856,1.872,4.032,3.984,4.032c1.512,0,2.424-0.264,3.216-0.6l0.36,1.512
		c-0.744,0.336-2.016,0.72-3.864,0.72c-3.576,0-5.712-2.353-5.712-5.857c0-3.504,2.064-6.264,5.448-6.264
		c3.792,0,4.801,3.336,4.801,5.472c0,0.432-0.048,0.768-0.072,0.984H270.286z M276.479,84.588c0.024-1.344-0.552-3.433-2.928-3.433
		c-2.136,0-3.072,1.968-3.24,3.433H276.479z"/>
	<path d="M281.134,83.532c0-1.368-0.024-2.544-0.096-3.625h1.848l0.072,2.28h0.096c0.528-1.56,1.8-2.544,3.216-2.544
		c0.24,0,0.408,0.024,0.6,0.072v1.992c-0.216-0.048-0.432-0.072-0.72-0.072c-1.488,0-2.544,1.128-2.832,2.712
		c-0.048,0.288-0.096,0.624-0.096,0.984v6.192h-2.088V83.532z"/>
	<path d="M294.142,75.563c1.056-0.216,2.568-0.336,4.008-0.336c2.232,0,3.672,0.408,4.68,1.32c0.816,0.72,1.272,1.824,1.272,3.072
		c0,2.136-1.344,3.553-3.048,4.128v0.072c1.248,0.432,1.992,1.584,2.376,3.264c0.528,2.256,0.912,3.816,1.248,4.44h-2.16
		c-0.264-0.456-0.624-1.848-1.08-3.864c-0.48-2.232-1.344-3.072-3.24-3.145h-1.968v7.009h-2.088V75.563z M296.23,82.932h2.136
		c2.232,0,3.648-1.224,3.648-3.072c0-2.088-1.512-3-3.72-3.024c-1.008,0-1.728,0.096-2.064,0.192V82.932z"/>
	<path d="M308.254,86.1c0.048,2.856,1.872,4.032,3.984,4.032c1.512,0,2.424-0.264,3.216-0.6l0.36,1.512
		c-0.744,0.336-2.016,0.72-3.864,0.72c-3.576,0-5.712-2.353-5.712-5.857c0-3.504,2.064-6.264,5.448-6.264
		c3.792,0,4.801,3.336,4.801,5.472c0,0.432-0.048,0.768-0.072,0.984H308.254z M314.446,84.588c0.024-1.344-0.552-3.433-2.928-3.433
		c-2.136,0-3.072,1.968-3.24,3.433H314.446z"/>
	<path d="M319.102,83.7c0-1.488-0.048-2.688-0.096-3.792h1.896l0.096,1.992h0.048c0.864-1.416,2.232-2.256,4.128-2.256
		c2.808,0,4.92,2.376,4.92,5.904c0,4.176-2.544,6.241-5.28,6.241c-1.536,0-2.88-0.672-3.577-1.824h-0.048v6.312h-2.088V83.7z
		 M321.19,86.796c0,0.312,0.048,0.6,0.096,0.864c0.384,1.464,1.656,2.472,3.168,2.472c2.232,0,3.528-1.824,3.528-4.488
		c0-2.328-1.224-4.32-3.456-4.32c-1.44,0-2.784,1.032-3.192,2.616c-0.072,0.264-0.144,0.576-0.144,0.864V86.796z"/>
	<path d="M343.271,85.62c0,4.296-2.977,6.168-5.785,6.168c-3.144,0-5.568-2.304-5.568-5.977c0-3.888,2.544-6.168,5.76-6.168
		C341.014,79.644,343.271,82.067,343.271,85.62z M334.054,85.74c0,2.544,1.464,4.464,3.528,4.464c2.016,0,3.528-1.896,3.528-4.512
		c0-1.968-0.984-4.464-3.48-4.464S334.054,83.532,334.054,85.74z"/>
	<path d="M345.646,89.364c0.624,0.408,1.728,0.84,2.784,0.84c1.536,0,2.256-0.768,2.256-1.728c0-1.008-0.6-1.56-2.16-2.136
		c-2.088-0.744-3.072-1.896-3.072-3.288c0-1.872,1.512-3.408,4.008-3.408c1.176,0,2.208,0.336,2.856,0.72l-0.528,1.536
		c-0.456-0.288-1.296-0.672-2.376-0.672c-1.248,0-1.944,0.72-1.944,1.584c0,0.96,0.696,1.392,2.208,1.968
		c2.016,0.768,3.048,1.776,3.048,3.504c0,2.04-1.584,3.48-4.345,3.48c-1.272,0-2.448-0.312-3.264-0.792L345.646,89.364z"/>
	<path d="M357.79,76.643c0.024,0.72-0.504,1.296-1.344,1.296c-0.744,0-1.272-0.576-1.272-1.296c0-0.744,0.552-1.32,1.32-1.32
		C357.285,75.323,357.79,75.899,357.79,76.643z M355.437,91.524V79.907h2.112v11.617H355.437z"/>
	<path d="M363.597,76.571v3.336h3.024v1.608h-3.024v6.265c0,1.44,0.408,2.256,1.584,2.256c0.552,0,0.96-0.072,1.224-0.144
		l0.096,1.584c-0.408,0.168-1.056,0.288-1.872,0.288c-0.984,0-1.776-0.312-2.28-0.888c-0.6-0.624-0.816-1.656-0.816-3.024v-6.336
		h-1.8v-1.608h1.8v-2.784L363.597,76.571z"/>
	<path d="M379.366,85.62c0,4.296-2.977,6.168-5.785,6.168c-3.144,0-5.568-2.304-5.568-5.977c0-3.888,2.544-6.168,5.76-6.168
		C377.109,79.644,379.366,82.067,379.366,85.62z M370.149,85.74c0,2.544,1.464,4.464,3.528,4.464c2.016,0,3.528-1.896,3.528-4.512
		c0-1.968-0.984-4.464-3.48-4.464S370.149,83.532,370.149,85.74z"/>
	<path d="M382.028,83.532c0-1.368-0.024-2.544-0.096-3.625h1.848l0.072,2.28h0.096c0.528-1.56,1.8-2.544,3.216-2.544
		c0.24,0,0.408,0.024,0.6,0.072v1.992c-0.216-0.048-0.432-0.072-0.72-0.072c-1.488,0-2.544,1.128-2.832,2.712
		c-0.048,0.288-0.096,0.624-0.096,0.984v6.192h-2.088V83.532z"/>
	<path d="M391.244,79.907l2.544,6.865c0.264,0.768,0.552,1.68,0.744,2.376h0.048c0.216-0.696,0.456-1.584,0.744-2.424l2.304-6.817
		h2.232l-3.168,8.281c-1.512,3.984-2.544,6.025-3.984,7.273c-1.032,0.912-2.064,1.272-2.592,1.368l-0.528-1.776
		c0.528-0.168,1.224-0.504,1.848-1.032c0.576-0.456,1.296-1.272,1.776-2.352c0.096-0.216,0.168-0.384,0.168-0.504
		c0-0.12-0.048-0.288-0.144-0.552l-4.296-10.705H391.244z"/>
</g>
<g>
	<rect x="16.356" y="278.5" fill="none" width="95.532" height="34.786"/>
	<path d="M32.206,286.756c-0.384,0.192-1.151,0.385-2.135,0.385c-2.279,0-3.994-1.439-3.994-4.09c0-2.531,1.715-4.246,4.222-4.246
		c1.007,0,1.643,0.216,1.919,0.36l-0.252,0.851c-0.396-0.191-0.959-0.335-1.631-0.335c-1.895,0-3.154,1.211-3.154,3.333
		c0,1.979,1.139,3.251,3.106,3.251c0.635,0,1.283-0.132,1.703-0.336L32.206,286.756z"/>
	<path d="M38.602,284.07c0,2.146-1.487,3.082-2.89,3.082c-1.571,0-2.783-1.152-2.783-2.986c0-1.943,1.271-3.082,2.878-3.082
		C37.475,281.084,38.602,282.295,38.602,284.07z M33.996,284.129c0,1.271,0.732,2.231,1.763,2.231c1.007,0,1.763-0.947,1.763-2.255
		c0-0.983-0.492-2.23-1.739-2.23C34.536,281.875,33.996,283.026,33.996,284.129z"/>
	<path d="M39.937,278.505h1.056v8.515h-1.056V278.505z"/>
	<path d="M42.769,278.505h1.056v8.515h-1.056V278.505z"/>
	<path d="M48.815,287.02l-0.084-0.73h-0.036c-0.324,0.455-0.947,0.863-1.775,0.863c-1.175,0-1.775-0.828-1.775-1.668
		c0-1.402,1.247-2.17,3.49-2.158v-0.12c0-0.479-0.132-1.343-1.319-1.343c-0.54,0-1.103,0.168-1.511,0.432l-0.24-0.695
		c0.48-0.312,1.176-0.516,1.907-0.516c1.775,0,2.207,1.211,2.207,2.374v2.171c0,0.504,0.024,0.995,0.096,1.391H48.815z
		 M48.659,284.058c-1.151-0.024-2.459,0.18-2.459,1.308c0,0.684,0.456,1.008,0.996,1.008c0.755,0,1.235-0.48,1.403-0.973
		c0.036-0.107,0.06-0.228,0.06-0.336V284.058z"/>
	<path d="M51.336,287.02c0.024-0.396,0.048-0.982,0.048-1.498v-7.017h1.043v3.646h0.024c0.372-0.647,1.043-1.066,1.979-1.066
		c1.439,0,2.458,1.199,2.447,2.962c0,2.075-1.308,3.106-2.603,3.106c-0.84,0-1.511-0.324-1.943-1.092h-0.036l-0.048,0.959H51.336z
		 M52.428,284.693c0,0.132,0.024,0.264,0.048,0.384c0.204,0.731,0.815,1.235,1.583,1.235c1.104,0,1.763-0.899,1.763-2.23
		c0-1.164-0.6-2.159-1.727-2.159c-0.72,0-1.391,0.491-1.607,1.296c-0.024,0.119-0.06,0.264-0.06,0.432V284.693z"/>
	<path d="M63.465,284.07c0,2.146-1.487,3.082-2.89,3.082c-1.571,0-2.783-1.152-2.783-2.986c0-1.943,1.271-3.082,2.878-3.082
		C62.338,281.084,63.465,282.295,63.465,284.07z M58.859,284.129c0,1.271,0.732,2.231,1.763,2.231c1.007,0,1.763-0.947,1.763-2.255
		c0-0.983-0.492-2.23-1.739-2.23C59.399,281.875,58.859,283.026,58.859,284.129z"/>
	<path d="M64.8,283.026c0-0.684-0.012-1.271-0.048-1.812h0.923l0.036,1.14h0.048c0.264-0.779,0.899-1.271,1.607-1.271
		c0.12,0,0.204,0.012,0.3,0.035v0.996c-0.108-0.024-0.216-0.037-0.359-0.037c-0.744,0-1.271,0.564-1.416,1.355
		c-0.024,0.145-0.048,0.312-0.048,0.492v3.094H64.8V283.026z"/>
	<path d="M71.878,287.02l-0.084-0.73h-0.036c-0.324,0.455-0.947,0.863-1.775,0.863c-1.175,0-1.775-0.828-1.775-1.668
		c0-1.402,1.247-2.17,3.49-2.158v-0.12c0-0.479-0.132-1.343-1.319-1.343c-0.54,0-1.104,0.168-1.511,0.432l-0.24-0.695
		c0.48-0.312,1.175-0.516,1.907-0.516c1.775,0,2.207,1.211,2.207,2.374v2.171c0,0.504,0.024,0.995,0.096,1.391H71.878z
		 M71.722,284.058c-1.151-0.024-2.458,0.18-2.458,1.308c0,0.684,0.456,1.008,0.996,1.008c0.755,0,1.235-0.48,1.403-0.973
		c0.036-0.107,0.06-0.228,0.06-0.336V284.058z"/>
	<path d="M75.671,279.548v1.667h1.511v0.804h-1.511v3.13c0,0.721,0.204,1.128,0.792,1.128c0.276,0,0.479-0.036,0.612-0.071
		l0.048,0.791c-0.204,0.084-0.528,0.145-0.936,0.145c-0.492,0-0.888-0.156-1.14-0.444c-0.3-0.312-0.408-0.827-0.408-1.511v-3.167
		H73.74v-0.804h0.899v-1.391L75.671,279.548z"/>
	<path d="M83.552,284.07c0,2.146-1.487,3.082-2.89,3.082c-1.571,0-2.783-1.152-2.783-2.986c0-1.943,1.271-3.082,2.878-3.082
		C82.425,281.084,83.552,282.295,83.552,284.07z M78.947,284.129c0,1.271,0.732,2.231,1.763,2.231c1.007,0,1.763-0.947,1.763-2.255
		c0-0.983-0.492-2.23-1.739-2.23C79.487,281.875,78.947,283.026,78.947,284.129z"/>
	<path d="M84.887,283.026c0-0.684-0.012-1.271-0.048-1.812h0.923l0.036,1.14h0.048c0.264-0.779,0.899-1.271,1.607-1.271
		c0.12,0,0.204,0.012,0.3,0.035v0.996c-0.108-0.024-0.216-0.037-0.36-0.037c-0.744,0-1.271,0.564-1.416,1.355
		c-0.024,0.145-0.048,0.312-0.048,0.492v3.094h-1.043V283.026z"/>
	<path d="M91.595,287.02l0.312-2.35h-0.983v-0.708h1.091l0.228-1.739h-1.032v-0.707h1.14l0.312-2.292h0.696l-0.3,2.292h1.247
		l0.312-2.292h0.708l-0.3,2.292h0.983v0.707h-1.091l-0.216,1.739h1.031v0.708h-1.139l-0.312,2.35h-0.719l0.312-2.35h-1.247
		l-0.312,2.35H91.595z M93.981,283.962l0.228-1.739h-1.248l-0.228,1.739H93.981z"/>
	<path d="M99.274,280.208H99.25l-1.355,0.731l-0.204-0.804l1.703-0.912h0.9v7.795h-1.02V280.208z"/>
</g>
<g>
	<rect x="160.693" y="231.043" fill="none" width="59.238" height="10.913"/>
	<path d="M175.981,239.348c-0.276,0.144-0.887,0.336-1.667,0.336c-1.751,0-2.891-1.188-2.891-2.962c0-1.787,1.224-3.083,3.119-3.083
		c0.624,0,1.175,0.156,1.463,0.3l-0.24,0.815c-0.252-0.144-0.647-0.276-1.223-0.276c-1.332,0-2.051,0.984-2.051,2.195
		c0,1.343,0.864,2.171,2.015,2.171c0.6,0,0.996-0.156,1.295-0.288L175.981,239.348z"/>
	<path d="M182.401,236.613c0,2.146-1.487,3.082-2.89,3.082c-1.571,0-2.783-1.151-2.783-2.986c0-1.943,1.271-3.082,2.878-3.082
		C181.274,233.627,182.401,234.838,182.401,236.613z M177.795,236.673c0,1.271,0.732,2.231,1.763,2.231
		c1.007,0,1.763-0.947,1.763-2.255c0-0.983-0.492-2.23-1.739-2.23C178.335,234.418,177.795,235.57,177.795,236.673z"/>
	<path d="M183.736,235.33c0-0.6-0.012-1.091-0.048-1.571h0.923l0.048,0.936h0.036c0.324-0.552,0.864-1.067,1.823-1.067
		c0.792,0,1.391,0.479,1.643,1.163h0.024c0.18-0.324,0.408-0.576,0.647-0.755c0.348-0.264,0.731-0.408,1.283-0.408
		c0.768,0,1.907,0.503,1.907,2.519v3.418h-1.032v-3.286c0-1.115-0.408-1.787-1.259-1.787c-0.6,0-1.067,0.444-1.247,0.959
		c-0.048,0.144-0.084,0.336-0.084,0.528v3.586h-1.032v-3.478c0-0.923-0.408-1.595-1.211-1.595c-0.66,0-1.14,0.528-1.308,1.056
		c-0.06,0.156-0.084,0.335-0.084,0.516v3.502h-1.031V235.33z"/>
	<path d="M193.744,235.33c0-0.6-0.012-1.091-0.048-1.571h0.923l0.048,0.936h0.036c0.324-0.552,0.864-1.067,1.823-1.067
		c0.792,0,1.391,0.479,1.643,1.163h0.024c0.18-0.324,0.408-0.576,0.647-0.755c0.348-0.264,0.731-0.408,1.283-0.408
		c0.768,0,1.907,0.503,1.907,2.519v3.418H201v-3.286c0-1.115-0.408-1.787-1.259-1.787c-0.6,0-1.067,0.444-1.247,0.959
		c-0.048,0.144-0.084,0.336-0.084,0.528v3.586h-1.032v-3.478c0-0.923-0.408-1.595-1.211-1.595c-0.66,0-1.14,0.528-1.308,1.056
		c-0.06,0.156-0.084,0.335-0.084,0.516v3.502h-1.031V235.33z"/>
	<path d="M204.927,232.127c0.012,0.36-0.252,0.648-0.671,0.648c-0.372,0-0.636-0.288-0.636-0.648c0-0.372,0.276-0.66,0.66-0.66
		C204.675,231.468,204.927,231.756,204.927,232.127z M203.751,239.563v-5.805h1.056v5.805H203.751z"/>
	<path d="M207.831,232.092v1.667h1.511v0.803h-1.511v3.13c0,0.72,0.204,1.127,0.792,1.127c0.276,0,0.479-0.036,0.611-0.072
		l0.048,0.792c-0.204,0.084-0.528,0.144-0.936,0.144c-0.492,0-0.888-0.156-1.14-0.444c-0.3-0.312-0.408-0.828-0.408-1.511v-3.167
		H205.9v-0.803h0.899v-1.391L207.831,232.092z"/>
</g>
<g>
	<rect x="135.221" y="191.094" fill="none" width="50.945" height="13.81"/>
	<path d="M148.498,198.031c0,0.6,0.012,1.127,0.048,1.583h-0.936l-0.06-0.947h-0.024c-0.276,0.467-0.887,1.079-1.919,1.079
		c-0.911,0-2.003-0.503-2.003-2.542v-3.394h1.056v3.214c0,1.103,0.336,1.847,1.295,1.847c0.708,0,1.199-0.492,1.391-0.959
		c0.06-0.156,0.096-0.348,0.096-0.54v-3.562h1.056V198.031z"/>
	<path d="M150.252,195.704c0-0.744-0.024-1.343-0.048-1.895h0.947l0.048,0.995h0.024c0.432-0.708,1.115-1.127,2.062-1.127
		c1.403,0,2.459,1.187,2.459,2.95c0,2.087-1.271,3.118-2.639,3.118c-0.768,0-1.439-0.336-1.787-0.912h-0.024v3.154h-1.043V195.704z
		 M151.296,197.251c0,0.156,0.024,0.3,0.048,0.432c0.192,0.732,0.828,1.235,1.583,1.235c1.116,0,1.763-0.911,1.763-2.243
		c0-1.163-0.612-2.159-1.727-2.159c-0.72,0-1.391,0.516-1.595,1.307c-0.036,0.132-0.072,0.288-0.072,0.432V197.251z"/>
	<path d="M162.093,191.099v7.016c0,0.516,0.012,1.103,0.048,1.499h-0.947l-0.048-1.007h-0.024c-0.324,0.647-1.032,1.139-1.979,1.139
		c-1.403,0-2.483-1.187-2.483-2.95c-0.012-1.931,1.188-3.118,2.603-3.118c0.888,0,1.487,0.419,1.751,0.887h0.024v-3.466H162.093z
		 M161.038,196.172c0-0.132-0.012-0.312-0.048-0.444c-0.156-0.672-0.731-1.224-1.523-1.224c-1.091,0-1.739,0.959-1.739,2.243
		c0,1.175,0.576,2.146,1.715,2.146c0.708,0,1.355-0.468,1.547-1.259c0.036-0.144,0.048-0.288,0.048-0.456V196.172z"/>
	<path d="M167.062,199.614l-0.084-0.731h-0.036c-0.324,0.456-0.947,0.863-1.775,0.863c-1.175,0-1.775-0.828-1.775-1.667
		c0-1.403,1.247-2.171,3.49-2.159v-0.12c0-0.479-0.132-1.343-1.319-1.343c-0.54,0-1.104,0.168-1.511,0.432l-0.24-0.695
		c0.48-0.312,1.175-0.516,1.907-0.516c1.775,0,2.207,1.211,2.207,2.375v2.171c0,0.503,0.024,0.995,0.096,1.391H167.062z
		 M166.906,196.651c-1.151-0.024-2.458,0.18-2.458,1.307c0,0.684,0.456,1.008,0.996,1.008c0.755,0,1.235-0.48,1.403-0.972
		c0.036-0.108,0.06-0.228,0.06-0.336V196.651z"/>
	<path d="M170.856,192.142v1.667h1.511v0.803h-1.511v3.13c0,0.72,0.204,1.127,0.792,1.127c0.276,0,0.479-0.036,0.611-0.072
		l0.048,0.792c-0.204,0.084-0.528,0.144-0.936,0.144c-0.492,0-0.888-0.156-1.14-0.444c-0.3-0.312-0.408-0.828-0.408-1.511v-3.167
		h-0.899v-0.803h0.899v-1.391L170.856,192.142z"/>
	<path d="M174.072,196.903c0.024,1.427,0.935,2.015,1.991,2.015c0.755,0,1.211-0.132,1.607-0.3l0.18,0.756
		c-0.372,0.168-1.007,0.36-1.931,0.36c-1.787,0-2.854-1.175-2.854-2.927c0-1.751,1.032-3.13,2.723-3.13
		c1.895,0,2.399,1.667,2.399,2.734c0,0.216-0.024,0.384-0.036,0.492H174.072z M177.166,196.147c0.012-0.671-0.276-1.715-1.463-1.715
		c-1.067,0-1.535,0.983-1.619,1.715H177.166z"/>
</g>
<g>
	
		<ellipse fill="#BDCCD4" stroke="#000000" stroke-width="2" stroke-miterlimit="10" cx="284.301" cy="204.749" rx="50.197" ry="20.25"/>
	<rect x="233.388" y="125" fill="#BDCCD4" width="101" height="80"/>
	
		<ellipse fill="#BDCCD4" stroke="#000000" stroke-width="2" stroke-miterlimit="10" cx="284.301" cy="124.749" rx="50.197" ry="20.25"/>
	<line fill="#BDCCD4" stroke="#000000" stroke-width="2" stroke-miterlimit="10" x1="233.388" y1="125" x2="233.388" y2="205"/>
	<line fill="#BDCCD4" stroke="#000000" stroke-width="2" stroke-miterlimit="10" x1="334.388" y1="125" x2="334.388" y2="209"/>
	<path fill="#BDCCD4" stroke="#000000" stroke-width="2" stroke-miterlimit="10" d="M234.492,155.724
		c21.577,21.577,76.735,21.903,98.879-0.241"/>
	<path fill="#BDCCD4" stroke="#000000" stroke-width="2" stroke-miterlimit="10" d="M234.492,181.724
		c21.577,21.577,76.735,21.903,98.879-0.241"/>
</g>
<path opacity="0.7" fill="#7AC943" stroke="#000000" stroke-miterlimit="10" d="M332.888,359.298c0,4.584-1.83,8.202-4.317,8.202
	h-85.18c-2.487,0-4.503-3.618-4.503-8.202v-45.649c0-4.584,2.016-8.148,4.503-8.148h85.18c2.487,0,4.317,3.564,4.317,8.148V359.298z
	"/>
<g>
	<rect x="237.356" y="378.5" fill="none" width="95.532" height="34.786"/>
	<path d="M253.206,386.756c-0.384,0.192-1.151,0.385-2.135,0.385c-2.279,0-3.994-1.439-3.994-4.09c0-2.531,1.715-4.246,4.222-4.246
		c1.007,0,1.643,0.216,1.919,0.359l-0.252,0.852c-0.396-0.191-0.959-0.336-1.631-0.336c-1.895,0-3.154,1.212-3.154,3.334
		c0,1.979,1.139,3.251,3.106,3.251c0.635,0,1.283-0.132,1.703-0.336L253.206,386.756z"/>
	<path d="M259.602,384.07c0,2.146-1.487,3.082-2.89,3.082c-1.571,0-2.783-1.152-2.783-2.986c0-1.943,1.271-3.082,2.878-3.082
		C258.475,381.084,259.602,382.295,259.602,384.07z M254.996,384.129c0,1.271,0.732,2.231,1.763,2.231
		c1.007,0,1.763-0.947,1.763-2.255c0-0.983-0.492-2.23-1.739-2.23C255.536,381.875,254.996,383.026,254.996,384.129z"/>
	<path d="M260.937,378.505h1.056v8.515h-1.056V378.505z"/>
	<path d="M263.769,378.505h1.056v8.515h-1.056V378.505z"/>
	<path d="M269.815,387.02l-0.084-0.73h-0.036c-0.324,0.455-0.947,0.863-1.775,0.863c-1.175,0-1.775-0.828-1.775-1.668
		c0-1.402,1.247-2.17,3.49-2.158v-0.12c0-0.479-0.132-1.343-1.319-1.343c-0.54,0-1.103,0.168-1.511,0.432l-0.24-0.695
		c0.48-0.312,1.176-0.516,1.907-0.516c1.775,0,2.207,1.211,2.207,2.374v2.171c0,0.504,0.024,0.995,0.096,1.391H269.815z
		 M269.659,384.058c-1.151-0.024-2.459,0.18-2.459,1.308c0,0.684,0.456,1.008,0.996,1.008c0.755,0,1.235-0.48,1.403-0.973
		c0.036-0.107,0.06-0.228,0.06-0.336V384.058z"/>
	<path d="M272.336,387.02c0.024-0.396,0.048-0.982,0.048-1.498v-7.017h1.043v3.646h0.024c0.372-0.647,1.043-1.066,1.979-1.066
		c1.439,0,2.458,1.199,2.447,2.962c0,2.075-1.308,3.106-2.603,3.106c-0.84,0-1.511-0.324-1.943-1.092h-0.036l-0.048,0.959H272.336z
		 M273.428,384.693c0,0.132,0.024,0.264,0.048,0.384c0.204,0.731,0.815,1.235,1.583,1.235c1.104,0,1.763-0.899,1.763-2.23
		c0-1.164-0.6-2.159-1.727-2.159c-0.72,0-1.391,0.491-1.607,1.296c-0.024,0.119-0.06,0.264-0.06,0.432V384.693z"/>
	<path d="M284.465,384.07c0,2.146-1.487,3.082-2.89,3.082c-1.571,0-2.783-1.152-2.783-2.986c0-1.943,1.271-3.082,2.878-3.082
		C283.338,381.084,284.465,382.295,284.465,384.07z M279.859,384.129c0,1.271,0.732,2.231,1.763,2.231
		c1.007,0,1.763-0.947,1.763-2.255c0-0.983-0.492-2.23-1.739-2.23C280.399,381.875,279.859,383.026,279.859,384.129z"/>
	<path d="M285.8,383.026c0-0.684-0.012-1.271-0.048-1.812h0.923l0.036,1.14h0.048c0.264-0.779,0.899-1.271,1.607-1.271
		c0.12,0,0.204,0.012,0.3,0.035v0.996c-0.108-0.024-0.216-0.037-0.359-0.037c-0.744,0-1.271,0.564-1.416,1.355
		c-0.024,0.145-0.048,0.312-0.048,0.492v3.094H285.8V383.026z"/>
	<path d="M292.878,387.02l-0.084-0.73h-0.036c-0.324,0.455-0.947,0.863-1.775,0.863c-1.175,0-1.775-0.828-1.775-1.668
		c0-1.402,1.247-2.17,3.49-2.158v-0.12c0-0.479-0.132-1.343-1.319-1.343c-0.54,0-1.104,0.168-1.511,0.432l-0.24-0.695
		c0.48-0.312,1.175-0.516,1.907-0.516c1.775,0,2.207,1.211,2.207,2.374v2.171c0,0.504,0.024,0.995,0.096,1.391H292.878z
		 M292.722,384.058c-1.151-0.024-2.458,0.18-2.458,1.308c0,0.684,0.456,1.008,0.996,1.008c0.755,0,1.235-0.48,1.403-0.973
		c0.036-0.107,0.06-0.228,0.06-0.336V384.058z"/>
	<path d="M296.671,379.549v1.666h1.511v0.804h-1.511v3.13c0,0.721,0.204,1.128,0.792,1.128c0.276,0,0.479-0.036,0.612-0.071
		l0.048,0.791c-0.204,0.084-0.528,0.145-0.936,0.145c-0.492,0-0.888-0.156-1.14-0.444c-0.3-0.312-0.408-0.827-0.408-1.511v-3.167
		h-0.899v-0.804h0.899v-1.391L296.671,379.549z"/>
	<path d="M304.552,384.07c0,2.146-1.487,3.082-2.89,3.082c-1.571,0-2.783-1.152-2.783-2.986c0-1.943,1.271-3.082,2.878-3.082
		C303.425,381.084,304.552,382.295,304.552,384.07z M299.947,384.129c0,1.271,0.732,2.231,1.763,2.231
		c1.007,0,1.763-0.947,1.763-2.255c0-0.983-0.492-2.23-1.739-2.23C300.487,381.875,299.947,383.026,299.947,384.129z"/>
	<path d="M305.887,383.026c0-0.684-0.012-1.271-0.048-1.812h0.923l0.036,1.14h0.048c0.264-0.779,0.899-1.271,1.607-1.271
		c0.12,0,0.204,0.012,0.3,0.035v0.996c-0.108-0.024-0.216-0.037-0.36-0.037c-0.744,0-1.271,0.564-1.416,1.355
		c-0.024,0.145-0.048,0.312-0.048,0.492v3.094h-1.043V383.026z"/>
	<path d="M312.595,387.02l0.312-2.35h-0.983v-0.708h1.091l0.228-1.739h-1.032v-0.707h1.14l0.312-2.291h0.696l-0.3,2.291h1.247
		l0.312-2.291h0.708l-0.3,2.291h0.983v0.707h-1.091l-0.216,1.739h1.031v0.708h-1.139l-0.312,2.35h-0.719l0.312-2.35h-1.247
		l-0.312,2.35H312.595z M314.981,383.962l0.228-1.739h-1.248l-0.228,1.739H314.981z"/>
	<path d="M317.983,387.02v-0.646l0.828-0.805c1.991-1.895,2.891-2.902,2.902-4.077c0-0.792-0.384-1.523-1.547-1.523
		c-0.708,0-1.295,0.36-1.655,0.659l-0.336-0.743c0.54-0.456,1.308-0.792,2.207-0.792c1.679,0,2.387,1.152,2.387,2.268
		c0,1.439-1.043,2.603-2.687,4.186l-0.624,0.576v0.023h3.502v0.875H317.983z"/>
</g>
<path opacity="0.7" fill="#FF931E" stroke="#000000" stroke-miterlimit="10" d="M551.888,255.298c0,4.584-1.83,8.202-4.316,8.202
	h-85.181c-2.487,0-4.503-3.618-4.503-8.202v-45.649c0-4.584,2.016-8.148,4.503-8.148h85.181c2.486,0,4.316,3.564,4.316,8.148
	V255.298z"/>
<g>
	<rect x="456.357" y="274.5" fill="none" width="95.531" height="34.786"/>
	<path d="M472.206,282.756c-0.384,0.192-1.151,0.385-2.135,0.385c-2.278,0-3.994-1.439-3.994-4.09c0-2.531,1.716-4.246,4.222-4.246
		c1.008,0,1.643,0.216,1.919,0.36l-0.252,0.851c-0.396-0.191-0.96-0.335-1.631-0.335c-1.896,0-3.154,1.211-3.154,3.334
		c0,1.979,1.14,3.25,3.106,3.25c0.635,0,1.283-0.132,1.703-0.336L472.206,282.756z"/>
	<path d="M478.601,280.07c0,2.147-1.486,3.083-2.89,3.083c-1.571,0-2.782-1.152-2.782-2.987c0-1.943,1.271-3.082,2.878-3.082
		C477.474,277.083,478.601,278.294,478.601,280.07z M473.996,280.129c0,1.271,0.732,2.231,1.764,2.231
		c1.008,0,1.764-0.947,1.764-2.255c0-0.983-0.492-2.23-1.74-2.23C474.537,277.875,473.996,279.026,473.996,280.129z"/>
	<path d="M479.937,274.505h1.055v8.515h-1.055V274.505z"/>
	<path d="M482.769,274.505h1.055v8.515h-1.055V274.505z"/>
	<path d="M488.815,283.02l-0.084-0.73h-0.036c-0.324,0.455-0.947,0.863-1.775,0.863c-1.175,0-1.774-0.828-1.774-1.668
		c0-1.403,1.247-2.17,3.489-2.158v-0.12c0-0.479-0.131-1.343-1.318-1.343c-0.54,0-1.104,0.168-1.512,0.432l-0.24-0.695
		c0.48-0.312,1.176-0.516,1.908-0.516c1.774,0,2.206,1.211,2.206,2.375v2.171c0,0.504,0.024,0.995,0.097,1.391H488.815z
		 M488.66,280.058c-1.152-0.024-2.459,0.18-2.459,1.308c0,0.684,0.455,1.008,0.995,1.008c0.755,0,1.235-0.48,1.403-0.973
		c0.035-0.107,0.061-0.228,0.061-0.336V280.058z"/>
	<path d="M491.336,283.02c0.024-0.396,0.048-0.982,0.048-1.498v-7.017h1.043v3.646h0.024c0.372-0.648,1.044-1.067,1.979-1.067
		c1.438,0,2.458,1.199,2.446,2.962c0,2.075-1.308,3.106-2.603,3.106c-0.84,0-1.512-0.324-1.943-1.092h-0.035l-0.049,0.959H491.336z
		 M492.427,280.693c0,0.132,0.024,0.264,0.049,0.384c0.203,0.731,0.814,1.235,1.582,1.235c1.104,0,1.764-0.899,1.764-2.231
		c0-1.163-0.6-2.159-1.727-2.159c-0.721,0-1.392,0.492-1.607,1.295c-0.023,0.12-0.061,0.264-0.061,0.432V280.693z"/>
	<path d="M503.464,280.07c0,2.147-1.486,3.083-2.89,3.083c-1.571,0-2.782-1.152-2.782-2.987c0-1.943,1.271-3.082,2.878-3.082
		C502.337,277.083,503.464,278.294,503.464,280.07z M498.859,280.129c0,1.271,0.732,2.231,1.764,2.231
		c1.008,0,1.764-0.947,1.764-2.255c0-0.983-0.492-2.23-1.74-2.23C499.4,277.875,498.859,279.026,498.859,280.129z"/>
	<path d="M504.8,279.026c0-0.684-0.012-1.271-0.049-1.811h0.924l0.036,1.139h0.048c0.264-0.779,0.899-1.271,1.607-1.271
		c0.119,0,0.203,0.012,0.299,0.036v0.996c-0.107-0.024-0.215-0.036-0.359-0.036c-0.743,0-1.271,0.564-1.415,1.355
		c-0.024,0.144-0.048,0.312-0.048,0.492v3.094H504.8V279.026z"/>
	<path d="M511.878,283.02l-0.084-0.73h-0.037c-0.323,0.455-0.947,0.863-1.774,0.863c-1.175,0-1.774-0.828-1.774-1.668
		c0-1.403,1.246-2.17,3.489-2.158v-0.12c0-0.479-0.132-1.343-1.319-1.343c-0.539,0-1.104,0.168-1.511,0.432l-0.24-0.695
		c0.479-0.312,1.175-0.516,1.907-0.516c1.775,0,2.207,1.211,2.207,2.375v2.171c0,0.504,0.023,0.995,0.096,1.391H511.878z
		 M511.722,280.058c-1.152-0.024-2.459,0.18-2.459,1.308c0,0.684,0.456,1.008,0.996,1.008c0.755,0,1.234-0.48,1.402-0.973
		c0.036-0.107,0.061-0.228,0.061-0.336V280.058z"/>
	<path d="M515.671,275.548v1.667h1.511v0.803h-1.511v3.13c0,0.721,0.203,1.128,0.791,1.128c0.275,0,0.479-0.036,0.611-0.071
		l0.049,0.791c-0.205,0.084-0.528,0.145-0.936,0.145c-0.492,0-0.889-0.156-1.141-0.444c-0.299-0.312-0.407-0.827-0.407-1.511v-3.167
		h-0.899v-0.803h0.899v-1.391L515.671,275.548z"/>
	<path d="M523.552,280.07c0,2.147-1.486,3.083-2.891,3.083c-1.57,0-2.782-1.152-2.782-2.987c0-1.943,1.271-3.082,2.878-3.082
		C522.425,277.083,523.552,278.294,523.552,280.07z M518.947,280.129c0,1.271,0.732,2.231,1.764,2.231
		c1.007,0,1.763-0.947,1.763-2.255c0-0.983-0.491-2.23-1.739-2.23C519.487,277.875,518.947,279.026,518.947,280.129z"/>
	<path d="M524.887,279.026c0-0.684-0.013-1.271-0.048-1.811h0.924l0.035,1.139h0.049c0.264-0.779,0.898-1.271,1.606-1.271
		c0.12,0,0.204,0.012,0.3,0.036v0.996c-0.107-0.024-0.216-0.036-0.359-0.036c-0.744,0-1.271,0.564-1.416,1.355
		c-0.023,0.144-0.047,0.312-0.047,0.492v3.094h-1.044V279.026z"/>
	<path d="M531.595,283.02l0.312-2.35h-0.983v-0.708h1.092l0.228-1.739h-1.032v-0.708h1.141l0.311-2.291h0.696l-0.3,2.291h1.247
		l0.312-2.291h0.708l-0.3,2.291h0.983v0.708h-1.091l-0.217,1.739h1.031v0.708h-1.139l-0.312,2.35h-0.719l0.312-2.35h-1.247
		l-0.312,2.35H531.595z M533.982,279.962l0.228-1.739h-1.247l-0.229,1.739H533.982z"/>
	<path d="M537.235,281.809c0.3,0.191,0.995,0.492,1.728,0.492c1.355,0,1.774-0.863,1.763-1.512
		c-0.013-1.091-0.995-1.559-2.015-1.559h-0.588v-0.792h0.588c0.768,0,1.738-0.396,1.738-1.319c0-0.624-0.396-1.175-1.367-1.175
		c-0.623,0-1.223,0.276-1.559,0.516l-0.275-0.768c0.407-0.3,1.199-0.6,2.038-0.6c1.535,0,2.231,0.912,2.231,1.859
		c0,0.804-0.48,1.487-1.439,1.835v0.024c0.959,0.192,1.738,0.911,1.738,2.003c0,1.247-0.971,2.339-2.842,2.339
		c-0.875,0-1.643-0.276-2.027-0.528L537.235,281.809z"/>
</g>
<g>
	<g>
		
			<line fill="none" stroke="#000000" stroke-width="2" stroke-miterlimit="10" x1="136.797" y1="221.06" x2="225.054" y2="190.595"/>
		<g>
			<path d="M125.388,224.999c6.057,0.139,13.891,1.238,19.263,3.413l-6.356-7.868l0.149-10.112
				C135.558,215.457,130.069,221.155,125.388,224.999z"/>
		</g>
	</g>
</g>
<g>
	<g>
		
			<line fill="none" stroke="#000000" stroke-width="2" stroke-miterlimit="10" x1="218.645" y1="208.534" x2="130.388" y2="238.998"/>
		<g>
			<path d="M230.055,204.596c-6.057-0.139-13.891-1.238-19.263-3.414l6.355,7.869l-0.149,10.112
				C219.885,214.137,225.373,208.439,230.055,204.596z"/>
		</g>
	</g>
</g>
<g>
	<rect x="354.879" y="228.043" fill="none" width="59.238" height="10.913"/>
	<path d="M370.168,236.348c-0.276,0.144-0.887,0.336-1.667,0.336c-1.751,0-2.891-1.188-2.891-2.962c0-1.787,1.224-3.083,3.119-3.083
		c0.624,0,1.175,0.156,1.463,0.3l-0.24,0.815c-0.252-0.144-0.647-0.276-1.223-0.276c-1.332,0-2.051,0.984-2.051,2.195
		c0,1.343,0.864,2.171,2.015,2.171c0.6,0,0.996-0.156,1.295-0.288L370.168,236.348z"/>
	<path d="M376.587,233.613c0,2.146-1.487,3.082-2.89,3.082c-1.571,0-2.783-1.151-2.783-2.986c0-1.943,1.271-3.082,2.878-3.082
		C375.46,230.627,376.587,231.838,376.587,233.613z M371.982,233.673c0,1.271,0.732,2.231,1.763,2.231
		c1.007,0,1.763-0.947,1.763-2.255c0-0.983-0.492-2.23-1.739-2.23C372.522,231.418,371.982,232.57,371.982,233.673z"/>
	<path d="M377.922,232.33c0-0.6-0.012-1.091-0.048-1.571h0.923l0.048,0.936h0.036c0.324-0.552,0.864-1.067,1.823-1.067
		c0.792,0,1.391,0.479,1.643,1.163h0.024c0.18-0.324,0.408-0.576,0.647-0.755c0.348-0.264,0.731-0.408,1.283-0.408
		c0.768,0,1.907,0.503,1.907,2.519v3.418h-1.032v-3.286c0-1.115-0.408-1.787-1.259-1.787c-0.6,0-1.067,0.444-1.247,0.959
		c-0.048,0.144-0.084,0.336-0.084,0.528v3.586h-1.032v-3.478c0-0.923-0.408-1.595-1.211-1.595c-0.66,0-1.14,0.528-1.308,1.056
		c-0.06,0.156-0.084,0.335-0.084,0.516v3.502h-1.031V232.33z"/>
	<path d="M387.93,232.33c0-0.6-0.012-1.091-0.048-1.571h0.923l0.048,0.936h0.036c0.324-0.552,0.864-1.067,1.823-1.067
		c0.792,0,1.391,0.479,1.643,1.163h0.024c0.18-0.324,0.408-0.576,0.647-0.755c0.348-0.264,0.731-0.408,1.283-0.408
		c0.768,0,1.907,0.503,1.907,2.519v3.418h-1.032v-3.286c0-1.115-0.408-1.787-1.259-1.787c-0.6,0-1.067,0.444-1.247,0.959
		c-0.048,0.144-0.084,0.336-0.084,0.528v3.586h-1.032v-3.478c0-0.923-0.408-1.595-1.211-1.595c-0.66,0-1.14,0.528-1.308,1.056
		c-0.06,0.156-0.084,0.335-0.084,0.516v3.502h-1.031V232.33z"/>
	<path d="M399.113,229.127c0.012,0.36-0.252,0.648-0.671,0.648c-0.372,0-0.636-0.288-0.636-0.648c0-0.372,0.276-0.66,0.66-0.66
		C398.861,228.468,399.113,228.756,399.113,229.127z M397.938,236.563v-5.805h1.056v5.805H397.938z"/>
	<path d="M402.018,229.092v1.667h1.511v0.803h-1.511v3.13c0,0.72,0.204,1.127,0.792,1.127c0.276,0,0.479-0.036,0.611-0.072
		l0.048,0.792c-0.204,0.084-0.528,0.144-0.936,0.144c-0.492,0-0.888-0.156-1.14-0.444c-0.3-0.312-0.408-0.828-0.408-1.511v-3.167
		h-0.899v-0.803h0.899v-1.391L402.018,229.092z"/>
</g>
<g>
	<rect x="380.84" y="187.139" fill="none" width="50.945" height="13.81"/>
	<path d="M394.117,194.076c0,0.6,0.012,1.127,0.048,1.583h-0.936l-0.06-0.947h-0.024c-0.276,0.467-0.887,1.079-1.919,1.079
		c-0.911,0-2.003-0.503-2.003-2.542v-3.394h1.056v3.214c0,1.103,0.336,1.847,1.295,1.847c0.708,0,1.199-0.492,1.391-0.959
		c0.06-0.156,0.096-0.348,0.096-0.54v-3.562h1.056V194.076z"/>
	<path d="M395.872,191.749c0-0.744-0.024-1.343-0.048-1.895h0.947l0.048,0.995h0.024c0.432-0.708,1.115-1.127,2.062-1.127
		c1.403,0,2.459,1.187,2.459,2.95c0,2.087-1.271,3.118-2.639,3.118c-0.768,0-1.439-0.336-1.787-0.912h-0.024v3.154h-1.043V191.749z
		 M396.915,193.296c0,0.156,0.024,0.3,0.048,0.432c0.192,0.732,0.828,1.235,1.583,1.235c1.116,0,1.763-0.911,1.763-2.243
		c0-1.163-0.612-2.159-1.727-2.159c-0.72,0-1.391,0.516-1.595,1.307c-0.036,0.132-0.072,0.288-0.072,0.432V193.296z"/>
	<path d="M407.712,187.144v7.016c0,0.516,0.012,1.103,0.048,1.499h-0.947l-0.048-1.007h-0.024c-0.324,0.647-1.032,1.139-1.979,1.139
		c-1.403,0-2.483-1.187-2.483-2.95c-0.012-1.931,1.188-3.118,2.603-3.118c0.888,0,1.487,0.419,1.751,0.887h0.024v-3.466H407.712z
		 M406.657,192.217c0-0.132-0.012-0.312-0.048-0.444c-0.156-0.672-0.731-1.224-1.523-1.224c-1.091,0-1.739,0.959-1.739,2.243
		c0,1.175,0.576,2.146,1.715,2.146c0.708,0,1.355-0.468,1.547-1.259c0.036-0.144,0.048-0.288,0.048-0.456V192.217z"/>
	<path d="M412.682,195.659l-0.084-0.731h-0.036c-0.324,0.456-0.947,0.863-1.775,0.863c-1.175,0-1.775-0.828-1.775-1.667
		c0-1.403,1.247-2.171,3.49-2.159v-0.12c0-0.479-0.132-1.343-1.319-1.343c-0.54,0-1.104,0.168-1.511,0.432l-0.24-0.695
		c0.48-0.312,1.175-0.516,1.907-0.516c1.775,0,2.207,1.211,2.207,2.375v2.171c0,0.503,0.024,0.995,0.096,1.391H412.682z
		 M412.525,192.696c-1.151-0.024-2.458,0.18-2.458,1.307c0,0.684,0.456,1.008,0.996,1.008c0.755,0,1.235-0.48,1.403-0.972
		c0.036-0.108,0.06-0.228,0.06-0.336V192.696z"/>
	<path d="M416.475,188.187v1.667h1.511v0.803h-1.511v3.13c0,0.72,0.204,1.127,0.792,1.127c0.276,0,0.479-0.036,0.611-0.072
		l0.048,0.792c-0.204,0.084-0.528,0.144-0.936,0.144c-0.492,0-0.888-0.156-1.14-0.444c-0.3-0.312-0.408-0.828-0.408-1.511v-3.167
		h-0.899v-0.803h0.899v-1.391L416.475,188.187z"/>
	<path d="M419.691,192.948c0.024,1.427,0.935,2.015,1.991,2.015c0.755,0,1.211-0.132,1.607-0.3l0.18,0.756
		c-0.372,0.168-1.007,0.36-1.931,0.36c-1.787,0-2.854-1.175-2.854-2.927c0-1.751,1.032-3.13,2.723-3.13
		c1.895,0,2.399,1.667,2.399,2.734c0,0.216-0.024,0.384-0.036,0.492H419.691z M422.785,192.192c0.012-0.671-0.276-1.715-1.463-1.715
		c-1.067,0-1.535,0.983-1.619,1.715H422.785z"/>
</g>
<g>
	<g>
		
			<line fill="none" stroke="#000000" stroke-width="2" stroke-miterlimit="10" x1="434.644" y1="220.06" x2="346.388" y2="189.595"/>
		<g>
			<path d="M446.054,223.999c-4.682-3.845-10.169-9.543-13.056-14.569l0.148,10.114l-6.355,7.867
				C432.164,225.235,439.999,224.136,446.054,223.999z"/>
		</g>
	</g>
</g>
<g>
	<g>
		
			<line fill="none" stroke="#000000" stroke-width="2" stroke-miterlimit="10" x1="352.797" y1="207.534" x2="441.054" y2="237.998"/>
		<g>
			<path d="M341.388,203.596c4.681,3.845,10.169,9.543,13.056,14.569l-0.148-10.114l6.355-7.867
				C355.278,202.359,347.443,203.458,341.388,203.596z"/>
		</g>
	</g>
</g>
<g>
	<g>
		<line fill="none" stroke="#000000" stroke-width="2" stroke-miterlimit="10" x1="294.388" y1="251" x2="294.388" y2="295"/>
		<g>
			<path d="M294.388,239c-2.107,5.68-5.703,12.727-9.512,17.095l9.512-3.44l9.51,3.44C300.089,251.727,296.494,244.68,294.388,239z"
				/>
		</g>
	</g>
</g>
<g>
	<g>
		<line fill="none" stroke="#000000" stroke-width="2" stroke-miterlimit="10" x1="275.388" y1="283" x2="275.388" y2="239"/>
		<g>
			<path d="M275.388,294.943c2.107-5.68,5.703-12.727,9.512-17.095l-9.512,3.44l-9.51-3.44
				C269.687,282.217,273.283,289.264,275.388,294.943z"/>
		</g>
	</g>
</g>
<g>
	<rect x="297.388" y="262.044" fill="none" width="59.238" height="10.913"/>
	<path d="M312.677,270.348c-0.276,0.144-0.887,0.336-1.667,0.336c-1.751,0-2.891-1.188-2.891-2.962c0-1.787,1.224-3.083,3.119-3.083
		c0.624,0,1.175,0.156,1.463,0.3l-0.24,0.815c-0.252-0.144-0.647-0.276-1.223-0.276c-1.332,0-2.051,0.984-2.051,2.195
		c0,1.343,0.864,2.171,2.015,2.171c0.6,0,0.996-0.156,1.295-0.288L312.677,270.348z"/>
	<path d="M319.096,267.614c0,2.146-1.487,3.082-2.89,3.082c-1.571,0-2.783-1.151-2.783-2.986c0-1.943,1.271-3.082,2.878-3.082
		C317.969,264.627,319.096,265.838,319.096,267.614z M314.491,267.673c0,1.271,0.732,2.231,1.763,2.231
		c1.007,0,1.763-0.947,1.763-2.255c0-0.983-0.492-2.23-1.739-2.23C315.031,265.419,314.491,266.57,314.491,267.673z"/>
	<path d="M320.431,266.33c0-0.6-0.012-1.091-0.048-1.571h0.923l0.048,0.936h0.036c0.324-0.552,0.864-1.067,1.823-1.067
		c0.792,0,1.391,0.479,1.643,1.163h0.024c0.18-0.324,0.408-0.576,0.647-0.755c0.348-0.264,0.731-0.408,1.283-0.408
		c0.768,0,1.907,0.503,1.907,2.519v3.418h-1.032v-3.286c0-1.115-0.408-1.787-1.259-1.787c-0.6,0-1.067,0.444-1.247,0.959
		c-0.048,0.144-0.084,0.336-0.084,0.528v3.586h-1.032v-3.478c0-0.923-0.408-1.595-1.211-1.595c-0.66,0-1.14,0.528-1.308,1.056
		c-0.06,0.156-0.084,0.335-0.084,0.516v3.502h-1.031V266.33z"/>
	<path d="M330.439,266.33c0-0.6-0.012-1.091-0.048-1.571h0.923l0.048,0.936h0.036c0.324-0.552,0.864-1.067,1.823-1.067
		c0.792,0,1.391,0.479,1.643,1.163h0.024c0.18-0.324,0.408-0.576,0.647-0.755c0.348-0.264,0.731-0.408,1.283-0.408
		c0.768,0,1.907,0.503,1.907,2.519v3.418h-1.032v-3.286c0-1.115-0.408-1.787-1.259-1.787c-0.6,0-1.067,0.444-1.247,0.959
		c-0.048,0.144-0.084,0.336-0.084,0.528v3.586h-1.032v-3.478c0-0.923-0.408-1.595-1.211-1.595c-0.66,0-1.14,0.528-1.308,1.056
		c-0.06,0.156-0.084,0.335-0.084,0.516v3.502h-1.031V266.33z"/>
	<path d="M341.622,263.128c0.012,0.36-0.252,0.648-0.671,0.648c-0.372,0-0.636-0.288-0.636-0.648c0-0.372,0.276-0.66,0.66-0.66
		C341.37,262.468,341.622,262.756,341.622,263.128z M340.447,270.564v-5.805h1.056v5.805H340.447z"/>
	<path d="M344.526,263.092v1.667h1.511v0.803h-1.511v3.13c0,0.72,0.204,1.127,0.792,1.127c0.276,0,0.479-0.036,0.611-0.072
		l0.048,0.792c-0.204,0.084-0.528,0.144-0.936,0.144c-0.492,0-0.888-0.156-1.14-0.444c-0.3-0.312-0.408-0.828-0.408-1.511v-3.167
		h-0.899v-0.803h0.899v-1.391L344.526,263.092z"/>
</g>
<g>
	<rect x="216.931" y="259.595" fill="none" width="50.945" height="13.81"/>
	<path d="M230.208,266.532c0,0.6,0.012,1.127,0.048,1.583h-0.936l-0.06-0.947h-0.024c-0.276,0.467-0.887,1.079-1.919,1.079
		c-0.911,0-2.003-0.503-2.003-2.542v-3.394h1.056v3.214c0,1.103,0.336,1.847,1.295,1.847c0.708,0,1.199-0.492,1.391-0.959
		c0.06-0.156,0.096-0.348,0.096-0.54v-3.562h1.056V266.532z"/>
	<path d="M231.963,264.206c0-0.744-0.024-1.343-0.048-1.895h0.947l0.048,0.995h0.024c0.432-0.708,1.115-1.127,2.062-1.127
		c1.403,0,2.459,1.187,2.459,2.95c0,2.087-1.271,3.118-2.639,3.118c-0.768,0-1.439-0.336-1.787-0.912h-0.024v3.154h-1.043V264.206z
		 M233.006,265.752c0,0.156,0.024,0.3,0.048,0.432c0.192,0.732,0.828,1.235,1.583,1.235c1.116,0,1.763-0.911,1.763-2.243
		c0-1.163-0.612-2.159-1.727-2.159c-0.72,0-1.391,0.516-1.595,1.307c-0.036,0.132-0.072,0.288-0.072,0.432V265.752z"/>
	<path d="M243.804,259.6v7.016c0,0.516,0.012,1.103,0.048,1.499h-0.947l-0.048-1.007h-0.024c-0.324,0.647-1.032,1.139-1.979,1.139
		c-1.403,0-2.483-1.187-2.483-2.95c-0.012-1.931,1.188-3.118,2.603-3.118c0.888,0,1.487,0.419,1.751,0.887h0.024V259.6H243.804z
		 M242.749,264.673c0-0.132-0.012-0.312-0.048-0.444c-0.156-0.672-0.731-1.224-1.523-1.224c-1.091,0-1.739,0.959-1.739,2.243
		c0,1.175,0.576,2.146,1.715,2.146c0.708,0,1.355-0.468,1.547-1.259c0.036-0.144,0.048-0.288,0.048-0.456V264.673z"/>
	<path d="M248.773,268.115l-0.084-0.731h-0.036c-0.324,0.456-0.947,0.863-1.775,0.863c-1.175,0-1.775-0.828-1.775-1.667
		c0-1.403,1.247-2.171,3.49-2.159v-0.12c0-0.479-0.132-1.343-1.319-1.343c-0.54,0-1.104,0.168-1.511,0.432l-0.24-0.695
		c0.48-0.312,1.175-0.516,1.907-0.516c1.775,0,2.207,1.211,2.207,2.375v2.171c0,0.503,0.024,0.995,0.096,1.391H248.773z
		 M248.617,265.153c-1.151-0.024-2.458,0.18-2.458,1.307c0,0.684,0.456,1.008,0.996,1.008c0.755,0,1.235-0.48,1.403-0.972
		c0.036-0.108,0.06-0.228,0.06-0.336V265.153z"/>
	<path d="M252.566,260.644v1.667h1.511v0.803h-1.511v3.13c0,0.72,0.204,1.127,0.792,1.127c0.276,0,0.479-0.036,0.611-0.072
		l0.048,0.792c-0.204,0.084-0.528,0.144-0.936,0.144c-0.492,0-0.888-0.156-1.14-0.444c-0.3-0.312-0.408-0.828-0.408-1.511v-3.167
		h-0.899v-0.803h0.899v-1.391L252.566,260.644z"/>
	<path d="M255.782,265.405c0.024,1.427,0.935,2.015,1.991,2.015c0.755,0,1.211-0.132,1.607-0.3l0.18,0.756
		c-0.372,0.168-1.007,0.36-1.931,0.36c-1.787,0-2.854-1.175-2.854-2.927c0-1.751,1.032-3.13,2.723-3.13
		c1.895,0,2.399,1.667,2.399,2.734c0,0.216-0.024,0.384-0.036,0.492H255.782z M258.876,264.649c0.012-0.671-0.276-1.715-1.463-1.715
		c-1.067,0-1.535,0.983-1.619,1.715H258.876z"/>
</g>
<g>
	<rect x="16.356" y="213.385" fill="none" width="95.532" height="54.115"/>
	<path d="M42.879,227.917c-0.483,0.252-1.554,0.588-2.918,0.588c-3.065,0-5.06-2.079-5.06-5.187c0-3.128,2.142-5.396,5.459-5.396
		c1.092,0,2.058,0.272,2.562,0.524l-0.42,1.428c-0.441-0.252-1.134-0.482-2.142-0.482c-2.331,0-3.59,1.722-3.59,3.842
		c0,2.352,1.512,3.801,3.527,3.801c1.05,0,1.743-0.273,2.268-0.504L42.879,227.917z"/>
	<path d="M54.114,223.13c0,3.759-2.604,5.396-5.06,5.396c-2.75,0-4.871-2.016-4.871-5.228c0-3.401,2.226-5.396,5.039-5.396
		C52.14,217.902,54.114,220.022,54.114,223.13z M46.051,223.234c0,2.227,1.281,3.906,3.086,3.906c1.764,0,3.086-1.659,3.086-3.947
		c0-1.723-0.861-3.906-3.044-3.906S46.051,221.303,46.051,223.234z"/>
	<path d="M56.446,221.45c0-1.302-0.042-2.352-0.084-3.317h1.659l0.084,1.742h0.042c0.756-1.238,1.953-1.973,3.611-1.973
		c2.457,0,4.304,2.078,4.304,5.164c0,3.654-2.226,5.459-4.619,5.459c-1.344,0-2.52-0.588-3.128-1.596h-0.042v5.522h-1.827V221.45z
		 M58.273,224.158c0,0.273,0.042,0.525,0.084,0.756c0.336,1.281,1.449,2.163,2.771,2.163c1.953,0,3.086-1.596,3.086-3.927
		c0-2.036-1.071-3.779-3.023-3.779c-1.26,0-2.436,0.903-2.792,2.289c-0.063,0.23-0.126,0.504-0.126,0.756V224.158z"/>
	<path d="M70.453,215.277c0.021,0.63-0.441,1.134-1.176,1.134c-0.651,0-1.113-0.504-1.113-1.134c0-0.65,0.483-1.154,1.155-1.154
		C70.012,214.123,70.453,214.627,70.453,215.277z M68.395,228.295v-10.162h1.848v10.162H68.395z"/>
	<path d="M74.338,223.55c0.042,2.499,1.638,3.527,3.485,3.527c1.323,0,2.121-0.231,2.813-0.524l0.315,1.322
		c-0.651,0.294-1.764,0.63-3.38,0.63c-3.128,0-4.997-2.058-4.997-5.123s1.806-5.479,4.766-5.479c3.317,0,4.199,2.918,4.199,4.787
		c0,0.377-0.042,0.672-0.063,0.86H74.338z M79.755,222.227c0.021-1.176-0.483-3.002-2.562-3.002c-1.869,0-2.688,1.722-2.834,3.002
		H79.755z"/>
	<path d="M92.606,213.388v12.282c0,0.903,0.021,1.932,0.084,2.625h-1.659l-0.084-1.764h-0.042c-0.567,1.134-1.806,1.994-3.464,1.994
		c-2.457,0-4.346-2.078-4.346-5.164c-0.021-3.381,2.079-5.459,4.556-5.459c1.554,0,2.604,0.734,3.065,1.553h0.042v-6.067H92.606z
		 M90.759,222.27c0-0.231-0.021-0.547-0.084-0.777c-0.273-1.176-1.281-2.142-2.667-2.142c-1.911,0-3.044,1.68-3.044,3.927
		c0,2.057,1.008,3.758,3.002,3.758c1.239,0,2.373-0.818,2.708-2.205c0.063-0.252,0.084-0.504,0.084-0.797V222.27z"/>
	<path d="M42.492,253.494v-8.756h-1.428v-1.406h1.428v-0.546c0-2.688,1.575-4.431,4.43-4.431c0.945,0,2.058,0.295,2.583,0.672
		l-0.525,1.407c-0.441-0.315-1.239-0.588-2.142-0.588c-1.953,0-2.52,1.364-2.52,2.981v0.504h5.9v10.162h-1.827v-8.756h-4.073v8.756
		H42.492z"/>
	<path d="M53.286,238.587h1.848v14.907h-1.848V238.587z"/>
	<path d="M59.271,248.749c0.042,2.499,1.638,3.527,3.485,3.527c1.323,0,2.121-0.231,2.813-0.524l0.315,1.322
		c-0.651,0.294-1.764,0.63-3.38,0.63c-3.128,0-4.997-2.058-4.997-5.123s1.806-5.479,4.766-5.479c3.317,0,4.199,2.918,4.199,4.787
		c0,0.377-0.042,0.672-0.063,0.86H59.271z M64.688,247.426c0.021-1.176-0.483-3.002-2.562-3.002c-1.869,0-2.688,1.722-2.834,3.002
		H64.688z"/>
	<path d="M72.773,238.923c-1.533,2.058-2.646,4.787-2.646,8.587c0,3.738,1.155,6.426,2.646,8.525h-1.449
		c-1.323-1.743-2.75-4.431-2.75-8.525c0.021-4.136,1.428-6.823,2.75-8.587H72.773z"/>
	<path d="M74.475,251.604c0.546,0.356,1.512,0.735,2.436,0.735c1.344,0,1.974-0.672,1.974-1.512c0-0.883-0.525-1.365-1.89-1.869
		c-1.827-0.65-2.688-1.658-2.688-2.877c0-1.637,1.323-2.98,3.506-2.98c1.029,0,1.932,0.293,2.499,0.629l-0.462,1.344
		c-0.399-0.252-1.134-0.588-2.079-0.588c-1.092,0-1.701,0.631-1.701,1.387c0,0.84,0.609,1.217,1.932,1.721
		c1.764,0.672,2.667,1.555,2.667,3.066c0,1.784-1.386,3.044-3.8,3.044c-1.113,0-2.142-0.272-2.855-0.692L74.475,251.604z"/>
	<path d="M81.93,256.035c1.491-2.079,2.646-4.809,2.646-8.588c0-3.758-1.134-6.445-2.646-8.524h1.428
		c1.344,1.722,2.75,4.409,2.75,8.546c0,4.115-1.407,6.781-2.75,8.566H81.93z"/>
</g>
<g>
	<rect x="238.122" y="314.441" fill="none" width="95.532" height="54.115"/>
	<path d="M264.645,328.975c-0.483,0.252-1.554,0.588-2.918,0.588c-3.065,0-5.06-2.08-5.06-5.188c0-3.127,2.142-5.395,5.459-5.395
		c1.092,0,2.058,0.271,2.562,0.523l-0.42,1.428c-0.441-0.252-1.134-0.482-2.142-0.482c-2.331,0-3.59,1.723-3.59,3.842
		c0,2.352,1.512,3.801,3.527,3.801c1.05,0,1.743-0.273,2.268-0.504L264.645,328.975z"/>
	<path d="M275.879,324.188c0,3.758-2.604,5.395-5.06,5.395c-2.75,0-4.871-2.016-4.871-5.227c0-3.402,2.226-5.396,5.039-5.396
		C273.906,318.959,275.879,321.08,275.879,324.188z M267.817,324.291c0,2.227,1.281,3.906,3.086,3.906
		c1.764,0,3.086-1.658,3.086-3.947c0-1.723-0.861-3.906-3.044-3.906S267.817,322.359,267.817,324.291z"/>
	<path d="M278.212,322.508c0-1.303-0.042-2.352-0.084-3.318h1.659l0.084,1.742h0.042c0.756-1.238,1.953-1.973,3.611-1.973
		c2.457,0,4.304,2.078,4.304,5.164c0,3.654-2.226,5.459-4.619,5.459c-1.344,0-2.52-0.588-3.128-1.596h-0.042v5.523h-1.827V322.508z
		 M280.039,325.215c0,0.273,0.042,0.525,0.084,0.756c0.336,1.281,1.449,2.164,2.771,2.164c1.953,0,3.086-1.596,3.086-3.928
		c0-2.035-1.071-3.779-3.023-3.779c-1.26,0-2.436,0.904-2.792,2.289c-0.063,0.23-0.126,0.504-0.126,0.756V325.215z"/>
	<path d="M292.218,316.334c0.021,0.631-0.441,1.135-1.176,1.135c-0.651,0-1.113-0.504-1.113-1.135c0-0.65,0.483-1.154,1.155-1.154
		C291.777,315.18,292.218,315.684,292.218,316.334z M290.161,329.352v-10.162h1.848v10.162H290.161z"/>
	<path d="M296.104,324.607c0.042,2.498,1.638,3.527,3.485,3.527c1.323,0,2.121-0.232,2.813-0.525l0.315,1.322
		c-0.651,0.295-1.764,0.631-3.38,0.631c-3.128,0-4.997-2.059-4.997-5.123c0-3.066,1.806-5.48,4.766-5.48
		c3.317,0,4.199,2.918,4.199,4.787c0,0.377-0.042,0.672-0.063,0.861H296.104z M301.521,323.283c0.021-1.176-0.483-3.002-2.562-3.002
		c-1.869,0-2.688,1.723-2.834,3.002H301.521z"/>
	<path d="M314.372,314.445v12.281c0,0.904,0.021,1.932,0.084,2.625h-1.659l-0.084-1.764h-0.042
		c-0.567,1.135-1.806,1.994-3.464,1.994c-2.457,0-4.346-2.078-4.346-5.164c-0.021-3.381,2.079-5.459,4.556-5.459
		c1.554,0,2.604,0.734,3.065,1.553h0.042v-6.066H314.372z M312.524,323.326c0-0.23-0.021-0.547-0.084-0.777
		c-0.273-1.176-1.281-2.141-2.667-2.141c-1.911,0-3.044,1.68-3.044,3.926c0,2.057,1.008,3.758,3.002,3.758
		c1.239,0,2.373-0.818,2.708-2.205c0.063-0.252,0.084-0.504,0.084-0.797V323.326z"/>
	<path d="M264.258,354.551v-8.756h-1.428v-1.406h1.428v-0.545c0-2.688,1.575-4.432,4.43-4.432c0.945,0,2.058,0.295,2.583,0.672
		l-0.525,1.408c-0.441-0.316-1.239-0.588-2.142-0.588c-1.953,0-2.52,1.363-2.52,2.98v0.504h5.9v10.162h-1.827v-8.756h-4.073v8.756
		H264.258z"/>
	<path d="M275.052,339.645h1.848v14.906h-1.848V339.645z"/>
	<path d="M281.037,349.807c0.042,2.498,1.638,3.527,3.485,3.527c1.323,0,2.121-0.232,2.813-0.525l0.315,1.322
		c-0.651,0.295-1.764,0.631-3.38,0.631c-3.128,0-4.997-2.059-4.997-5.123c0-3.066,1.806-5.48,4.766-5.48
		c3.317,0,4.199,2.918,4.199,4.787c0,0.377-0.042,0.672-0.063,0.861H281.037z M286.454,348.482c0.021-1.176-0.483-3.002-2.562-3.002
		c-1.869,0-2.688,1.723-2.834,3.002H286.454z"/>
	<path d="M294.539,339.98c-1.533,2.057-2.646,4.787-2.646,8.586c0,3.738,1.155,6.426,2.646,8.525h-1.449
		c-1.323-1.742-2.75-4.43-2.75-8.525c0.021-4.135,1.428-6.822,2.75-8.586H294.539z"/>
	<path d="M296.241,352.662c0.546,0.355,1.512,0.734,2.436,0.734c1.344,0,1.974-0.672,1.974-1.512c0-0.883-0.525-1.365-1.89-1.869
		c-1.827-0.65-2.688-1.658-2.688-2.877c0-1.637,1.323-2.98,3.506-2.98c1.029,0,1.932,0.293,2.499,0.629l-0.462,1.344
		c-0.399-0.252-1.134-0.588-2.079-0.588c-1.092,0-1.701,0.631-1.701,1.387c0,0.84,0.609,1.217,1.932,1.721
		c1.764,0.672,2.667,1.555,2.667,3.066c0,1.785-1.386,3.045-3.8,3.045c-1.113,0-2.142-0.273-2.855-0.693L296.241,352.662z"/>
	<path d="M303.696,357.092c1.491-2.078,2.646-4.809,2.646-8.588c0-3.758-1.134-6.445-2.646-8.523h1.428
		c1.344,1.721,2.75,4.408,2.75,8.545c0,4.115-1.407,6.781-2.75,8.566H303.696z"/>
</g>
<g>
	<rect x="457.123" y="211.898" fill="none" width="95.531" height="54.115"/>
	<path d="M483.645,226.431c-0.483,0.252-1.554,0.588-2.919,0.588c-3.064,0-5.06-2.079-5.06-5.187c0-3.128,2.142-5.396,5.459-5.396
		c1.092,0,2.058,0.272,2.562,0.524l-0.42,1.428c-0.441-0.252-1.134-0.482-2.142-0.482c-2.331,0-3.591,1.722-3.591,3.842
		c0,2.352,1.512,3.801,3.527,3.801c1.051,0,1.743-0.273,2.268-0.504L483.645,226.431z"/>
	<path d="M494.879,221.644c0,3.759-2.604,5.396-5.06,5.396c-2.751,0-4.871-2.016-4.871-5.228c0-3.401,2.225-5.396,5.039-5.396
		C492.906,216.416,494.879,218.536,494.879,221.644z M486.817,221.748c0,2.227,1.28,3.906,3.087,3.906
		c1.764,0,3.086-1.659,3.086-3.947c0-1.723-0.861-3.906-3.045-3.906S486.817,219.816,486.817,221.748z"/>
	<path d="M497.212,219.964c0-1.302-0.043-2.352-0.084-3.317h1.658l0.084,1.742h0.042c0.756-1.238,1.952-1.973,3.611-1.973
		c2.456,0,4.304,2.078,4.304,5.164c0,3.654-2.225,5.459-4.619,5.459c-1.344,0-2.52-0.588-3.128-1.596h-0.042v5.522h-1.826V219.964z
		 M499.039,222.672c0,0.273,0.042,0.525,0.084,0.756c0.336,1.281,1.449,2.163,2.771,2.163c1.953,0,3.086-1.596,3.086-3.927
		c0-2.036-1.07-3.779-3.023-3.779c-1.26,0-2.436,0.903-2.792,2.289c-0.063,0.23-0.126,0.504-0.126,0.756V222.672z"/>
	<path d="M511.218,213.791c0.021,0.63-0.441,1.134-1.176,1.134c-0.65,0-1.113-0.504-1.113-1.134c0-0.65,0.483-1.154,1.155-1.154
		C510.777,212.637,511.218,213.141,511.218,213.791z M509.161,226.809v-10.162h1.848v10.162H509.161z"/>
	<path d="M515.103,222.063c0.043,2.499,1.639,3.527,3.486,3.527c1.322,0,2.12-0.231,2.812-0.524l0.315,1.322
		c-0.651,0.294-1.764,0.63-3.38,0.63c-3.129,0-4.998-2.058-4.998-5.123s1.807-5.479,4.767-5.479c3.317,0,4.199,2.918,4.199,4.787
		c0,0.377-0.042,0.672-0.063,0.86H515.103z M520.521,220.74c0.021-1.176-0.483-3.002-2.562-3.002c-1.868,0-2.688,1.722-2.834,3.002
		H520.521z"/>
	<path d="M533.373,211.901v12.282c0,0.903,0.021,1.932,0.084,2.625h-1.659l-0.084-1.764h-0.042
		c-0.566,1.134-1.806,1.994-3.465,1.994c-2.456,0-4.346-2.078-4.346-5.164c-0.021-3.381,2.078-5.459,4.557-5.459
		c1.553,0,2.604,0.734,3.064,1.553h0.043v-6.067H533.373z M531.525,220.783c0-0.231-0.021-0.547-0.084-0.777
		c-0.273-1.176-1.281-2.142-2.667-2.142c-1.911,0-3.044,1.68-3.044,3.927c0,2.057,1.008,3.758,3.002,3.758
		c1.238,0,2.373-0.818,2.709-2.205c0.062-0.252,0.084-0.504,0.084-0.797V220.783z"/>
	<path d="M483.257,252.008v-8.756h-1.428v-1.406h1.428V241.3c0-2.688,1.575-4.431,4.431-4.431c0.944,0,2.058,0.295,2.583,0.672
		l-0.525,1.407c-0.441-0.315-1.238-0.588-2.142-0.588c-1.952,0-2.52,1.364-2.52,2.981v0.504h5.899v10.162h-1.826v-8.756h-4.073
		v8.756H483.257z"/>
	<path d="M494.052,237.101h1.848v14.907h-1.848V237.101z"/>
	<path d="M500.037,247.263c0.042,2.499,1.638,3.527,3.485,3.527c1.323,0,2.12-0.231,2.813-0.524l0.314,1.322
		c-0.65,0.294-1.764,0.63-3.38,0.63c-3.128,0-4.997-2.058-4.997-5.123s1.806-5.479,4.766-5.479c3.318,0,4.199,2.918,4.199,4.787
		c0,0.377-0.041,0.672-0.062,0.86H500.037z M505.454,245.939c0.021-1.176-0.483-3.002-2.562-3.002c-1.869,0-2.688,1.722-2.834,3.002
		H505.454z"/>
	<path d="M513.539,237.437c-1.532,2.058-2.645,4.787-2.645,8.587c0,3.738,1.154,6.426,2.645,8.525h-1.448
		c-1.323-1.743-2.751-4.431-2.751-8.525c0.021-4.136,1.428-6.823,2.751-8.587H513.539z"/>
	<path d="M515.241,250.118c0.546,0.356,1.512,0.735,2.436,0.735c1.344,0,1.974-0.672,1.974-1.512c0-0.883-0.525-1.365-1.89-1.869
		c-1.827-0.65-2.688-1.658-2.688-2.877c0-1.637,1.323-2.98,3.507-2.98c1.028,0,1.932,0.293,2.498,0.629l-0.462,1.344
		c-0.399-0.252-1.134-0.588-2.079-0.588c-1.092,0-1.7,0.631-1.7,1.387c0,0.84,0.608,1.217,1.932,1.721
		c1.764,0.672,2.667,1.555,2.667,3.066c0,1.784-1.387,3.044-3.801,3.044c-1.113,0-2.142-0.272-2.855-0.692L515.241,250.118z"/>
	<path d="M522.696,254.549c1.491-2.079,2.646-4.809,2.646-8.588c0-3.758-1.134-6.445-2.646-8.524h1.428
		c1.344,1.722,2.751,4.409,2.751,8.546c0,4.115-1.407,6.781-2.751,8.566H522.696z"/>
</g>
<g>
</g>
<g>
</g>
<g>
</g>
<g>
</g>
<g>
</g>
<g>
</g>
<g>
</g>
<g>
</g>
<g>
</g>
<g>
</g>
<g>
</g>
<g>
</g>
<g>
</g>
<g>
</g>
<g>
</g>
<g>
</g>
</svg>
