<?xml version="1.0" encoding="utf-8"?>
<!-- Generator: Adobe Illustrator 16.0.0, SVG Export Plug-In . SVG Version: 6.00 Build 0)  -->
<!DOCTYPE svg PUBLIC "-//W3C//DTD SVG 1.1//EN" "http://www.w3.org/Graphics/SVG/1.1/DTD/svg11.dtd">
<svg version="1.1" id="Layer_1" xmlns="http://www.w3.org/2000/svg" xmlns:xlink="http://www.w3.org/1999/xlink" x="0px" y="0px"
	 width="568.471px" height="543px" viewBox="0 0 568.471 543" enable-background="new 0 0 568.471 543" xml:space="preserve">
<path fill="#F2F2F2" d="M553.388,400.771c0,6.025-5.077,10.229-11.668,10.229H434.322c-6.591,0-11.934-4.203-11.934-10.229V187.068
	c0-6.026,5.343-11.068,11.934-11.068H541.72c6.591,0,11.668,5.042,11.668,11.068V400.771z"/>
<path fill="#F2F2F2" d="M351.388,525.771c0,6.025-5.077,10.229-11.668,10.229H232.321c-6.59,0-11.933-4.203-11.933-10.229V312.068
	c0-6.026,5.343-11.068,11.933-11.068H339.72c6.591,0,11.668,5.042,11.668,11.068V525.771z"/>
<path fill="#F2F2F2" d="M153.388,398.274c0,6.146-5.077,10.726-11.668,10.726H34.321c-6.59,0-11.933-4.579-11.933-10.726V180.29
	c0-6.147,5.343-11.29,11.933-11.29H141.72c6.591,0,11.668,5.143,11.668,11.29V398.274z"/>
<path opacity="0.7" fill="#3FA9F5" stroke="#000000" stroke-miterlimit="10" d="M133.888,394.298c0,4.584-1.83,8.202-4.317,8.202
	h-85.18c-2.487,0-4.503-3.618-4.503-8.202v-45.649c0-4.584,2.016-8.148,4.503-8.148h85.18c2.487,0,4.317,3.564,4.317,8.148V394.298z
	"/>
<g>
	<rect x="64.047" y="28.453" fill="none" width="439.682" height="46.032"/>
	<path d="M83.604,30.075c1.908-0.288,4.175-0.504,6.659-0.504c4.499,0,7.703,1.044,9.827,3.023c2.16,1.98,3.419,4.788,3.419,8.711
		c0,3.959-1.224,7.199-3.492,9.431c-2.268,2.268-6.011,3.491-10.727,3.491c-2.231,0-4.104-0.108-5.687-0.288V30.075z M86.736,51.528
		c0.792,0.144,1.944,0.18,3.167,0.18c6.695,0,10.331-3.744,10.331-10.295c0.036-5.723-3.204-9.358-9.827-9.358
		c-1.62,0-2.843,0.144-3.671,0.324V51.528z"/>
	<path d="M111,31.695c0.036,1.08-0.756,1.944-2.016,1.944c-1.116,0-1.908-0.864-1.908-1.944c0-1.116,0.828-1.979,1.979-1.979
		C110.244,29.715,111,30.579,111,31.695z M107.472,54.012V36.59h3.168v17.422H107.472z"/>
	<path d="M115.464,50.772c0.936,0.612,2.592,1.26,4.175,1.26c2.304,0,3.384-1.152,3.384-2.591c0-1.512-0.9-2.34-3.24-3.204
		c-3.131-1.116-4.607-2.844-4.607-4.932c0-2.808,2.268-5.111,6.011-5.111c1.764,0,3.312,0.504,4.284,1.08l-0.792,2.304
		c-0.684-0.432-1.944-1.008-3.563-1.008c-1.872,0-2.916,1.08-2.916,2.375c0,1.44,1.044,2.088,3.312,2.952
		c3.023,1.152,4.571,2.664,4.571,5.255c0,3.06-2.376,5.219-6.515,5.219c-1.908,0-3.672-0.468-4.896-1.188L115.464,50.772z"/>
	<path d="M133.967,31.587v5.003h4.535v2.412h-4.535v9.395c0,2.16,0.612,3.383,2.375,3.383c0.828,0,1.44-0.108,1.836-0.216
		l0.144,2.376c-0.612,0.252-1.584,0.432-2.808,0.432c-1.476,0-2.664-0.468-3.42-1.332c-0.9-0.936-1.224-2.484-1.224-4.536v-9.503
		h-2.7V36.59h2.7v-4.175L133.967,31.587z"/>
	<path d="M142.067,42.026c0-2.052-0.036-3.816-0.144-5.436h2.771l0.108,3.419h0.144c0.792-2.339,2.7-3.815,4.823-3.815
		c0.36,0,0.612,0.036,0.9,0.108v2.988c-0.324-0.072-0.648-0.108-1.08-0.108c-2.232,0-3.816,1.692-4.248,4.067
		c-0.072,0.432-0.144,0.936-0.144,1.476v9.287h-3.132V42.026z"/>
	<path d="M157.511,31.695c0.036,1.08-0.756,1.944-2.016,1.944c-1.116,0-1.908-0.864-1.908-1.944c0-1.116,0.828-1.979,1.979-1.979
		C156.755,29.715,157.511,30.579,157.511,31.695z M153.983,54.012V36.59h3.168v17.422H153.983z"/>
	<path d="M162.263,54.012c0.072-1.188,0.144-2.952,0.144-4.5V28.456h3.132v10.942h0.072c1.116-1.944,3.132-3.204,5.939-3.204
		c4.319,0,7.379,3.6,7.343,8.891c0,6.227-3.924,9.323-7.811,9.323c-2.52,0-4.536-0.972-5.832-3.276h-0.108l-0.144,2.88H162.263z
		 M165.539,47.029c0,0.396,0.072,0.792,0.144,1.152c0.612,2.195,2.448,3.708,4.751,3.708c3.312,0,5.291-2.7,5.291-6.695
		c0-3.492-1.8-6.479-5.183-6.479c-2.16,0-4.175,1.476-4.823,3.887c-0.072,0.36-0.18,0.792-0.18,1.296V47.029z"/>
	<path d="M197.469,49.261c0,1.8,0.036,3.384,0.144,4.751h-2.808l-0.18-2.844h-0.072c-0.828,1.404-2.664,3.24-5.759,3.24
		c-2.735,0-6.011-1.512-6.011-7.631V36.59h3.168v9.647c0,3.312,1.008,5.543,3.887,5.543c2.124,0,3.6-1.476,4.176-2.879
		c0.18-0.468,0.288-1.044,0.288-1.62V36.59h3.168V49.261z"/>
	<path d="M206.542,31.587v5.003h4.535v2.412h-4.535v9.395c0,2.16,0.612,3.383,2.375,3.383c0.828,0,1.44-0.108,1.836-0.216
		l0.144,2.376c-0.612,0.252-1.584,0.432-2.808,0.432c-1.476,0-2.664-0.468-3.42-1.332c-0.9-0.936-1.224-2.484-1.224-4.536v-9.503
		h-2.7V36.59h2.7v-4.175L206.542,31.587z"/>
	<path d="M216.19,45.877c0.072,4.283,2.808,6.047,5.975,6.047c2.268,0,3.636-0.396,4.823-0.9l0.54,2.268
		c-1.116,0.504-3.023,1.08-5.795,1.08c-5.363,0-8.567-3.527-8.567-8.783s3.096-9.395,8.171-9.395c5.688,0,7.199,5.003,7.199,8.207
		c0,0.648-0.072,1.152-0.108,1.476H216.19z M225.477,43.609c0.036-2.016-0.828-5.147-4.392-5.147c-3.204,0-4.607,2.951-4.859,5.147
		H225.477z"/>
	<path d="M247.508,28.456v21.057c0,1.548,0.036,3.312,0.144,4.5h-2.844l-0.144-3.023h-0.072c-0.972,1.943-3.096,3.419-5.939,3.419
		c-4.211,0-7.451-3.563-7.451-8.855c-0.036-5.795,3.563-9.359,7.811-9.359c2.664,0,4.463,1.26,5.255,2.664h0.072V28.456H247.508z
		 M244.34,43.682c0-0.396-0.036-0.936-0.144-1.332c-0.468-2.016-2.196-3.671-4.571-3.671c-3.276,0-5.22,2.879-5.22,6.731
		c0,3.528,1.728,6.443,5.147,6.443c2.124,0,4.067-1.404,4.644-3.78c0.108-0.432,0.144-0.864,0.144-1.368V43.682z"/>
	<path d="M264.537,54.012l-7.919-24.261h3.383l3.78,11.95c1.044,3.276,1.944,6.228,2.592,9.071h0.072
		c0.684-2.808,1.692-5.867,2.771-9.035l4.104-11.986h3.348l-8.675,24.261H264.537z"/>
	<path d="M279.766,45.877c0.072,4.283,2.808,6.047,5.975,6.047c2.268,0,3.636-0.396,4.823-0.9l0.54,2.268
		c-1.116,0.504-3.023,1.08-5.795,1.08c-5.363,0-8.567-3.527-8.567-8.783s3.096-9.395,8.171-9.395c5.688,0,7.199,5.003,7.199,8.207
		c0,0.648-0.072,1.152-0.108,1.476H279.766z M289.052,43.609c0.036-2.016-0.828-5.147-4.392-5.147c-3.204,0-4.607,2.951-4.859,5.147
		H289.052z"/>
	<path d="M296.037,42.026c0-2.052-0.036-3.816-0.144-5.436h2.771l0.108,3.419h0.144c0.792-2.339,2.7-3.815,4.823-3.815
		c0.36,0,0.612,0.036,0.9,0.108v2.988c-0.324-0.072-0.648-0.108-1.08-0.108c-2.232,0-3.816,1.692-4.248,4.067
		c-0.072,0.432-0.144,0.936-0.144,1.476v9.287h-3.132V42.026z"/>
	<path d="M307.377,50.772c0.936,0.612,2.592,1.26,4.175,1.26c2.304,0,3.384-1.152,3.384-2.591c0-1.512-0.9-2.34-3.24-3.204
		c-3.131-1.116-4.607-2.844-4.607-4.932c0-2.808,2.268-5.111,6.011-5.111c1.764,0,3.312,0.504,4.284,1.08l-0.792,2.304
		c-0.684-0.432-1.944-1.008-3.563-1.008c-1.872,0-2.916,1.08-2.916,2.375c0,1.44,1.044,2.088,3.312,2.952
		c3.023,1.152,4.571,2.664,4.571,5.255c0,3.06-2.376,5.219-6.515,5.219c-1.908,0-3.672-0.468-4.896-1.188L307.377,50.772z"/>
	<path d="M325.593,31.695c0.036,1.08-0.756,1.944-2.016,1.944c-1.116,0-1.908-0.864-1.908-1.944c0-1.116,0.828-1.979,1.979-1.979
		C324.837,29.715,325.593,30.579,325.593,31.695z M322.065,54.012V36.59h3.168v17.422H322.065z"/>
	<path d="M346.255,45.157c0,6.443-4.463,9.251-8.675,9.251c-4.715,0-8.351-3.456-8.351-8.963c0-5.832,3.816-9.251,8.639-9.251
		C342.872,36.194,346.255,39.83,346.255,45.157z M332.433,45.337c0,3.815,2.196,6.695,5.292,6.695c3.023,0,5.292-2.843,5.292-6.767
		c0-2.952-1.476-6.695-5.22-6.695C334.053,38.57,332.433,42.026,332.433,45.337z"/>
	<path d="M350.252,41.306c0-1.8-0.036-3.275-0.144-4.715h2.808l0.18,2.88h0.072c0.864-1.656,2.879-3.276,5.759-3.276
		c2.412,0,6.155,1.44,6.155,7.415v10.403h-3.168V43.969c0-2.808-1.044-5.147-4.031-5.147c-2.088,0-3.708,1.476-4.248,3.239
		c-0.144,0.396-0.216,0.936-0.216,1.476v10.475h-3.168V41.306z"/>
	<path d="M394.926,53.22c-1.152,0.576-3.456,1.152-6.407,1.152c-6.839,0-11.986-4.319-11.986-12.274
		c0-7.595,5.147-12.742,12.67-12.742c3.023,0,4.931,0.648,5.759,1.08l-0.756,2.556c-1.188-0.576-2.88-1.008-4.896-1.008
		c-5.688,0-9.467,3.636-9.467,10.007c0,5.939,3.419,9.755,9.323,9.755c1.908,0,3.852-0.396,5.111-1.008L394.926,53.22z"/>
	<path d="M414.114,45.157c0,6.443-4.463,9.251-8.675,9.251c-4.715,0-8.351-3.456-8.351-8.963c0-5.832,3.816-9.251,8.639-9.251
		C410.731,36.194,414.114,39.83,414.114,45.157z M400.292,45.337c0,3.815,2.196,6.695,5.292,6.695c3.023,0,5.292-2.843,5.292-6.767
		c0-2.952-1.476-6.695-5.22-6.695C401.912,38.57,400.292,42.026,400.292,45.337z"/>
	<path d="M418.112,41.306c0-1.8-0.036-3.275-0.144-4.715h2.808l0.18,2.88h0.072c0.864-1.656,2.879-3.276,5.759-3.276
		c2.412,0,6.156,1.44,6.156,7.415v10.403h-3.168V43.969c0-2.808-1.045-5.147-4.032-5.147c-2.088,0-3.708,1.476-4.248,3.239
		c-0.144,0.396-0.216,0.936-0.216,1.476v10.475h-3.168V41.306z"/>
	<path d="M441.763,31.587v5.003h4.535v2.412h-4.535v9.395c0,2.16,0.611,3.383,2.377,3.383c0.826,0,1.439-0.108,1.834-0.216
		l0.145,2.376c-0.611,0.252-1.584,0.432-2.807,0.432c-1.477,0-2.664-0.468-3.42-1.332c-0.9-0.936-1.225-2.484-1.225-4.536v-9.503
		h-2.699V36.59h2.699v-4.175L441.763,31.587z"/>
	<path d="M449.865,42.026c0-2.052-0.037-3.816-0.145-5.436h2.771l0.107,3.419h0.145c0.791-2.339,2.699-3.815,4.824-3.815
		c0.359,0,0.611,0.036,0.898,0.108v2.988c-0.324-0.072-0.646-0.108-1.08-0.108c-2.23,0-3.814,1.692-4.246,4.067
		c-0.072,0.432-0.145,0.936-0.145,1.476v9.287h-3.131V42.026z"/>
	<path d="M477.041,45.157c0,6.443-4.463,9.251-8.674,9.251c-4.717,0-8.352-3.456-8.352-8.963c0-5.832,3.816-9.251,8.639-9.251
		C473.658,36.194,477.041,39.83,477.041,45.157z M463.218,45.337c0,3.815,2.197,6.695,5.291,6.695c3.025,0,5.293-2.843,5.293-6.767
		c0-2.952-1.477-6.695-5.221-6.695C464.839,38.57,463.218,42.026,463.218,45.337z"/>
	<path d="M481.039,28.456h3.168v25.557h-3.168V28.456z"/>
</g>
<g>
	<rect x="159.301" y="74.484" fill="none" width="250" height="23.016"/>
	<path d="M184.033,84.42c-0.12-2.256-0.264-4.969-0.24-6.985h-0.072c-0.552,1.896-1.224,3.913-2.041,6.145l-2.856,7.849h-1.584
		l-2.616-7.705c-0.768-2.28-1.416-4.368-1.872-6.289h-0.048c-0.048,2.016-0.168,4.729-0.312,7.153l-0.432,6.937h-1.992l1.128-16.177
		h2.665l2.76,7.825c0.672,1.992,1.224,3.768,1.632,5.448h0.072c0.408-1.632,0.984-3.408,1.704-5.448l2.88-7.825h2.664l1.008,16.177
		h-2.041L184.033,84.42z"/>
	<path d="M196.2,91.524l-0.168-1.464h-0.072c-0.648,0.912-1.896,1.729-3.552,1.729c-2.353,0-3.553-1.656-3.553-3.336
		c0-2.808,2.497-4.344,6.985-4.32v-0.24c0-0.96-0.264-2.688-2.64-2.688c-1.08,0-2.208,0.336-3.024,0.864l-0.48-1.392
		c0.96-0.624,2.352-1.032,3.816-1.032c3.552,0,4.417,2.424,4.417,4.752v4.344c0,1.008,0.048,1.992,0.192,2.784H196.2z
		 M195.888,85.596c-2.304-0.048-4.92,0.36-4.92,2.616c0,1.368,0.912,2.017,1.992,2.017c1.512,0,2.472-0.96,2.808-1.944
		c0.072-0.216,0.12-0.456,0.12-0.672V85.596z"/>
	<path d="M203.688,76.643c0.024,0.72-0.504,1.296-1.344,1.296c-0.744,0-1.272-0.576-1.272-1.296c0-0.744,0.552-1.32,1.32-1.32
		C203.183,75.323,203.688,75.899,203.688,76.643z M201.335,91.524V79.907h2.112v11.617H201.335z"/>
	<path d="M206.951,83.052c0-1.2-0.024-2.184-0.096-3.145h1.872l0.12,1.92h0.048c0.576-1.104,1.92-2.184,3.84-2.184
		c1.608,0,4.104,0.96,4.104,4.944v6.937h-2.112v-6.697c0-1.872-0.696-3.432-2.688-3.432c-1.393,0-2.473,0.984-2.833,2.16
		c-0.096,0.264-0.144,0.624-0.144,0.984v6.984h-2.112V83.052z"/>
	<path d="M225.143,88.98c0.936,0.576,2.304,1.056,3.744,1.056c2.136,0,3.384-1.128,3.384-2.76c0-1.512-0.864-2.376-3.048-3.216
		c-2.641-0.936-4.272-2.304-4.272-4.584c0-2.521,2.088-4.393,5.232-4.393c1.656,0,2.856,0.384,3.576,0.792l-0.576,1.704
		c-0.528-0.288-1.608-0.768-3.072-0.768c-2.208,0-3.048,1.32-3.048,2.424c0,1.512,0.984,2.256,3.216,3.12
		c2.736,1.056,4.128,2.376,4.128,4.752c0,2.497-1.848,4.657-5.665,4.657c-1.56,0-3.264-0.456-4.128-1.032L225.143,88.98z"/>
	<path d="M238.51,86.1c0.048,2.856,1.872,4.032,3.984,4.032c1.512,0,2.424-0.264,3.216-0.6l0.36,1.512
		c-0.744,0.336-2.016,0.72-3.864,0.72c-3.576,0-5.712-2.353-5.712-5.857c0-3.504,2.064-6.264,5.448-6.264
		c3.792,0,4.801,3.336,4.801,5.472c0,0.432-0.048,0.768-0.072,0.984H238.51z M244.703,84.588c0.024-1.344-0.552-3.433-2.928-3.433
		c-2.136,0-3.072,1.968-3.24,3.433H244.703z"/>
	<path d="M249.358,83.532c0-1.368-0.024-2.544-0.096-3.625h1.848l0.072,2.28h0.096c0.528-1.56,1.8-2.544,3.216-2.544
		c0.24,0,0.408,0.024,0.6,0.072v1.992c-0.216-0.048-0.432-0.072-0.72-0.072c-1.488,0-2.544,1.128-2.832,2.712
		c-0.048,0.288-0.096,0.624-0.096,0.984v6.192h-2.088V83.532z"/>
	<path d="M258.622,79.907l2.28,6.529c0.384,1.056,0.696,2.016,0.936,2.976h0.072c0.264-0.96,0.6-1.92,0.984-2.976l2.256-6.529h2.208
		l-4.561,11.617h-2.016l-4.417-11.617H258.622z"/>
	<path d="M270.286,86.1c0.048,2.856,1.872,4.032,3.984,4.032c1.512,0,2.424-0.264,3.216-0.6l0.36,1.512
		c-0.744,0.336-2.016,0.72-3.864,0.72c-3.576,0-5.712-2.353-5.712-5.857c0-3.504,2.064-6.264,5.448-6.264
		c3.792,0,4.801,3.336,4.801,5.472c0,0.432-0.048,0.768-0.072,0.984H270.286z M276.479,84.588c0.024-1.344-0.552-3.433-2.928-3.433
		c-2.136,0-3.072,1.968-3.24,3.433H276.479z"/>
	<path d="M281.134,83.532c0-1.368-0.024-2.544-0.096-3.625h1.848l0.072,2.28h0.096c0.528-1.56,1.8-2.544,3.216-2.544
		c0.24,0,0.408,0.024,0.6,0.072v1.992c-0.216-0.048-0.432-0.072-0.72-0.072c-1.488,0-2.544,1.128-2.832,2.712
		c-0.048,0.288-0.096,0.624-0.096,0.984v6.192h-2.088V83.532z"/>
	<path d="M294.142,75.563c1.056-0.216,2.568-0.336,4.008-0.336c2.232,0,3.672,0.408,4.68,1.32c0.816,0.72,1.272,1.824,1.272,3.072
		c0,2.136-1.344,3.553-3.048,4.128v0.072c1.248,0.432,1.992,1.584,2.376,3.264c0.528,2.256,0.912,3.816,1.248,4.44h-2.16
		c-0.264-0.456-0.624-1.848-1.08-3.864c-0.48-2.232-1.344-3.072-3.24-3.145h-1.968v7.009h-2.088V75.563z M296.23,82.932h2.136
		c2.232,0,3.648-1.224,3.648-3.072c0-2.088-1.512-3-3.72-3.024c-1.008,0-1.728,0.096-2.064,0.192V82.932z"/>
	<path d="M308.254,86.1c0.048,2.856,1.872,4.032,3.984,4.032c1.512,0,2.424-0.264,3.216-0.6l0.36,1.512
		c-0.744,0.336-2.016,0.72-3.864,0.72c-3.576,0-5.712-2.353-5.712-5.857c0-3.504,2.064-6.264,5.448-6.264
		c3.792,0,4.801,3.336,4.801,5.472c0,0.432-0.048,0.768-0.072,0.984H308.254z M314.446,84.588c0.024-1.344-0.552-3.433-2.928-3.433
		c-2.136,0-3.072,1.968-3.24,3.433H314.446z"/>
	<path d="M319.102,83.7c0-1.488-0.048-2.688-0.096-3.792h1.896l0.096,1.992h0.048c0.864-1.416,2.232-2.256,4.128-2.256
		c2.808,0,4.92,2.376,4.92,5.904c0,4.176-2.544,6.241-5.28,6.241c-1.536,0-2.88-0.672-3.577-1.824h-0.048v6.312h-2.088V83.7z
		 M321.19,86.796c0,0.312,0.048,0.6,0.096,0.864c0.384,1.464,1.656,2.472,3.168,2.472c2.232,0,3.528-1.824,3.528-4.488
		c0-2.328-1.224-4.32-3.456-4.32c-1.44,0-2.784,1.032-3.192,2.616c-0.072,0.264-0.144,0.576-0.144,0.864V86.796z"/>
	<path d="M343.271,85.62c0,4.296-2.977,6.168-5.785,6.168c-3.144,0-5.568-2.304-5.568-5.977c0-3.888,2.544-6.168,5.76-6.168
		C341.014,79.644,343.271,82.067,343.271,85.62z M334.054,85.74c0,2.544,1.464,4.464,3.528,4.464c2.016,0,3.528-1.896,3.528-4.512
		c0-1.968-0.984-4.464-3.48-4.464S334.054,83.532,334.054,85.74z"/>
	<path d="M345.646,89.364c0.624,0.408,1.728,0.84,2.784,0.84c1.536,0,2.256-0.768,2.256-1.728c0-1.008-0.6-1.56-2.16-2.136
		c-2.088-0.744-3.072-1.896-3.072-3.288c0-1.872,1.512-3.408,4.008-3.408c1.176,0,2.208,0.336,2.856,0.72l-0.528,1.536
		c-0.456-0.288-1.296-0.672-2.376-0.672c-1.248,0-1.944,0.72-1.944,1.584c0,0.96,0.696,1.392,2.208,1.968
		c2.016,0.768,3.048,1.776,3.048,3.504c0,2.04-1.584,3.48-4.345,3.48c-1.272,0-2.448-0.312-3.264-0.792L345.646,89.364z"/>
	<path d="M357.79,76.643c0.024,0.72-0.504,1.296-1.344,1.296c-0.744,0-1.272-0.576-1.272-1.296c0-0.744,0.552-1.32,1.32-1.32
		C357.285,75.323,357.79,75.899,357.79,76.643z M355.437,91.524V79.907h2.112v11.617H355.437z"/>
	<path d="M363.597,76.571v3.336h3.024v1.608h-3.024v6.265c0,1.44,0.408,2.256,1.584,2.256c0.552,0,0.96-0.072,1.224-0.144
		l0.096,1.584c-0.408,0.168-1.056,0.288-1.872,0.288c-0.984,0-1.776-0.312-2.28-0.888c-0.6-0.624-0.816-1.656-0.816-3.024v-6.336
		h-1.8v-1.608h1.8v-2.784L363.597,76.571z"/>
	<path d="M379.366,85.62c0,4.296-2.977,6.168-5.785,6.168c-3.144,0-5.568-2.304-5.568-5.977c0-3.888,2.544-6.168,5.76-6.168
		C377.109,79.644,379.366,82.067,379.366,85.62z M370.149,85.74c0,2.544,1.464,4.464,3.528,4.464c2.016,0,3.528-1.896,3.528-4.512
		c0-1.968-0.984-4.464-3.48-4.464S370.149,83.532,370.149,85.74z"/>
	<path d="M382.028,83.532c0-1.368-0.024-2.544-0.096-3.625h1.848l0.072,2.28h0.096c0.528-1.56,1.8-2.544,3.216-2.544
		c0.24,0,0.408,0.024,0.6,0.072v1.992c-0.216-0.048-0.432-0.072-0.72-0.072c-1.488,0-2.544,1.128-2.832,2.712
		c-0.048,0.288-0.096,0.624-0.096,0.984v6.192h-2.088V83.532z"/>
	<path d="M391.244,79.907l2.544,6.865c0.264,0.768,0.552,1.68,0.744,2.376h0.048c0.216-0.696,0.456-1.584,0.744-2.424l2.304-6.817
		h2.232l-3.168,8.281c-1.512,3.984-2.544,6.025-3.984,7.273c-1.032,0.912-2.064,1.272-2.592,1.368l-0.528-1.776
		c0.528-0.168,1.224-0.504,1.848-1.032c0.576-0.456,1.296-1.272,1.776-2.352c0.096-0.216,0.168-0.384,0.168-0.504
		c0-0.12-0.048-0.288-0.144-0.552l-4.296-10.705H391.244z"/>
</g>
<g>
	<rect x="40.122" y="176.65" fill="none" width="95.532" height="34.786"/>
	<path d="M55.971,184.907c-0.384,0.192-1.151,0.384-2.135,0.384c-2.279,0-3.994-1.439-3.994-4.09c0-2.531,1.715-4.246,4.222-4.246
		c1.007,0,1.643,0.216,1.919,0.36l-0.252,0.851c-0.396-0.191-0.959-0.335-1.631-0.335c-1.895,0-3.154,1.211-3.154,3.334
		c0,1.979,1.139,3.25,3.106,3.25c0.635,0,1.283-0.132,1.703-0.336L55.971,184.907z"/>
	<path d="M62.367,182.22c0,2.146-1.487,3.082-2.89,3.082c-1.571,0-2.783-1.151-2.783-2.986c0-1.943,1.271-3.082,2.878-3.082
		C61.24,179.234,62.367,180.445,62.367,182.22z M57.762,182.28c0,1.271,0.732,2.231,1.763,2.231c1.007,0,1.763-0.947,1.763-2.255
		c0-0.983-0.492-2.23-1.739-2.23C58.302,180.025,57.762,181.177,57.762,182.28z"/>
	<path d="M63.702,176.655h1.056v8.515h-1.056V176.655z"/>
	<path d="M66.534,176.655h1.056v8.515h-1.056V176.655z"/>
	<path d="M72.581,185.17l-0.084-0.731H72.46c-0.324,0.456-0.947,0.863-1.775,0.863c-1.175,0-1.775-0.828-1.775-1.667
		c0-1.403,1.247-2.171,3.49-2.159v-0.12c0-0.479-0.132-1.343-1.319-1.343c-0.54,0-1.103,0.168-1.511,0.432l-0.24-0.695
		c0.48-0.312,1.176-0.516,1.907-0.516c1.775,0,2.207,1.211,2.207,2.375v2.171c0,0.503,0.024,0.995,0.096,1.391H72.581z
		 M72.425,182.208c-1.151-0.024-2.459,0.18-2.459,1.307c0,0.684,0.456,1.008,0.996,1.008c0.755,0,1.235-0.48,1.403-0.972
		c0.036-0.108,0.06-0.228,0.06-0.336V182.208z"/>
	<path d="M75.102,185.17c0.024-0.396,0.048-0.983,0.048-1.499v-7.016h1.043v3.646h0.024c0.372-0.648,1.043-1.067,1.979-1.067
		c1.439,0,2.458,1.199,2.447,2.962c0,2.075-1.308,3.106-2.603,3.106c-0.84,0-1.511-0.324-1.943-1.091h-0.036l-0.048,0.959H75.102z
		 M76.193,182.844c0,0.132,0.024,0.264,0.048,0.384c0.204,0.731,0.815,1.235,1.583,1.235c1.104,0,1.763-0.899,1.763-2.231
		c0-1.163-0.6-2.159-1.727-2.159c-0.72,0-1.391,0.492-1.607,1.295c-0.024,0.12-0.06,0.264-0.06,0.432V182.844z"/>
	<path d="M87.23,182.22c0,2.146-1.487,3.082-2.89,3.082c-1.571,0-2.783-1.151-2.783-2.986c0-1.943,1.271-3.082,2.878-3.082
		C86.104,179.234,87.23,180.445,87.23,182.22z M82.625,182.28c0,1.271,0.732,2.231,1.763,2.231c1.007,0,1.763-0.947,1.763-2.255
		c0-0.983-0.492-2.23-1.739-2.23C83.165,180.025,82.625,181.177,82.625,182.28z"/>
	<path d="M88.565,181.177c0-0.684-0.012-1.271-0.048-1.811h0.923l0.036,1.139h0.048c0.264-0.779,0.899-1.271,1.607-1.271
		c0.12,0,0.204,0.012,0.3,0.036v0.996c-0.108-0.024-0.216-0.036-0.359-0.036c-0.744,0-1.271,0.564-1.416,1.355
		c-0.024,0.144-0.048,0.312-0.048,0.492v3.094h-1.043V181.177z"/>
	<path d="M95.644,185.17l-0.084-0.731h-0.036c-0.324,0.456-0.947,0.863-1.775,0.863c-1.175,0-1.775-0.828-1.775-1.667
		c0-1.403,1.247-2.171,3.49-2.159v-0.12c0-0.479-0.132-1.343-1.319-1.343c-0.54,0-1.104,0.168-1.511,0.432l-0.24-0.695
		c0.48-0.312,1.175-0.516,1.907-0.516c1.775,0,2.207,1.211,2.207,2.375v2.171c0,0.503,0.024,0.995,0.096,1.391H95.644z
		 M95.487,182.208c-1.151-0.024-2.458,0.18-2.458,1.307c0,0.684,0.456,1.008,0.996,1.008c0.755,0,1.235-0.48,1.403-0.972
		c0.036-0.108,0.06-0.228,0.06-0.336V182.208z"/>
	<path d="M99.437,177.699v1.667h1.511v0.803h-1.511v3.13c0,0.72,0.204,1.127,0.792,1.127c0.276,0,0.479-0.036,0.612-0.072
		l0.048,0.792c-0.204,0.084-0.528,0.144-0.936,0.144c-0.492,0-0.888-0.156-1.14-0.444c-0.3-0.312-0.408-0.828-0.408-1.511v-3.167
		h-0.899v-0.803h0.899v-1.391L99.437,177.699z"/>
	<path d="M107.318,182.22c0,2.146-1.487,3.082-2.89,3.082c-1.571,0-2.783-1.151-2.783-2.986c0-1.943,1.271-3.082,2.878-3.082
		C106.191,179.234,107.318,180.445,107.318,182.22z M102.712,182.28c0,1.271,0.732,2.231,1.763,2.231
		c1.007,0,1.763-0.947,1.763-2.255c0-0.983-0.492-2.23-1.739-2.23C103.252,180.025,102.712,181.177,102.712,182.28z"/>
	<path d="M108.653,181.177c0-0.684-0.012-1.271-0.048-1.811h0.923l0.036,1.139h0.048c0.264-0.779,0.899-1.271,1.607-1.271
		c0.12,0,0.204,0.012,0.3,0.036v0.996c-0.108-0.024-0.216-0.036-0.36-0.036c-0.744,0-1.271,0.564-1.416,1.355
		c-0.024,0.144-0.048,0.312-0.048,0.492v3.094h-1.043V181.177z"/>
	<path d="M115.36,185.17l0.312-2.351h-0.983v-0.708h1.091l0.228-1.739h-1.032v-0.708h1.14l0.312-2.291h0.696l-0.3,2.291h1.247
		l0.312-2.291h0.708l-0.3,2.291h0.983v0.708h-1.091l-0.216,1.739h1.031v0.708h-1.139l-0.312,2.351h-0.719l0.312-2.351h-1.247
		l-0.312,2.351H115.36z M117.747,182.112l0.228-1.739h-1.248l-0.228,1.739H117.747z"/>
	<path d="M123.04,178.358h-0.024l-1.355,0.731l-0.204-0.804l1.703-0.912h0.9v7.796h-1.02V178.358z"/>
	<path d="M47.562,191.487h1.043v7.208h3.454v0.875h-4.498V191.487z"/>
	<path d="M58.275,196.62c0,2.146-1.487,3.082-2.89,3.082c-1.571,0-2.783-1.151-2.783-2.986c0-1.943,1.271-3.082,2.878-3.082
		C57.148,193.634,58.275,194.845,58.275,196.62z M53.669,196.68c0,1.271,0.732,2.231,1.763,2.231c1.007,0,1.763-0.947,1.763-2.255
		c0-0.983-0.492-2.23-1.739-2.23C54.209,194.425,53.669,195.577,53.669,196.68z"/>
	<path d="M63.748,199.354c-0.276,0.144-0.887,0.336-1.667,0.336c-1.751,0-2.891-1.188-2.891-2.962c0-1.787,1.224-3.083,3.119-3.083
		c0.624,0,1.175,0.156,1.463,0.3l-0.24,0.815c-0.252-0.144-0.647-0.275-1.223-0.275c-1.332,0-2.051,0.983-2.051,2.194
		c0,1.343,0.864,2.171,2.015,2.171c0.6,0,0.996-0.156,1.295-0.288L63.748,199.354z"/>
	<path d="M68.2,199.57l-0.084-0.731H68.08c-0.324,0.456-0.947,0.863-1.775,0.863c-1.175,0-1.775-0.828-1.775-1.667
		c0-1.403,1.247-2.171,3.49-2.159v-0.12c0-0.479-0.132-1.343-1.319-1.343c-0.54,0-1.104,0.168-1.511,0.432l-0.24-0.695
		c0.48-0.312,1.175-0.516,1.907-0.516c1.775,0,2.207,1.211,2.207,2.375v2.171c0,0.503,0.024,0.995,0.096,1.391H68.2z
		 M68.044,196.608c-1.151-0.024-2.458,0.18-2.458,1.307c0,0.684,0.456,1.008,0.996,1.008c0.755,0,1.235-0.48,1.403-0.972
		c0.036-0.108,0.06-0.228,0.06-0.336V196.608z"/>
	<path d="M70.77,191.055h1.056v8.515H70.77V191.055z"/>
	<path d="M76.182,191.595c0.528-0.108,1.283-0.168,2.003-0.168c1.115,0,1.835,0.204,2.338,0.66c0.408,0.36,0.636,0.912,0.636,1.535
		c0,1.067-0.671,1.775-1.523,2.063v0.036c0.624,0.216,0.995,0.792,1.187,1.631c0.264,1.127,0.456,1.907,0.624,2.219h-1.08
		c-0.132-0.228-0.312-0.923-0.54-1.931c-0.24-1.115-0.672-1.535-1.619-1.571h-0.983v3.502h-1.043V191.595z M77.226,195.277h1.067
		c1.115,0,1.823-0.612,1.823-1.535c0-1.043-0.755-1.5-1.859-1.511c-0.504,0-0.863,0.048-1.031,0.096V195.277z"/>
	<path d="M83.238,196.86c0.024,1.427,0.935,2.015,1.991,2.015c0.755,0,1.211-0.132,1.607-0.3l0.18,0.756
		c-0.372,0.168-1.007,0.36-1.931,0.36c-1.787,0-2.854-1.176-2.854-2.927s1.032-3.13,2.723-3.13c1.895,0,2.399,1.667,2.399,2.734
		c0,0.216-0.024,0.384-0.036,0.492H83.238z M86.332,196.104c0.012-0.671-0.276-1.715-1.463-1.715c-1.067,0-1.535,0.983-1.619,1.715
		H86.332z"/>
	<path d="M88.662,195.661c0-0.744-0.024-1.343-0.048-1.895h0.947l0.048,0.995h0.024c0.432-0.708,1.115-1.127,2.062-1.127
		c1.403,0,2.459,1.187,2.459,2.95c0,2.087-1.271,3.118-2.639,3.118c-0.768,0-1.439-0.336-1.787-0.912h-0.024v3.154h-1.043V195.661z
		 M89.705,197.208c0,0.156,0.024,0.3,0.048,0.432c0.192,0.732,0.828,1.235,1.583,1.235c1.116,0,1.763-0.911,1.763-2.243
		c0-1.163-0.612-2.159-1.727-2.159c-0.72,0-1.391,0.516-1.595,1.307c-0.036,0.132-0.072,0.288-0.072,0.432V197.208z"/>
	<path d="M100.742,196.62c0,2.146-1.487,3.082-2.89,3.082c-1.571,0-2.783-1.151-2.783-2.986c0-1.943,1.271-3.082,2.878-3.082
		C99.615,193.634,100.742,194.845,100.742,196.62z M96.137,196.68c0,1.271,0.732,2.231,1.763,2.231c1.007,0,1.763-0.947,1.763-2.255
		c0-0.983-0.492-2.23-1.739-2.23C96.677,194.425,96.137,195.577,96.137,196.68z"/>
	<path d="M101.933,198.491c0.312,0.204,0.864,0.42,1.392,0.42c0.768,0,1.127-0.384,1.127-0.863c0-0.504-0.3-0.78-1.079-1.068
		c-1.043-0.372-1.535-0.947-1.535-1.643c0-0.935,0.755-1.703,2.003-1.703c0.587,0,1.103,0.167,1.427,0.359l-0.264,0.768
		c-0.228-0.144-0.647-0.335-1.187-0.335c-0.624,0-0.972,0.36-0.972,0.792c0,0.479,0.348,0.695,1.104,0.983
		c1.007,0.384,1.523,0.888,1.523,1.751c0,1.02-0.792,1.739-2.171,1.739c-0.635,0-1.223-0.156-1.631-0.396L101.933,198.491z"/>
	<path d="M108.004,192.134c0.012,0.36-0.252,0.648-0.671,0.648c-0.372,0-0.636-0.288-0.636-0.648c0-0.372,0.276-0.66,0.66-0.66
		C107.752,191.475,108.004,191.763,108.004,192.134z M106.829,199.57v-5.805h1.056v5.805H106.829z"/>
	<path d="M110.909,192.099v1.667h1.511v0.803h-1.511v3.13c0,0.72,0.204,1.127,0.792,1.127c0.276,0,0.479-0.036,0.611-0.072
		l0.048,0.792c-0.204,0.084-0.528,0.144-0.936,0.144c-0.492,0-0.888-0.156-1.14-0.444c-0.3-0.312-0.408-0.828-0.408-1.511v-3.167
		h-0.899v-0.803h0.899v-1.392L110.909,192.099z"/>
	<path d="M118.79,196.62c0,2.146-1.487,3.082-2.89,3.082c-1.571,0-2.783-1.151-2.783-2.986c0-1.943,1.271-3.082,2.878-3.082
		C117.663,193.634,118.79,194.845,118.79,196.62z M114.185,196.68c0,1.271,0.732,2.231,1.763,2.231c1.007,0,1.763-0.947,1.763-2.255
		c0-0.983-0.492-2.23-1.739-2.23C114.725,194.425,114.185,195.577,114.185,196.68z"/>
	<path d="M120.125,195.577c0-0.684-0.012-1.271-0.048-1.811H121l0.036,1.139h0.048c0.264-0.779,0.899-1.271,1.607-1.271
		c0.12,0,0.204,0.012,0.3,0.036v0.996c-0.108-0.024-0.216-0.036-0.359-0.036c-0.744,0-1.271,0.564-1.416,1.355
		c-0.024,0.144-0.048,0.312-0.048,0.492v3.094h-1.043V195.577z"/>
	<path d="M124.732,193.766l1.271,3.43c0.132,0.384,0.276,0.839,0.372,1.187h0.024c0.108-0.348,0.228-0.792,0.372-1.211l1.151-3.406
		h1.115l-1.583,4.138c-0.756,1.991-1.271,3.01-1.991,3.634c-0.516,0.456-1.031,0.636-1.295,0.684l-0.264-0.887
		c0.264-0.084,0.612-0.252,0.924-0.516c0.288-0.228,0.647-0.635,0.887-1.175c0.048-0.108,0.084-0.192,0.084-0.251
		c0-0.06-0.024-0.144-0.072-0.276l-2.147-5.349H124.732z"/>
</g>
<g>
	<rect x="160.693" y="231.043" fill="none" width="59.238" height="10.913"/>
	<path d="M178.762,235.654c0-0.744-0.024-1.343-0.048-1.895h0.947l0.048,0.995h0.024c0.432-0.708,1.115-1.127,2.062-1.127
		c1.403,0,2.459,1.187,2.459,2.95c0,2.087-1.271,3.118-2.639,3.118c-0.768,0-1.439-0.336-1.787-0.912h-0.024v3.154h-1.043V235.654z
		 M179.805,237.201c0,0.156,0.024,0.3,0.048,0.432c0.192,0.732,0.828,1.235,1.583,1.235c1.116,0,1.763-0.911,1.763-2.243
		c0-1.163-0.612-2.159-1.727-2.159c-0.72,0-1.391,0.516-1.595,1.307c-0.036,0.132-0.072,0.288-0.072,0.432V237.201z"/>
	<path d="M190.447,237.98c0,0.6,0.012,1.127,0.048,1.583h-0.936l-0.06-0.947h-0.024c-0.276,0.467-0.887,1.079-1.919,1.079
		c-0.911,0-2.003-0.503-2.003-2.542v-3.394h1.056v3.214c0,1.103,0.336,1.847,1.295,1.847c0.708,0,1.199-0.492,1.391-0.959
		c0.06-0.156,0.096-0.348,0.096-0.54v-3.562h1.056V237.98z"/>
	<path d="M192.057,238.484c0.312,0.204,0.864,0.42,1.392,0.42c0.768,0,1.127-0.384,1.127-0.863c0-0.504-0.3-0.78-1.079-1.067
		c-1.043-0.372-1.535-0.948-1.535-1.644c0-0.935,0.755-1.703,2.003-1.703c0.587,0,1.104,0.167,1.427,0.359l-0.264,0.768
		c-0.228-0.144-0.647-0.335-1.187-0.335c-0.624,0-0.972,0.36-0.972,0.792c0,0.479,0.348,0.695,1.104,0.983
		c1.007,0.384,1.523,0.888,1.523,1.751c0,1.02-0.792,1.739-2.171,1.739c-0.635,0-1.223-0.156-1.631-0.396L192.057,238.484z"/>
	<path d="M196.953,231.048h1.056v3.622h0.024c0.168-0.3,0.432-0.564,0.755-0.744c0.312-0.18,0.684-0.3,1.08-0.3
		c0.779,0,2.027,0.479,2.027,2.482v3.454h-1.056v-3.334c0-0.936-0.348-1.727-1.343-1.727c-0.684,0-1.223,0.479-1.415,1.055
		c-0.06,0.144-0.072,0.3-0.072,0.504v3.502h-1.056V231.048z"/>
</g>
<g>
	<rect x="135.221" y="191.094" fill="none" width="50.945" height="13.81"/>
	<path d="M152.017,195.704c0-0.744-0.024-1.343-0.048-1.895h0.947l0.048,0.995h0.024c0.432-0.708,1.115-1.127,2.062-1.127
		c1.403,0,2.459,1.187,2.459,2.95c0,2.087-1.271,3.118-2.639,3.118c-0.768,0-1.439-0.336-1.787-0.912h-0.024v3.154h-1.043V195.704z
		 M153.06,197.251c0,0.156,0.024,0.3,0.048,0.432c0.192,0.732,0.828,1.235,1.583,1.235c1.115,0,1.763-0.911,1.763-2.243
		c0-1.163-0.611-2.159-1.727-2.159c-0.72,0-1.391,0.516-1.595,1.307c-0.036,0.132-0.072,0.288-0.072,0.432V197.251z"/>
	<path d="M163.702,198.031c0,0.6,0.012,1.127,0.048,1.583h-0.936l-0.06-0.947h-0.024c-0.276,0.467-0.887,1.079-1.919,1.079
		c-0.911,0-2.003-0.503-2.003-2.542v-3.394h1.056v3.214c0,1.103,0.336,1.847,1.295,1.847c0.708,0,1.199-0.492,1.391-0.959
		c0.06-0.156,0.096-0.348,0.096-0.54v-3.562h1.056V198.031z"/>
	<path d="M165.456,191.099h1.056v8.515h-1.056V191.099z"/>
	<path d="M168.288,191.099h1.056v8.515h-1.056V191.099z"/>
</g>
<g>
	
		<ellipse fill="#BDCCD4" stroke="#000000" stroke-width="2" stroke-miterlimit="10" cx="284.301" cy="204.749" rx="50.197" ry="20.25"/>
	<rect x="233.388" y="125" fill="#BDCCD4" width="101" height="80"/>
	
		<ellipse fill="#BDCCD4" stroke="#000000" stroke-width="2" stroke-miterlimit="10" cx="284.301" cy="124.749" rx="50.197" ry="20.25"/>
	<line fill="#BDCCD4" stroke="#000000" stroke-width="2" stroke-miterlimit="10" x1="233.388" y1="125" x2="233.388" y2="205"/>
	<line fill="#BDCCD4" stroke="#000000" stroke-width="2" stroke-miterlimit="10" x1="334.388" y1="125" x2="334.388" y2="209"/>
	<path fill="#BDCCD4" stroke="#000000" stroke-width="2" stroke-miterlimit="10" d="M234.492,155.724
		c21.577,21.577,76.735,21.903,98.879-0.241"/>
	<path fill="#BDCCD4" stroke="#000000" stroke-width="2" stroke-miterlimit="10" d="M234.492,181.724
		c21.577,21.577,76.735,21.903,98.879-0.241"/>
</g>
<path opacity="0.7" fill="#7AC943" stroke="#000000" stroke-miterlimit="10" d="M332.888,482.298c0,4.584-1.83,8.202-4.317,8.202
	h-85.18c-2.487,0-4.503-3.618-4.503-8.202v-45.649c0-4.584,2.016-8.148,4.503-8.148h85.18c2.487,0,4.317,3.564,4.317,8.148V482.298z
	"/>
<g>
	<rect x="237.356" y="501.5" fill="none" width="95.532" height="34.786"/>
	<path d="M253.206,509.756c-0.384,0.192-1.151,0.385-2.135,0.385c-2.279,0-3.994-1.439-3.994-4.09c0-2.531,1.715-4.246,4.222-4.246
		c1.007,0,1.643,0.216,1.919,0.359l-0.252,0.852c-0.396-0.191-0.959-0.336-1.631-0.336c-1.895,0-3.154,1.212-3.154,3.334
		c0,1.979,1.139,3.251,3.106,3.251c0.635,0,1.283-0.132,1.703-0.336L253.206,509.756z"/>
	<path d="M259.602,507.07c0,2.146-1.487,3.082-2.89,3.082c-1.571,0-2.783-1.152-2.783-2.986c0-1.943,1.271-3.082,2.878-3.082
		C258.475,504.084,259.602,505.295,259.602,507.07z M254.996,507.129c0,1.271,0.732,2.231,1.763,2.231
		c1.007,0,1.763-0.947,1.763-2.255c0-0.983-0.492-2.23-1.739-2.23C255.536,504.875,254.996,506.026,254.996,507.129z"/>
	<path d="M260.937,501.505h1.056v8.515h-1.056V501.505z"/>
	<path d="M263.769,501.505h1.056v8.515h-1.056V501.505z"/>
	<path d="M269.815,510.02l-0.084-0.73h-0.036c-0.324,0.455-0.947,0.863-1.775,0.863c-1.175,0-1.775-0.828-1.775-1.668
		c0-1.402,1.247-2.17,3.49-2.158v-0.12c0-0.479-0.132-1.343-1.319-1.343c-0.54,0-1.103,0.168-1.511,0.432l-0.24-0.695
		c0.48-0.312,1.176-0.516,1.907-0.516c1.775,0,2.207,1.211,2.207,2.374v2.171c0,0.504,0.024,0.995,0.096,1.391H269.815z
		 M269.659,507.058c-1.151-0.024-2.459,0.18-2.459,1.308c0,0.684,0.456,1.008,0.996,1.008c0.755,0,1.235-0.48,1.403-0.973
		c0.036-0.107,0.06-0.228,0.06-0.336V507.058z"/>
	<path d="M272.336,510.02c0.024-0.396,0.048-0.982,0.048-1.498v-7.017h1.043v3.646h0.024c0.372-0.647,1.043-1.066,1.979-1.066
		c1.439,0,2.458,1.199,2.447,2.962c0,2.075-1.308,3.106-2.603,3.106c-0.84,0-1.511-0.324-1.943-1.092h-0.036l-0.048,0.959H272.336z
		 M273.428,507.693c0,0.132,0.024,0.264,0.048,0.384c0.204,0.731,0.815,1.235,1.583,1.235c1.104,0,1.763-0.899,1.763-2.23
		c0-1.164-0.6-2.159-1.727-2.159c-0.72,0-1.391,0.491-1.607,1.296c-0.024,0.119-0.06,0.264-0.06,0.432V507.693z"/>
	<path d="M284.465,507.07c0,2.146-1.487,3.082-2.89,3.082c-1.571,0-2.783-1.152-2.783-2.986c0-1.943,1.271-3.082,2.878-3.082
		C283.338,504.084,284.465,505.295,284.465,507.07z M279.859,507.129c0,1.271,0.732,2.231,1.763,2.231
		c1.007,0,1.763-0.947,1.763-2.255c0-0.983-0.492-2.23-1.739-2.23C280.399,504.875,279.859,506.026,279.859,507.129z"/>
	<path d="M285.8,506.026c0-0.684-0.012-1.271-0.048-1.812h0.923l0.036,1.14h0.048c0.264-0.779,0.899-1.271,1.607-1.271
		c0.12,0,0.204,0.012,0.3,0.035v0.996c-0.108-0.024-0.216-0.037-0.359-0.037c-0.744,0-1.271,0.564-1.416,1.355
		c-0.024,0.145-0.048,0.312-0.048,0.492v3.094H285.8V506.026z"/>
	<path d="M292.878,510.02l-0.084-0.73h-0.036c-0.324,0.455-0.947,0.863-1.775,0.863c-1.175,0-1.775-0.828-1.775-1.668
		c0-1.402,1.247-2.17,3.49-2.158v-0.12c0-0.479-0.132-1.343-1.319-1.343c-0.54,0-1.104,0.168-1.511,0.432l-0.24-0.695
		c0.48-0.312,1.175-0.516,1.907-0.516c1.775,0,2.207,1.211,2.207,2.374v2.171c0,0.504,0.024,0.995,0.096,1.391H292.878z
		 M292.722,507.058c-1.151-0.024-2.458,0.18-2.458,1.308c0,0.684,0.456,1.008,0.996,1.008c0.755,0,1.235-0.48,1.403-0.973
		c0.036-0.107,0.06-0.228,0.06-0.336V507.058z"/>
	<path d="M296.671,502.549v1.666h1.511v0.804h-1.511v3.13c0,0.721,0.204,1.128,0.792,1.128c0.276,0,0.479-0.036,0.612-0.071
		l0.048,0.791c-0.204,0.084-0.528,0.145-0.936,0.145c-0.492,0-0.888-0.156-1.14-0.444c-0.3-0.312-0.408-0.827-0.408-1.511v-3.167
		h-0.899v-0.804h0.899v-1.391L296.671,502.549z"/>
	<path d="M304.552,507.07c0,2.146-1.487,3.082-2.89,3.082c-1.571,0-2.783-1.152-2.783-2.986c0-1.943,1.271-3.082,2.878-3.082
		C303.425,504.084,304.552,505.295,304.552,507.07z M299.947,507.129c0,1.271,0.732,2.231,1.763,2.231
		c1.007,0,1.763-0.947,1.763-2.255c0-0.983-0.492-2.23-1.739-2.23C300.487,504.875,299.947,506.026,299.947,507.129z"/>
	<path d="M305.887,506.026c0-0.684-0.012-1.271-0.048-1.812h0.923l0.036,1.14h0.048c0.264-0.779,0.899-1.271,1.607-1.271
		c0.12,0,0.204,0.012,0.3,0.035v0.996c-0.108-0.024-0.216-0.037-0.36-0.037c-0.744,0-1.271,0.564-1.416,1.355
		c-0.024,0.145-0.048,0.312-0.048,0.492v3.094h-1.043V506.026z"/>
	<path d="M312.595,510.02l0.312-2.35h-0.983v-0.708h1.091l0.228-1.739h-1.032v-0.707h1.14l0.312-2.291h0.696l-0.3,2.291h1.247
		l0.312-2.291h0.708l-0.3,2.291h0.983v0.707h-1.091l-0.216,1.739h1.031v0.708h-1.139l-0.312,2.35h-0.719l0.312-2.35h-1.247
		l-0.312,2.35H312.595z M314.981,506.962l0.228-1.739h-1.248l-0.228,1.739H314.981z"/>
	<path d="M317.983,510.02v-0.646l0.828-0.805c1.991-1.895,2.891-2.902,2.902-4.077c0-0.792-0.384-1.523-1.547-1.523
		c-0.708,0-1.295,0.36-1.655,0.659l-0.336-0.743c0.54-0.456,1.308-0.792,2.207-0.792c1.679,0,2.387,1.152,2.387,2.268
		c0,1.439-1.043,2.603-2.687,4.186l-0.624,0.576v0.023h3.502v0.875H317.983z"/>
	<path d="M244.796,516.336h1.043v7.209h3.454v0.875h-4.498V516.336z"/>
	<path d="M255.509,521.47c0,2.146-1.487,3.082-2.89,3.082c-1.571,0-2.783-1.151-2.783-2.986c0-1.942,1.271-3.082,2.878-3.082
		C254.382,518.483,255.509,519.694,255.509,521.47z M250.904,521.529c0,1.271,0.732,2.23,1.763,2.23
		c1.007,0,1.763-0.947,1.763-2.254c0-0.984-0.492-2.23-1.739-2.23C251.444,519.275,250.904,520.426,250.904,521.529z"/>
	<path d="M260.982,524.204c-0.276,0.144-0.887,0.336-1.667,0.336c-1.751,0-2.891-1.188-2.891-2.962c0-1.787,1.224-3.083,3.119-3.083
		c0.624,0,1.175,0.155,1.463,0.3l-0.24,0.815c-0.252-0.144-0.647-0.275-1.223-0.275c-1.332,0-2.051,0.983-2.051,2.194
		c0,1.344,0.864,2.171,2.015,2.171c0.6,0,0.996-0.155,1.295-0.288L260.982,524.204z"/>
	<path d="M265.435,524.42l-0.084-0.731h-0.036c-0.324,0.456-0.947,0.863-1.775,0.863c-1.175,0-1.775-0.827-1.775-1.667
		c0-1.403,1.247-2.171,3.49-2.158v-0.121c0-0.479-0.132-1.343-1.319-1.343c-0.54,0-1.104,0.168-1.511,0.432l-0.24-0.695
		c0.48-0.312,1.175-0.516,1.907-0.516c1.775,0,2.207,1.211,2.207,2.374v2.172c0,0.503,0.024,0.994,0.096,1.391H265.435z
		 M265.278,521.457c-1.151-0.023-2.458,0.181-2.458,1.308c0,0.684,0.456,1.008,0.996,1.008c0.755,0,1.235-0.479,1.403-0.972
		c0.036-0.107,0.06-0.229,0.06-0.336V521.457z"/>
	<path d="M268.004,515.904h1.056v8.516h-1.056V515.904z"/>
	<path d="M273.417,516.444c0.528-0.108,1.283-0.168,2.003-0.168c1.115,0,1.835,0.204,2.338,0.659
		c0.408,0.36,0.636,0.912,0.636,1.535c0,1.068-0.671,1.775-1.523,2.063v0.036c0.624,0.216,0.995,0.791,1.187,1.631
		c0.264,1.127,0.456,1.906,0.624,2.219h-1.08c-0.132-0.229-0.312-0.924-0.54-1.932c-0.24-1.115-0.672-1.535-1.619-1.57h-0.983v3.502
		h-1.043V516.444z M274.46,520.127h1.067c1.115,0,1.823-0.612,1.823-1.535c0-1.044-0.755-1.5-1.859-1.512
		c-0.504,0-0.863,0.048-1.031,0.096V520.127z"/>
	<path d="M280.472,521.709c0.024,1.428,0.935,2.016,1.991,2.016c0.755,0,1.211-0.133,1.607-0.301l0.18,0.756
		c-0.372,0.168-1.007,0.36-1.931,0.36c-1.787,0-2.854-1.176-2.854-2.927s1.032-3.13,2.723-3.13c1.895,0,2.399,1.667,2.399,2.734
		c0,0.216-0.024,0.384-0.036,0.491H280.472z M283.566,520.953c0.012-0.671-0.276-1.715-1.463-1.715
		c-1.067,0-1.535,0.984-1.619,1.715H283.566z"/>
	<path d="M285.896,520.51c0-0.743-0.024-1.343-0.048-1.895h0.947l0.048,0.995h0.024c0.432-0.708,1.115-1.127,2.062-1.127
		c1.403,0,2.459,1.187,2.459,2.95c0,2.087-1.271,3.118-2.639,3.118c-0.768,0-1.439-0.336-1.787-0.911h-0.024v3.154h-1.043V520.51z
		 M286.939,522.057c0,0.156,0.024,0.301,0.048,0.432c0.192,0.732,0.828,1.236,1.583,1.236c1.116,0,1.763-0.912,1.763-2.243
		c0-1.163-0.612-2.159-1.727-2.159c-0.72,0-1.391,0.516-1.595,1.308c-0.036,0.132-0.072,0.288-0.072,0.432V522.057z"/>
	<path d="M297.977,521.47c0,2.146-1.487,3.082-2.89,3.082c-1.571,0-2.783-1.151-2.783-2.986c0-1.942,1.271-3.082,2.878-3.082
		C296.85,518.483,297.977,519.694,297.977,521.47z M293.371,521.529c0,1.271,0.732,2.23,1.763,2.23c1.007,0,1.763-0.947,1.763-2.254
		c0-0.984-0.492-2.23-1.739-2.23C293.911,519.275,293.371,520.426,293.371,521.529z"/>
	<path d="M299.167,523.34c0.312,0.205,0.864,0.42,1.392,0.42c0.768,0,1.127-0.383,1.127-0.863c0-0.504-0.3-0.779-1.079-1.067
		c-1.043-0.372-1.535-0.947-1.535-1.644c0-0.935,0.755-1.702,2.003-1.702c0.587,0,1.103,0.167,1.427,0.359l-0.264,0.768
		c-0.228-0.144-0.647-0.335-1.187-0.335c-0.624,0-0.972,0.359-0.972,0.791c0,0.479,0.348,0.695,1.104,0.983
		c1.007,0.384,1.523,0.888,1.523,1.751c0,1.02-0.792,1.739-2.171,1.739c-0.635,0-1.223-0.156-1.631-0.396L299.167,523.34z"/>
	<path d="M305.239,516.984c0.012,0.359-0.252,0.647-0.671,0.647c-0.372,0-0.636-0.288-0.636-0.647c0-0.372,0.276-0.66,0.66-0.66
		C304.987,516.324,305.239,516.612,305.239,516.984z M304.063,524.42v-5.805h1.056v5.805H304.063z"/>
	<path d="M308.143,516.948v1.667h1.511v0.803h-1.511v3.131c0,0.72,0.204,1.127,0.792,1.127c0.276,0,0.479-0.035,0.611-0.071
		l0.048,0.792c-0.204,0.084-0.528,0.144-0.936,0.144c-0.492,0-0.888-0.156-1.14-0.444c-0.3-0.312-0.408-0.827-0.408-1.511v-3.167
		h-0.899v-0.803h0.899v-1.392L308.143,516.948z"/>
	<path d="M316.024,521.47c0,2.146-1.487,3.082-2.89,3.082c-1.571,0-2.783-1.151-2.783-2.986c0-1.942,1.271-3.082,2.878-3.082
		C314.897,518.483,316.024,519.694,316.024,521.47z M311.419,521.529c0,1.271,0.732,2.23,1.763,2.23
		c1.007,0,1.763-0.947,1.763-2.254c0-0.984-0.492-2.23-1.739-2.23C311.959,519.275,311.419,520.426,311.419,521.529z"/>
	<path d="M317.359,520.426c0-0.684-0.012-1.271-0.048-1.811h0.923l0.036,1.139h0.048c0.264-0.779,0.899-1.271,1.607-1.271
		c0.12,0,0.204,0.012,0.3,0.036v0.995c-0.108-0.024-0.216-0.036-0.359-0.036c-0.744,0-1.271,0.564-1.416,1.355
		c-0.024,0.145-0.048,0.312-0.048,0.492v3.094h-1.043V520.426z"/>
	<path d="M321.967,518.615l1.271,3.43c0.132,0.385,0.276,0.84,0.372,1.188h0.024c0.108-0.348,0.228-0.791,0.372-1.211l1.151-3.406
		h1.115l-1.583,4.138c-0.756,1.991-1.271,3.011-1.991,3.634c-0.516,0.456-1.031,0.636-1.295,0.684l-0.264-0.887
		c0.264-0.084,0.612-0.252,0.924-0.517c0.288-0.228,0.647-0.636,0.887-1.175c0.048-0.108,0.084-0.192,0.084-0.252
		c0-0.061-0.024-0.145-0.072-0.275l-2.147-5.35H321.967z"/>
</g>
<path opacity="0.7" fill="#FF931E" stroke="#000000" stroke-miterlimit="10" d="M536.888,394.298c0,4.584-1.83,8.202-4.316,8.202
	h-85.181c-2.487,0-4.503-3.618-4.503-8.202v-45.649c0-4.584,2.016-8.148,4.503-8.148h85.181c2.486,0,4.316,3.564,4.316,8.148
	V394.298z"/>
<g>
	<g>
		
			<line fill="none" stroke="#000000" stroke-width="2" stroke-miterlimit="10" x1="136.797" y1="221.06" x2="225.054" y2="190.595"/>
		<g>
			<path d="M125.388,224.999c6.057,0.139,13.891,1.238,19.263,3.413l-6.356-7.868l0.149-10.112
				C135.558,215.457,130.069,221.155,125.388,224.999z"/>
		</g>
	</g>
</g>
<g>
	<g>
		
			<line fill="none" stroke="#000000" stroke-width="2" stroke-miterlimit="10" x1="218.645" y1="208.534" x2="130.388" y2="238.998"/>
		<g>
			<path d="M230.055,204.596c-6.057-0.139-13.891-1.238-19.263-3.414l6.355,7.869l-0.149,10.112
				C219.885,214.137,225.373,208.439,230.055,204.596z"/>
		</g>
	</g>
</g>
<g>
	<rect x="354.879" y="228.043" fill="none" width="59.238" height="10.913"/>
	<path d="M372.948,232.654c0-0.744-0.024-1.343-0.048-1.895h0.947l0.048,0.995h0.024c0.432-0.708,1.115-1.127,2.062-1.127
		c1.403,0,2.459,1.187,2.459,2.95c0,2.087-1.271,3.118-2.639,3.118c-0.768,0-1.439-0.336-1.787-0.912h-0.024v3.154h-1.043V232.654z
		 M373.992,234.201c0,0.156,0.024,0.3,0.048,0.432c0.192,0.732,0.828,1.235,1.583,1.235c1.116,0,1.763-0.911,1.763-2.243
		c0-1.163-0.612-2.159-1.727-2.159c-0.72,0-1.391,0.516-1.595,1.307c-0.036,0.132-0.072,0.288-0.072,0.432V234.201z"/>
	<path d="M384.633,234.98c0,0.6,0.012,1.127,0.048,1.583h-0.936l-0.06-0.947h-0.024c-0.276,0.467-0.887,1.079-1.919,1.079
		c-0.911,0-2.003-0.503-2.003-2.542v-3.394h1.056v3.214c0,1.103,0.336,1.847,1.295,1.847c0.708,0,1.199-0.492,1.391-0.959
		c0.06-0.156,0.096-0.348,0.096-0.54v-3.562h1.056V234.98z"/>
	<path d="M386.244,235.484c0.312,0.204,0.864,0.42,1.392,0.42c0.768,0,1.127-0.384,1.127-0.863c0-0.504-0.3-0.78-1.079-1.067
		c-1.043-0.372-1.535-0.948-1.535-1.644c0-0.935,0.755-1.703,2.003-1.703c0.587,0,1.104,0.167,1.427,0.359l-0.264,0.768
		c-0.228-0.144-0.647-0.335-1.187-0.335c-0.624,0-0.972,0.36-0.972,0.792c0,0.479,0.348,0.695,1.104,0.983
		c1.007,0.384,1.523,0.888,1.523,1.751c0,1.02-0.792,1.739-2.171,1.739c-0.635,0-1.223-0.156-1.631-0.396L386.244,235.484z"/>
	<path d="M391.14,228.048h1.056v3.622h0.024c0.168-0.3,0.432-0.564,0.755-0.744c0.312-0.18,0.684-0.3,1.08-0.3
		c0.779,0,2.027,0.479,2.027,2.482v3.454h-1.056v-3.334c0-0.936-0.348-1.727-1.343-1.727c-0.684,0-1.223,0.479-1.415,1.055
		c-0.06,0.144-0.072,0.3-0.072,0.504v3.502h-1.056V228.048z"/>
</g>
<g>
	<rect x="380.84" y="187.139" fill="none" width="50.945" height="13.81"/>
	<path d="M397.636,191.749c0-0.744-0.024-1.343-0.048-1.895h0.947l0.048,0.995h0.024c0.432-0.708,1.115-1.127,2.062-1.127
		c1.403,0,2.459,1.187,2.459,2.95c0,2.087-1.271,3.118-2.639,3.118c-0.768,0-1.439-0.336-1.787-0.912h-0.024v3.154h-1.043V191.749z
		 M398.679,193.296c0,0.156,0.024,0.3,0.048,0.432c0.192,0.732,0.828,1.235,1.583,1.235c1.115,0,1.763-0.911,1.763-2.243
		c0-1.163-0.611-2.159-1.727-2.159c-0.72,0-1.391,0.516-1.595,1.307c-0.036,0.132-0.072,0.288-0.072,0.432V193.296z"/>
	<path d="M409.321,194.076c0,0.6,0.012,1.127,0.048,1.583h-0.936l-0.06-0.947h-0.024c-0.276,0.467-0.887,1.079-1.919,1.079
		c-0.911,0-2.003-0.503-2.003-2.542v-3.394h1.056v3.214c0,1.103,0.336,1.847,1.295,1.847c0.708,0,1.199-0.492,1.391-0.959
		c0.06-0.156,0.096-0.348,0.096-0.54v-3.562h1.056V194.076z"/>
	<path d="M411.075,187.144h1.056v8.515h-1.056V187.144z"/>
	<path d="M413.907,187.144h1.056v8.515h-1.056V187.144z"/>
</g>
<g>
	<g>
		
			<line fill="none" stroke="#000000" stroke-width="2" stroke-miterlimit="10" x1="434.644" y1="220.06" x2="346.388" y2="189.595"/>
		<g>
			<path d="M446.054,223.999c-4.682-3.845-10.169-9.543-13.056-14.569l0.148,10.114l-6.355,7.867
				C432.164,225.235,439.999,224.136,446.054,223.999z"/>
		</g>
	</g>
</g>
<g>
	<g>
		
			<line fill="none" stroke="#000000" stroke-width="2" stroke-miterlimit="10" x1="352.797" y1="207.534" x2="441.054" y2="237.998"/>
		<g>
			<path d="M341.388,203.596c4.681,3.845,10.169,9.543,13.056,14.569l-0.148-10.114l6.355-7.867
				C355.278,202.359,347.443,203.458,341.388,203.596z"/>
		</g>
	</g>
</g>
<g>
	<g>
		<line fill="none" stroke="#000000" stroke-width="2" stroke-miterlimit="10" x1="294.388" y1="251" x2="294.388" y2="295"/>
		<g>
			<path d="M294.388,239c-2.107,5.68-5.703,12.727-9.512,17.095l9.512-3.44l9.51,3.44C300.089,251.727,296.494,244.68,294.388,239z"
				/>
		</g>
	</g>
</g>
<g>
	<g>
		<line fill="none" stroke="#000000" stroke-width="2" stroke-miterlimit="10" x1="275.388" y1="283" x2="275.388" y2="239"/>
		<g>
			<path d="M275.388,294.943c2.107-5.68,5.703-12.727,9.512-17.095l-9.512,3.44l-9.51-3.44
				C269.687,282.217,273.283,289.264,275.388,294.943z"/>
		</g>
	</g>
</g>
<g>
	<rect x="296.388" y="262.044" fill="none" width="59.238" height="10.913"/>
	<path d="M314.457,266.654c0-0.744-0.024-1.343-0.048-1.895h0.947l0.048,0.995h0.024c0.432-0.708,1.115-1.127,2.062-1.127
		c1.403,0,2.459,1.187,2.459,2.95c0,2.087-1.271,3.118-2.639,3.118c-0.768,0-1.439-0.336-1.787-0.912H315.5v3.154h-1.043V266.654z
		 M315.5,268.201c0,0.156,0.024,0.3,0.048,0.432c0.192,0.732,0.828,1.235,1.583,1.235c1.116,0,1.763-0.911,1.763-2.243
		c0-1.163-0.612-2.159-1.727-2.159c-0.72,0-1.391,0.516-1.595,1.307c-0.036,0.132-0.072,0.288-0.072,0.432V268.201z"/>
	<path d="M326.142,268.981c0,0.6,0.012,1.127,0.048,1.583h-0.936l-0.06-0.947h-0.024c-0.276,0.467-0.887,1.079-1.919,1.079
		c-0.911,0-2.003-0.503-2.003-2.542v-3.394h1.056v3.214c0,1.103,0.336,1.847,1.295,1.847c0.708,0,1.199-0.492,1.391-0.959
		c0.06-0.156,0.096-0.348,0.096-0.54v-3.562h1.056V268.981z"/>
	<path d="M327.752,269.484c0.312,0.204,0.864,0.42,1.392,0.42c0.768,0,1.127-0.384,1.127-0.863c0-0.504-0.3-0.78-1.079-1.067
		c-1.043-0.372-1.535-0.948-1.535-1.644c0-0.935,0.755-1.703,2.003-1.703c0.587,0,1.104,0.167,1.427,0.359l-0.264,0.768
		c-0.228-0.144-0.647-0.335-1.187-0.335c-0.624,0-0.972,0.36-0.972,0.792c0,0.479,0.348,0.695,1.104,0.983
		c1.007,0.384,1.523,0.888,1.523,1.751c0,1.02-0.792,1.739-2.171,1.739c-0.635,0-1.223-0.156-1.631-0.396L327.752,269.484z"/>
	<path d="M332.648,262.049h1.056v3.622h0.024c0.168-0.3,0.432-0.564,0.755-0.744c0.312-0.18,0.684-0.3,1.08-0.3
		c0.779,0,2.027,0.479,2.027,2.482v3.454h-1.056v-3.334c0-0.936-0.348-1.727-1.343-1.727c-0.684,0-1.223,0.479-1.415,1.055
		c-0.06,0.144-0.072,0.3-0.072,0.504v3.502h-1.056V262.049z"/>
</g>
<g>
	<rect x="216.931" y="259.595" fill="none" width="50.945" height="13.81"/>
	<path d="M233.727,264.206c0-0.744-0.024-1.343-0.048-1.895h0.947l0.048,0.995h0.024c0.432-0.708,1.115-1.127,2.062-1.127
		c1.403,0,2.459,1.187,2.459,2.95c0,2.087-1.271,3.118-2.639,3.118c-0.768,0-1.439-0.336-1.787-0.912h-0.024v3.154h-1.043V264.206z
		 M234.771,265.752c0,0.156,0.024,0.3,0.048,0.432c0.192,0.732,0.828,1.235,1.583,1.235c1.115,0,1.763-0.911,1.763-2.243
		c0-1.163-0.611-2.159-1.727-2.159c-0.72,0-1.391,0.516-1.595,1.307c-0.036,0.132-0.072,0.288-0.072,0.432V265.752z"/>
	<path d="M245.412,266.532c0,0.6,0.012,1.127,0.048,1.583h-0.936l-0.06-0.947h-0.024c-0.276,0.467-0.887,1.079-1.919,1.079
		c-0.911,0-2.003-0.503-2.003-2.542v-3.394h1.056v3.214c0,1.103,0.336,1.847,1.295,1.847c0.708,0,1.199-0.492,1.391-0.959
		c0.06-0.156,0.096-0.348,0.096-0.54v-3.562h1.056V266.532z"/>
	<path d="M247.167,259.6h1.056v8.515h-1.056V259.6z"/>
	<path d="M249.999,259.6h1.056v8.515h-1.056V259.6z"/>
</g>
<g>
	<rect x="38.356" y="348.385" fill="none" width="95.532" height="54.115"/>
	<path d="M64.879,362.917c-0.483,0.252-1.554,0.588-2.918,0.588c-3.065,0-5.06-2.079-5.06-5.187c0-3.128,2.142-5.396,5.459-5.396
		c1.092,0,2.058,0.272,2.562,0.524l-0.42,1.428c-0.441-0.252-1.134-0.482-2.142-0.482c-2.331,0-3.59,1.722-3.59,3.842
		c0,2.352,1.512,3.801,3.527,3.801c1.05,0,1.743-0.273,2.268-0.504L64.879,362.917z"/>
	<path d="M76.114,358.13c0,3.759-2.604,5.396-5.06,5.396c-2.75,0-4.871-2.016-4.871-5.228c0-3.401,2.226-5.396,5.039-5.396
		C74.14,352.902,76.114,355.022,76.114,358.13z M68.051,358.234c0,2.227,1.281,3.906,3.086,3.906c1.764,0,3.086-1.659,3.086-3.947
		c0-1.723-0.861-3.906-3.044-3.906S68.051,356.303,68.051,358.234z"/>
	<path d="M78.446,356.45c0-1.302-0.042-2.352-0.084-3.317h1.659l0.084,1.742h0.042c0.756-1.238,1.953-1.973,3.611-1.973
		c2.457,0,4.304,2.078,4.304,5.164c0,3.654-2.226,5.459-4.619,5.459c-1.344,0-2.52-0.588-3.128-1.596h-0.042v5.522h-1.827V356.45z
		 M80.273,359.158c0,0.273,0.042,0.525,0.084,0.756c0.336,1.281,1.449,2.163,2.771,2.163c1.953,0,3.086-1.596,3.086-3.927
		c0-2.036-1.071-3.779-3.023-3.779c-1.26,0-2.436,0.903-2.792,2.289c-0.063,0.23-0.126,0.504-0.126,0.756V359.158z"/>
	<path d="M92.453,350.277c0.021,0.63-0.441,1.134-1.176,1.134c-0.651,0-1.113-0.504-1.113-1.134c0-0.65,0.483-1.154,1.155-1.154
		C92.012,349.123,92.453,349.627,92.453,350.277z M90.395,363.295v-10.162h1.848v10.162H90.395z"/>
	<path d="M96.338,358.55c0.042,2.499,1.638,3.527,3.485,3.527c1.323,0,2.121-0.231,2.813-0.524l0.315,1.322
		c-0.651,0.294-1.764,0.63-3.38,0.63c-3.128,0-4.997-2.058-4.997-5.123s1.806-5.479,4.766-5.479c3.317,0,4.199,2.918,4.199,4.787
		c0,0.377-0.042,0.672-0.063,0.86H96.338z M101.755,357.227c0.021-1.176-0.483-3.002-2.562-3.002c-1.869,0-2.688,1.722-2.834,3.002
		H101.755z"/>
	<path d="M114.606,348.388v12.282c0,0.903,0.021,1.932,0.084,2.625h-1.659l-0.084-1.764h-0.042
		c-0.567,1.134-1.806,1.994-3.464,1.994c-2.457,0-4.346-2.078-4.346-5.164c-0.021-3.381,2.079-5.459,4.556-5.459
		c1.554,0,2.604,0.734,3.065,1.553h0.042v-6.067H114.606z M112.759,357.27c0-0.231-0.021-0.547-0.084-0.777
		c-0.273-1.176-1.281-2.142-2.667-2.142c-1.911,0-3.044,1.68-3.044,3.927c0,2.057,1.008,3.758,3.002,3.758
		c1.239,0,2.373-0.818,2.708-2.205c0.063-0.252,0.084-0.504,0.084-0.797V357.27z"/>
	<path d="M64.492,388.494v-8.756h-1.428v-1.406h1.428v-0.546c0-2.688,1.575-4.431,4.43-4.431c0.945,0,2.058,0.295,2.583,0.672
		l-0.525,1.407c-0.441-0.315-1.239-0.588-2.142-0.588c-1.953,0-2.52,1.364-2.52,2.981v0.504h5.9v10.162h-1.827v-8.756h-4.073v8.756
		H64.492z"/>
	<path d="M75.286,373.587h1.848v14.907h-1.848V373.587z"/>
	<path d="M81.271,383.749c0.042,2.499,1.638,3.527,3.485,3.527c1.323,0,2.121-0.231,2.813-0.524l0.315,1.322
		c-0.651,0.294-1.764,0.63-3.38,0.63c-3.128,0-4.997-2.058-4.997-5.123s1.806-5.479,4.766-5.479c3.317,0,4.199,2.918,4.199,4.787
		c0,0.377-0.042,0.672-0.063,0.86H81.271z M86.688,382.426c0.021-1.176-0.483-3.002-2.562-3.002c-1.869,0-2.688,1.722-2.834,3.002
		H86.688z"/>
	<path d="M94.773,373.923c-1.533,2.058-2.646,4.787-2.646,8.587c0,3.738,1.155,6.426,2.646,8.525h-1.449
		c-1.323-1.743-2.75-4.431-2.75-8.525c0.021-4.136,1.428-6.823,2.75-8.587H94.773z"/>
	<path d="M96.475,386.604c0.546,0.356,1.512,0.735,2.436,0.735c1.344,0,1.974-0.672,1.974-1.512c0-0.883-0.525-1.365-1.89-1.869
		c-1.827-0.65-2.688-1.658-2.688-2.877c0-1.637,1.323-2.98,3.506-2.98c1.029,0,1.932,0.293,2.499,0.629l-0.462,1.344
		c-0.399-0.252-1.134-0.588-2.079-0.588c-1.092,0-1.701,0.631-1.701,1.387c0,0.84,0.609,1.217,1.932,1.721
		c1.764,0.672,2.667,1.555,2.667,3.066c0,1.784-1.386,3.044-3.8,3.044c-1.113,0-2.142-0.272-2.855-0.692L96.475,386.604z"/>
	<path d="M103.93,391.035c1.491-2.079,2.646-4.809,2.646-8.588c0-3.758-1.134-6.445-2.646-8.524h1.428
		c1.344,1.722,2.75,4.409,2.75,8.546c0,4.115-1.407,6.781-2.75,8.566H103.93z"/>
</g>
<g>
	<rect x="238.122" y="437.441" fill="none" width="95.532" height="54.115"/>
	<path d="M264.645,451.975c-0.483,0.252-1.554,0.588-2.918,0.588c-3.065,0-5.06-2.08-5.06-5.188c0-3.127,2.142-5.395,5.459-5.395
		c1.092,0,2.058,0.271,2.562,0.523l-0.42,1.428c-0.441-0.252-1.134-0.482-2.142-0.482c-2.331,0-3.59,1.723-3.59,3.842
		c0,2.352,1.512,3.801,3.527,3.801c1.05,0,1.743-0.273,2.268-0.504L264.645,451.975z"/>
	<path d="M275.879,447.188c0,3.758-2.604,5.395-5.06,5.395c-2.75,0-4.871-2.016-4.871-5.227c0-3.402,2.226-5.396,5.039-5.396
		C273.906,441.959,275.879,444.08,275.879,447.188z M267.817,447.291c0,2.227,1.281,3.906,3.086,3.906
		c1.764,0,3.086-1.658,3.086-3.947c0-1.723-0.861-3.906-3.044-3.906S267.817,445.359,267.817,447.291z"/>
	<path d="M278.212,445.508c0-1.303-0.042-2.352-0.084-3.318h1.659l0.084,1.742h0.042c0.756-1.238,1.953-1.973,3.611-1.973
		c2.457,0,4.304,2.078,4.304,5.164c0,3.654-2.226,5.459-4.619,5.459c-1.344,0-2.52-0.588-3.128-1.596h-0.042v5.523h-1.827V445.508z
		 M280.039,448.215c0,0.273,0.042,0.525,0.084,0.756c0.336,1.281,1.449,2.164,2.771,2.164c1.953,0,3.086-1.596,3.086-3.928
		c0-2.035-1.071-3.779-3.023-3.779c-1.26,0-2.436,0.904-2.792,2.289c-0.063,0.23-0.126,0.504-0.126,0.756V448.215z"/>
	<path d="M292.218,439.334c0.021,0.631-0.441,1.135-1.176,1.135c-0.651,0-1.113-0.504-1.113-1.135c0-0.65,0.483-1.154,1.155-1.154
		C291.777,438.18,292.218,438.684,292.218,439.334z M290.161,452.352v-10.162h1.848v10.162H290.161z"/>
	<path d="M296.104,447.607c0.042,2.498,1.638,3.527,3.485,3.527c1.323,0,2.121-0.232,2.813-0.525l0.315,1.322
		c-0.651,0.295-1.764,0.631-3.38,0.631c-3.128,0-4.997-2.059-4.997-5.123c0-3.066,1.806-5.48,4.766-5.48
		c3.317,0,4.199,2.918,4.199,4.787c0,0.377-0.042,0.672-0.063,0.861H296.104z M301.521,446.283c0.021-1.176-0.483-3.002-2.562-3.002
		c-1.869,0-2.688,1.723-2.834,3.002H301.521z"/>
	<path d="M314.372,437.445v12.281c0,0.904,0.021,1.932,0.084,2.625h-1.659l-0.084-1.764h-0.042
		c-0.567,1.135-1.806,1.994-3.464,1.994c-2.457,0-4.346-2.078-4.346-5.164c-0.021-3.381,2.079-5.459,4.556-5.459
		c1.554,0,2.604,0.734,3.065,1.553h0.042v-6.066H314.372z M312.524,446.326c0-0.23-0.021-0.547-0.084-0.777
		c-0.273-1.176-1.281-2.141-2.667-2.141c-1.911,0-3.044,1.68-3.044,3.926c0,2.057,1.008,3.758,3.002,3.758
		c1.239,0,2.373-0.818,2.708-2.205c0.063-0.252,0.084-0.504,0.084-0.797V446.326z"/>
	<path d="M264.258,477.551v-8.756h-1.428v-1.406h1.428v-0.545c0-2.688,1.575-4.432,4.43-4.432c0.945,0,2.058,0.295,2.583,0.672
		l-0.525,1.408c-0.441-0.316-1.239-0.588-2.142-0.588c-1.953,0-2.52,1.363-2.52,2.98v0.504h5.9v10.162h-1.827v-8.756h-4.073v8.756
		H264.258z"/>
	<path d="M275.052,462.645h1.848v14.906h-1.848V462.645z"/>
	<path d="M281.037,472.807c0.042,2.498,1.638,3.527,3.485,3.527c1.323,0,2.121-0.232,2.813-0.525l0.315,1.322
		c-0.651,0.295-1.764,0.631-3.38,0.631c-3.128,0-4.997-2.059-4.997-5.123c0-3.066,1.806-5.48,4.766-5.48
		c3.317,0,4.199,2.918,4.199,4.787c0,0.377-0.042,0.672-0.063,0.861H281.037z M286.454,471.482c0.021-1.176-0.483-3.002-2.562-3.002
		c-1.869,0-2.688,1.723-2.834,3.002H286.454z"/>
	<path d="M294.539,462.98c-1.533,2.057-2.646,4.787-2.646,8.586c0,3.738,1.155,6.426,2.646,8.525h-1.449
		c-1.323-1.742-2.75-4.43-2.75-8.525c0.021-4.135,1.428-6.822,2.75-8.586H294.539z"/>
	<path d="M296.241,475.662c0.546,0.355,1.512,0.734,2.436,0.734c1.344,0,1.974-0.672,1.974-1.512c0-0.883-0.525-1.365-1.89-1.869
		c-1.827-0.65-2.688-1.658-2.688-2.877c0-1.637,1.323-2.98,3.506-2.98c1.029,0,1.932,0.293,2.499,0.629l-0.462,1.344
		c-0.399-0.252-1.134-0.588-2.079-0.588c-1.092,0-1.701,0.631-1.701,1.387c0,0.84,0.609,1.217,1.932,1.721
		c1.764,0.672,2.667,1.555,2.667,3.066c0,1.785-1.386,3.045-3.8,3.045c-1.113,0-2.142-0.273-2.855-0.693L296.241,475.662z"/>
	<path d="M303.696,480.092c1.491-2.078,2.646-4.809,2.646-8.588c0-3.758-1.134-6.445-2.646-8.523h1.428
		c1.344,1.721,2.75,4.408,2.75,8.545c0,4.115-1.407,6.781-2.75,8.566H303.696z"/>
</g>
<g>
	<rect x="442.123" y="350.898" fill="none" width="95.531" height="54.115"/>
	<path d="M468.645,365.431c-0.483,0.252-1.554,0.588-2.919,0.588c-3.064,0-5.06-2.079-5.06-5.187c0-3.128,2.142-5.396,5.459-5.396
		c1.092,0,2.058,0.272,2.562,0.524l-0.42,1.428c-0.441-0.252-1.134-0.482-2.142-0.482c-2.331,0-3.591,1.722-3.591,3.842
		c0,2.352,1.512,3.801,3.527,3.801c1.051,0,1.743-0.273,2.268-0.504L468.645,365.431z"/>
	<path d="M479.879,360.644c0,3.759-2.604,5.396-5.06,5.396c-2.751,0-4.871-2.016-4.871-5.228c0-3.401,2.225-5.396,5.039-5.396
		C477.906,355.416,479.879,357.536,479.879,360.644z M471.817,360.748c0,2.227,1.28,3.906,3.087,3.906
		c1.764,0,3.086-1.659,3.086-3.947c0-1.723-0.861-3.906-3.045-3.906S471.817,358.816,471.817,360.748z"/>
	<path d="M482.212,358.964c0-1.302-0.043-2.352-0.084-3.317h1.658l0.084,1.742h0.042c0.756-1.238,1.952-1.973,3.611-1.973
		c2.456,0,4.304,2.078,4.304,5.164c0,3.654-2.225,5.459-4.619,5.459c-1.344,0-2.52-0.588-3.128-1.596h-0.042v5.522h-1.826V358.964z
		 M484.039,361.672c0,0.273,0.042,0.525,0.084,0.756c0.336,1.281,1.449,2.163,2.771,2.163c1.953,0,3.086-1.596,3.086-3.927
		c0-2.036-1.07-3.779-3.023-3.779c-1.26,0-2.436,0.903-2.792,2.289c-0.063,0.23-0.126,0.504-0.126,0.756V361.672z"/>
	<path d="M496.218,352.791c0.021,0.63-0.441,1.134-1.176,1.134c-0.65,0-1.113-0.504-1.113-1.134c0-0.65,0.483-1.154,1.155-1.154
		C495.777,351.637,496.218,352.141,496.218,352.791z M494.161,365.809v-10.162h1.848v10.162H494.161z"/>
	<path d="M500.103,361.063c0.043,2.499,1.639,3.527,3.486,3.527c1.322,0,2.12-0.231,2.812-0.524l0.315,1.322
		c-0.651,0.294-1.764,0.63-3.38,0.63c-3.129,0-4.998-2.058-4.998-5.123s1.807-5.479,4.767-5.479c3.317,0,4.199,2.918,4.199,4.787
		c0,0.377-0.042,0.672-0.063,0.86H500.103z M505.521,359.74c0.021-1.176-0.483-3.002-2.562-3.002c-1.868,0-2.688,1.722-2.834,3.002
		H505.521z"/>
	<path d="M518.373,350.901v12.282c0,0.903,0.021,1.932,0.084,2.625h-1.659l-0.084-1.764h-0.042
		c-0.566,1.134-1.806,1.994-3.465,1.994c-2.456,0-4.346-2.078-4.346-5.164c-0.021-3.381,2.078-5.459,4.557-5.459
		c1.553,0,2.604,0.734,3.064,1.553h0.043v-6.067H518.373z M516.525,359.783c0-0.231-0.021-0.547-0.084-0.777
		c-0.273-1.176-1.281-2.142-2.667-2.142c-1.911,0-3.044,1.68-3.044,3.927c0,2.057,1.008,3.758,3.002,3.758
		c1.238,0,2.373-0.818,2.709-2.205c0.062-0.252,0.084-0.504,0.084-0.797V359.783z"/>
	<path d="M468.257,391.008v-8.756h-1.428v-1.406h1.428V380.3c0-2.688,1.575-4.431,4.431-4.431c0.944,0,2.058,0.295,2.583,0.672
		l-0.525,1.407c-0.441-0.315-1.238-0.588-2.142-0.588c-1.952,0-2.52,1.364-2.52,2.981v0.504h5.899v10.162h-1.826v-8.756h-4.073
		v8.756H468.257z"/>
	<path d="M479.052,376.101h1.848v14.907h-1.848V376.101z"/>
	<path d="M485.037,386.263c0.042,2.499,1.638,3.527,3.485,3.527c1.323,0,2.12-0.231,2.813-0.524l0.314,1.322
		c-0.65,0.294-1.764,0.63-3.38,0.63c-3.128,0-4.997-2.058-4.997-5.123s1.806-5.479,4.766-5.479c3.318,0,4.199,2.918,4.199,4.787
		c0,0.377-0.041,0.672-0.062,0.86H485.037z M490.454,384.939c0.021-1.176-0.483-3.002-2.562-3.002c-1.869,0-2.688,1.722-2.834,3.002
		H490.454z"/>
	<path d="M498.539,376.437c-1.532,2.058-2.645,4.787-2.645,8.587c0,3.738,1.154,6.426,2.645,8.525h-1.448
		c-1.323-1.743-2.751-4.431-2.751-8.525c0.021-4.136,1.428-6.823,2.751-8.587H498.539z"/>
	<path d="M500.241,389.118c0.546,0.356,1.512,0.735,2.436,0.735c1.344,0,1.974-0.672,1.974-1.512c0-0.883-0.525-1.365-1.89-1.869
		c-1.827-0.65-2.688-1.658-2.688-2.877c0-1.637,1.323-2.98,3.507-2.98c1.028,0,1.932,0.293,2.498,0.629l-0.462,1.344
		c-0.399-0.252-1.134-0.588-2.079-0.588c-1.092,0-1.7,0.631-1.7,1.387c0,0.84,0.608,1.217,1.932,1.721
		c1.764,0.672,2.667,1.555,2.667,3.066c0,1.784-1.387,3.044-3.801,3.044c-1.113,0-2.142-0.272-2.855-0.692L500.241,389.118z"/>
	<path d="M507.696,393.549c1.491-2.079,2.646-4.809,2.646-8.588c0-3.758-1.134-6.445-2.646-8.524h1.428
		c1.344,1.722,2.751,4.409,2.751,8.546c0,4.115-1.407,6.781-2.751,8.566H507.696z"/>
</g>
<g>
	
		<ellipse fill="#E6E6E6" stroke="#000000" stroke-width="2" stroke-miterlimit="10" cx="86.616" cy="261.961" rx="24.883" ry="10.037"/>
	<rect x="61.388" y="222" fill="#E6E6E6" width="50" height="40"/>
	
		<ellipse fill="#E6E6E6" stroke="#000000" stroke-width="2" stroke-miterlimit="10" cx="86.616" cy="222.304" rx="24.883" ry="10.038"/>
	<line fill="#E6E6E6" stroke="#000000" stroke-width="2" stroke-miterlimit="10" x1="61.388" y1="222" x2="61.388" y2="262"/>
	<line fill="#E6E6E6" stroke="#000000" stroke-width="2" stroke-miterlimit="10" x1="111.388" y1="222" x2="111.388" y2="264"/>
	<path fill="#E6E6E6" stroke="#000000" stroke-width="2" stroke-miterlimit="10" d="M61.925,237.659
		c10.696,10.696,38.038,10.857,49.015-0.12"/>
	<path fill="#E6E6E6" stroke="#000000" stroke-width="2" stroke-miterlimit="10" d="M61.925,250.547
		c10.696,10.695,38.038,10.857,49.015-0.119"/>
</g>
<g>
	
		<ellipse fill="#E6E6E6" stroke="#000000" stroke-width="2" stroke-miterlimit="10" cx="285.616" cy="357.961" rx="24.883" ry="10.037"/>
	<rect x="260.388" y="318" fill="#E6E6E6" width="50" height="40"/>
	
		<ellipse fill="#E6E6E6" stroke="#000000" stroke-width="2" stroke-miterlimit="10" cx="285.616" cy="318.305" rx="24.883" ry="10.037"/>
	<line fill="#E6E6E6" stroke="#000000" stroke-width="2" stroke-miterlimit="10" x1="260.388" y1="318" x2="260.388" y2="358"/>
	<line fill="#E6E6E6" stroke="#000000" stroke-width="2" stroke-miterlimit="10" x1="310.388" y1="318" x2="310.388" y2="360"/>
	<path fill="#E6E6E6" stroke="#000000" stroke-width="2" stroke-miterlimit="10" d="M260.925,333.658
		c10.696,10.696,38.038,10.857,49.015-0.119"/>
	<path fill="#E6E6E6" stroke="#000000" stroke-width="2" stroke-miterlimit="10" d="M260.925,346.547
		c10.696,10.695,38.038,10.857,49.015-0.119"/>
</g>
<g>
	
		<ellipse fill="#E6E6E6" stroke="#000000" stroke-width="2" stroke-miterlimit="10" cx="487.616" cy="257.961" rx="24.883" ry="10.037"/>
	<rect x="462.388" y="218" fill="#E6E6E6" width="50" height="40"/>
	
		<ellipse fill="#E6E6E6" stroke="#000000" stroke-width="2" stroke-miterlimit="10" cx="487.616" cy="218.305" rx="24.883" ry="10.037"/>
	<line fill="#E6E6E6" stroke="#000000" stroke-width="2" stroke-miterlimit="10" x1="462.388" y1="218" x2="462.388" y2="258"/>
	<line fill="#E6E6E6" stroke="#000000" stroke-width="2" stroke-miterlimit="10" x1="512.388" y1="218" x2="512.388" y2="260"/>
	<path fill="#E6E6E6" stroke="#000000" stroke-width="2" stroke-miterlimit="10" d="M462.925,233.658
		c10.695,10.696,38.037,10.857,49.014-0.119"/>
	<path fill="#E6E6E6" stroke="#000000" stroke-width="2" stroke-miterlimit="10" d="M462.925,246.547
		c10.695,10.695,38.037,10.857,49.014-0.119"/>
</g>
<g>
	<g>
		<line fill="none" stroke="#000000" stroke-width="2" stroke-miterlimit="10" x1="95.388" y1="296" x2="95.388" y2="330"/>
		<g>
			<path d="M95.388,284c-2.107,5.68-5.703,12.727-9.512,17.095l9.512-3.44l9.51,3.44C101.089,296.727,97.494,289.68,95.388,284z"/>
		</g>
	</g>
</g>
<g>
	<g>
		<line fill="none" stroke="#000000" stroke-width="2" stroke-miterlimit="10" x1="80.388" y1="319" x2="80.388" y2="285"/>
		<g>
			<path d="M80.388,331c2.107-5.68,5.703-12.727,9.512-17.095l-9.512,3.44l-9.51-3.44C74.687,318.273,78.283,325.32,80.388,331z"/>
		</g>
	</g>
</g>
<g>
	<g>
		<line fill="none" stroke="#000000" stroke-width="2" stroke-miterlimit="10" x1="293.388" y1="387" x2="293.388" y2="421"/>
		<g>
			<path d="M293.388,375c-2.107,5.68-5.703,12.727-9.512,17.095l9.512-3.44l9.51,3.44C299.089,387.727,295.494,380.68,293.388,375z"
				/>
		</g>
	</g>
</g>
<g>
	<g>
		<line fill="none" stroke="#000000" stroke-width="2" stroke-miterlimit="10" x1="278.388" y1="410" x2="278.388" y2="376"/>
		<g>
			<path d="M278.388,422c2.107-5.68,5.703-12.727,9.512-17.095l-9.512,3.44l-9.51-3.44C272.687,409.273,276.283,416.32,278.388,422z
				"/>
		</g>
	</g>
</g>
<g>
	<g>
		<line fill="none" stroke="#000000" stroke-width="2" stroke-miterlimit="10" x1="496.388" y1="294" x2="496.388" y2="328"/>
		<g>
			<path d="M496.388,282c-2.107,5.68-5.703,12.727-9.512,17.095l9.512-3.44l9.51,3.44C502.089,294.727,498.494,287.68,496.388,282z"
				/>
		</g>
	</g>
</g>
<g>
	<g>
		<line fill="none" stroke="#000000" stroke-width="2" stroke-miterlimit="10" x1="481.388" y1="317" x2="481.388" y2="283"/>
		<g>
			<path d="M481.388,329c2.107-5.68,5.703-12.727,9.512-17.095l-9.512,3.44l-9.51-3.44C475.687,316.273,479.283,323.32,481.388,329z
				"/>
		</g>
	</g>
</g>
<g>
	<rect x="103.916" y="305" fill="none" width="50.945" height="13.81"/>
	<path d="M115.058,313.305c-0.276,0.144-0.888,0.336-1.667,0.336c-1.751,0-2.891-1.188-2.891-2.963c0-1.787,1.224-3.082,3.119-3.082
		c0.624,0,1.175,0.155,1.463,0.299l-0.24,0.816c-0.252-0.145-0.647-0.276-1.223-0.276c-1.332,0-2.051,0.983-2.051,2.194
		c0,1.344,0.864,2.172,2.015,2.172c0.6,0,0.996-0.156,1.295-0.288L115.058,313.305z"/>
	<path d="M121.477,310.57c0,2.146-1.487,3.082-2.89,3.082c-1.571,0-2.783-1.152-2.783-2.986c0-1.943,1.271-3.082,2.878-3.082
		C120.35,307.584,121.477,308.795,121.477,310.57z M116.872,310.629c0,1.271,0.732,2.231,1.763,2.231
		c1.007,0,1.763-0.947,1.763-2.255c0-0.983-0.492-2.23-1.739-2.23C117.412,308.375,116.872,309.526,116.872,310.629z"/>
	<path d="M122.812,309.286c0-0.6-0.012-1.091-0.048-1.571h0.923l0.048,0.936h0.036c0.324-0.551,0.864-1.066,1.823-1.066
		c0.792,0,1.391,0.479,1.643,1.162h0.024c0.18-0.323,0.408-0.575,0.647-0.755c0.348-0.265,0.731-0.407,1.283-0.407
		c0.768,0,1.907,0.503,1.907,2.518v3.418h-1.032v-3.285c0-1.115-0.408-1.787-1.259-1.787c-0.6,0-1.067,0.443-1.247,0.959
		c-0.048,0.145-0.084,0.336-0.084,0.527v3.586h-1.031v-3.478c0-0.923-0.408-1.595-1.211-1.595c-0.66,0-1.14,0.527-1.308,1.055
		c-0.06,0.156-0.084,0.336-0.084,0.516v3.502h-1.031V309.286z"/>
	<path d="M132.82,309.286c0-0.6-0.012-1.091-0.048-1.571h0.923l0.048,0.936h0.036c0.324-0.551,0.864-1.066,1.823-1.066
		c0.792,0,1.391,0.479,1.643,1.162h0.024c0.18-0.323,0.408-0.575,0.647-0.755c0.348-0.265,0.731-0.407,1.283-0.407
		c0.768,0,1.907,0.503,1.907,2.518v3.418h-1.032v-3.285c0-1.115-0.408-1.787-1.259-1.787c-0.6,0-1.067,0.443-1.247,0.959
		c-0.048,0.145-0.084,0.336-0.084,0.527v3.586h-1.031v-3.478c0-0.923-0.408-1.595-1.211-1.595c-0.66,0-1.14,0.527-1.308,1.055
		c-0.06,0.156-0.084,0.336-0.084,0.516v3.502h-1.031V309.286z"/>
	<path d="M144.003,306.084c0.012,0.359-0.252,0.648-0.671,0.648c-0.372,0-0.636-0.289-0.636-0.648c0-0.371,0.276-0.66,0.66-0.66
		C143.751,305.424,144.003,305.713,144.003,306.084z M142.828,313.52v-5.805h1.056v5.805H142.828z"/>
	<path d="M146.907,306.049v1.666h1.511v0.804h-1.511v3.13c0,0.721,0.204,1.128,0.792,1.128c0.276,0,0.479-0.036,0.612-0.071
		l0.048,0.791c-0.204,0.084-0.528,0.145-0.936,0.145c-0.492,0-0.888-0.156-1.14-0.444c-0.3-0.312-0.408-0.827-0.408-1.511v-3.167
		h-0.899v-0.804h0.899v-1.391L146.907,306.049z"/>
</g>
<g>
	<rect x="300.535" y="395.596" fill="none" width="50.945" height="13.81"/>
	<path d="M311.677,403.9c-0.276,0.144-0.888,0.336-1.667,0.336c-1.751,0-2.891-1.188-2.891-2.963c0-1.787,1.224-3.082,3.119-3.082
		c0.624,0,1.175,0.155,1.463,0.299l-0.24,0.816c-0.252-0.145-0.647-0.276-1.223-0.276c-1.332,0-2.051,0.983-2.051,2.194
		c0,1.344,0.864,2.172,2.015,2.172c0.6,0,0.996-0.156,1.295-0.288L311.677,403.9z"/>
	<path d="M318.096,401.166c0,2.146-1.487,3.082-2.89,3.082c-1.571,0-2.783-1.152-2.783-2.986c0-1.943,1.271-3.082,2.878-3.082
		C316.969,398.18,318.096,399.391,318.096,401.166z M313.491,401.225c0,1.271,0.732,2.231,1.763,2.231
		c1.007,0,1.763-0.947,1.763-2.255c0-0.983-0.492-2.23-1.739-2.23C314.031,398.971,313.491,400.122,313.491,401.225z"/>
	<path d="M319.431,399.882c0-0.6-0.012-1.091-0.048-1.571h0.923l0.048,0.936h0.036c0.324-0.551,0.864-1.066,1.823-1.066
		c0.792,0,1.391,0.479,1.643,1.162h0.024c0.18-0.323,0.408-0.575,0.647-0.755c0.348-0.265,0.731-0.407,1.283-0.407
		c0.768,0,1.907,0.503,1.907,2.518v3.418h-1.032v-3.285c0-1.115-0.408-1.787-1.259-1.787c-0.6,0-1.067,0.443-1.247,0.959
		c-0.048,0.145-0.084,0.336-0.084,0.527v3.586h-1.031v-3.478c0-0.923-0.408-1.595-1.211-1.595c-0.66,0-1.14,0.527-1.308,1.055
		c-0.06,0.156-0.084,0.336-0.084,0.516v3.502h-1.031V399.882z"/>
	<path d="M329.439,399.882c0-0.6-0.012-1.091-0.048-1.571h0.923l0.048,0.936h0.036c0.324-0.551,0.864-1.066,1.823-1.066
		c0.792,0,1.391,0.479,1.643,1.162h0.024c0.18-0.323,0.408-0.575,0.647-0.755c0.348-0.265,0.731-0.407,1.283-0.407
		c0.768,0,1.907,0.503,1.907,2.518v3.418h-1.032v-3.285c0-1.115-0.408-1.787-1.259-1.787c-0.6,0-1.067,0.443-1.247,0.959
		c-0.048,0.145-0.084,0.336-0.084,0.527v3.586h-1.031v-3.478c0-0.923-0.408-1.595-1.211-1.595c-0.66,0-1.14,0.527-1.308,1.055
		c-0.06,0.156-0.084,0.336-0.084,0.516v3.502h-1.031V399.882z"/>
	<path d="M340.622,396.68c0.012,0.359-0.252,0.648-0.671,0.648c-0.372,0-0.636-0.289-0.636-0.648c0-0.371,0.276-0.66,0.66-0.66
		C340.37,396.02,340.622,396.309,340.622,396.68z M339.447,404.115v-5.805h1.056v5.805H339.447z"/>
	<path d="M343.526,396.645v1.666h1.511v0.804h-1.511v3.13c0,0.721,0.204,1.128,0.792,1.128c0.276,0,0.479-0.036,0.612-0.071
		l0.048,0.791c-0.204,0.084-0.528,0.145-0.936,0.145c-0.492,0-0.888-0.156-1.14-0.444c-0.3-0.312-0.408-0.827-0.408-1.511v-3.167
		h-0.899v-0.804h0.899v-1.391L343.526,396.645z"/>
</g>
<g>
	<rect x="502.73" y="302.363" fill="none" width="50.944" height="13.81"/>
	<path d="M513.871,310.668c-0.275,0.144-0.887,0.336-1.666,0.336c-1.752,0-2.891-1.188-2.891-2.963c0-1.787,1.223-3.082,3.118-3.082
		c0.624,0,1.175,0.155,1.463,0.299l-0.239,0.816c-0.252-0.145-0.648-0.276-1.224-0.276c-1.331,0-2.052,0.983-2.052,2.194
		c0,1.344,0.864,2.172,2.016,2.172c0.6,0,0.996-0.156,1.295-0.288L513.871,310.668z"/>
	<path d="M520.291,307.934c0,2.146-1.486,3.082-2.891,3.082c-1.57,0-2.782-1.152-2.782-2.986c0-1.943,1.271-3.082,2.878-3.082
		C519.164,304.947,520.291,306.158,520.291,307.934z M515.685,307.992c0,1.271,0.732,2.231,1.764,2.231
		c1.007,0,1.763-0.947,1.763-2.255c0-0.983-0.491-2.23-1.739-2.23C516.225,305.738,515.685,306.89,515.685,307.992z"/>
	<path d="M521.625,306.649c0-0.6-0.013-1.091-0.048-1.571h0.924l0.047,0.936h0.037c0.323-0.551,0.863-1.066,1.822-1.066
		c0.792,0,1.392,0.479,1.644,1.162h0.024c0.18-0.323,0.407-0.575,0.646-0.755c0.348-0.265,0.732-0.407,1.283-0.407
		c0.768,0,1.908,0.503,1.908,2.518v3.418h-1.032v-3.285c0-1.115-0.407-1.787-1.259-1.787c-0.6,0-1.068,0.443-1.248,0.959
		c-0.047,0.145-0.084,0.336-0.084,0.527v3.586h-1.031v-3.478c0-0.923-0.408-1.595-1.211-1.595c-0.66,0-1.14,0.527-1.308,1.055
		c-0.06,0.156-0.084,0.336-0.084,0.516v3.502h-1.031V306.649z"/>
	<path d="M531.633,306.649c0-0.6-0.013-1.091-0.048-1.571h0.924l0.047,0.936h0.037c0.323-0.551,0.863-1.066,1.822-1.066
		c0.792,0,1.392,0.479,1.644,1.162h0.024c0.18-0.323,0.407-0.575,0.646-0.755c0.348-0.265,0.732-0.407,1.283-0.407
		c0.768,0,1.908,0.503,1.908,2.518v3.418h-1.032v-3.285c0-1.115-0.407-1.787-1.259-1.787c-0.6,0-1.068,0.443-1.248,0.959
		c-0.047,0.145-0.084,0.336-0.084,0.527v3.586h-1.031v-3.478c0-0.923-0.408-1.595-1.211-1.595c-0.66,0-1.14,0.527-1.308,1.055
		c-0.06,0.156-0.084,0.336-0.084,0.516v3.502h-1.031V306.649z"/>
	<path d="M542.816,303.447c0.013,0.359-0.252,0.648-0.671,0.648c-0.372,0-0.636-0.289-0.636-0.648c0-0.371,0.275-0.66,0.66-0.66
		C542.564,302.787,542.816,303.076,542.816,303.447z M541.641,310.883v-5.805h1.056v5.805H541.641z"/>
	<path d="M545.72,303.412v1.666h1.512v0.804h-1.512v3.13c0,0.721,0.204,1.128,0.792,1.128c0.276,0,0.479-0.036,0.612-0.071
		l0.047,0.791c-0.203,0.084-0.527,0.145-0.936,0.145c-0.491,0-0.887-0.156-1.139-0.444c-0.301-0.312-0.408-0.827-0.408-1.511v-3.167
		h-0.899v-0.804h0.899v-1.391L545.72,303.412z"/>
</g>
<g>
	<rect x="22.443" y="304" fill="none" width="50.945" height="13.81"/>
	<path d="M35.721,310.938c0,0.6,0.012,1.127,0.048,1.582h-0.936l-0.06-0.947h-0.024c-0.276,0.468-0.887,1.08-1.919,1.08
		c-0.911,0-2.003-0.504-2.003-2.543v-3.395h1.056v3.215c0,1.104,0.336,1.847,1.295,1.847c0.708,0,1.199-0.491,1.391-0.96
		c0.06-0.155,0.096-0.348,0.096-0.539v-3.562h1.056V310.938z"/>
	<path d="M37.475,308.61c0-0.743-0.024-1.343-0.048-1.896h0.947l0.048,0.996h0.024c0.432-0.708,1.115-1.127,2.062-1.127
		c1.403,0,2.459,1.187,2.459,2.949c0,2.088-1.271,3.119-2.639,3.119c-0.768,0-1.439-0.336-1.787-0.912h-0.024v3.154h-1.043V308.61z
		 M38.519,310.157c0,0.156,0.024,0.3,0.048,0.432c0.192,0.731,0.828,1.235,1.583,1.235c1.116,0,1.763-0.911,1.763-2.242
		c0-1.164-0.612-2.159-1.727-2.159c-0.72,0-1.391,0.516-1.595,1.308c-0.036,0.131-0.072,0.287-0.072,0.432V310.157z"/>
	<path d="M49.316,304.005v7.017c0,0.516,0.012,1.103,0.048,1.498h-0.947l-0.048-1.007h-0.024c-0.324,0.647-1.032,1.14-1.979,1.14
		c-1.403,0-2.483-1.188-2.483-2.951c-0.012-1.931,1.188-3.117,2.603-3.117c0.888,0,1.487,0.419,1.751,0.887h0.024v-3.466H49.316z
		 M48.261,309.078c0-0.133-0.012-0.312-0.048-0.443c-0.156-0.672-0.731-1.225-1.523-1.225c-1.091,0-1.739,0.96-1.739,2.244
		c0,1.175,0.576,2.146,1.715,2.146c0.708,0,1.355-0.469,1.547-1.26c0.036-0.145,0.048-0.287,0.048-0.455V309.078z"/>
	<path d="M54.285,312.52l-0.084-0.73h-0.036c-0.324,0.455-0.947,0.863-1.775,0.863c-1.175,0-1.775-0.828-1.775-1.668
		c0-1.402,1.247-2.17,3.49-2.158v-0.12c0-0.479-0.132-1.343-1.319-1.343c-0.54,0-1.104,0.168-1.511,0.432l-0.24-0.695
		c0.48-0.312,1.175-0.516,1.907-0.516c1.775,0,2.207,1.211,2.207,2.374v2.171c0,0.504,0.024,0.995,0.096,1.391H54.285z
		 M54.129,309.558c-1.151-0.024-2.458,0.18-2.458,1.308c0,0.684,0.456,1.008,0.996,1.008c0.755,0,1.235-0.48,1.403-0.973
		c0.036-0.107,0.06-0.228,0.06-0.336V309.558z"/>
	<path d="M58.079,305.049v1.666h1.511v0.804h-1.511v3.13c0,0.721,0.204,1.128,0.792,1.128c0.276,0,0.479-0.036,0.611-0.071
		l0.048,0.791c-0.204,0.084-0.528,0.145-0.936,0.145c-0.492,0-0.888-0.156-1.14-0.444c-0.3-0.312-0.408-0.827-0.408-1.511v-3.167
		h-0.899v-0.804h0.899v-1.391L58.079,305.049z"/>
	<path d="M61.294,309.81c0.024,1.427,0.935,2.015,1.991,2.015c0.755,0,1.211-0.132,1.607-0.3l0.18,0.756
		c-0.372,0.168-1.007,0.36-1.931,0.36c-1.787,0-2.854-1.176-2.854-2.928c0-1.75,1.032-3.129,2.723-3.129
		c1.895,0,2.399,1.666,2.399,2.734c0,0.215-0.024,0.383-0.036,0.491H61.294z M64.389,309.054c0.012-0.671-0.276-1.715-1.463-1.715
		c-1.067,0-1.535,0.983-1.619,1.715H64.389z"/>
</g>
<g>
	<rect x="218.931" y="394.096" fill="none" width="50.945" height="13.81"/>
	<path d="M232.208,401.033c0,0.6,0.012,1.127,0.048,1.582h-0.936l-0.06-0.947h-0.024c-0.276,0.468-0.887,1.08-1.919,1.08
		c-0.911,0-2.003-0.504-2.003-2.543v-3.395h1.056v3.215c0,1.104,0.336,1.847,1.295,1.847c0.708,0,1.199-0.491,1.391-0.96
		c0.06-0.155,0.096-0.348,0.096-0.539v-3.562h1.056V401.033z"/>
	<path d="M233.963,398.706c0-0.743-0.024-1.343-0.048-1.896h0.947l0.048,0.996h0.024c0.432-0.708,1.115-1.127,2.062-1.127
		c1.403,0,2.459,1.187,2.459,2.949c0,2.088-1.271,3.119-2.639,3.119c-0.768,0-1.439-0.336-1.787-0.912h-0.024v3.154h-1.043V398.706z
		 M235.006,400.253c0,0.156,0.024,0.3,0.048,0.432c0.192,0.731,0.828,1.235,1.583,1.235c1.116,0,1.763-0.911,1.763-2.242
		c0-1.164-0.612-2.159-1.727-2.159c-0.72,0-1.391,0.516-1.595,1.308c-0.036,0.131-0.072,0.287-0.072,0.432V400.253z"/>
	<path d="M245.804,394.101v7.017c0,0.516,0.012,1.103,0.048,1.498h-0.947l-0.048-1.007h-0.024c-0.324,0.647-1.032,1.14-1.979,1.14
		c-1.403,0-2.483-1.188-2.483-2.951c-0.012-1.931,1.188-3.117,2.603-3.117c0.888,0,1.487,0.419,1.751,0.887h0.024v-3.466H245.804z
		 M244.749,399.174c0-0.133-0.012-0.312-0.048-0.443c-0.156-0.672-0.731-1.225-1.523-1.225c-1.091,0-1.739,0.96-1.739,2.244
		c0,1.175,0.576,2.146,1.715,2.146c0.708,0,1.355-0.469,1.547-1.26c0.036-0.145,0.048-0.287,0.048-0.455V399.174z"/>
	<path d="M250.773,402.615l-0.084-0.73h-0.036c-0.324,0.455-0.947,0.863-1.775,0.863c-1.175,0-1.775-0.828-1.775-1.668
		c0-1.402,1.247-2.17,3.49-2.158v-0.12c0-0.479-0.132-1.343-1.319-1.343c-0.54,0-1.104,0.168-1.511,0.432l-0.24-0.695
		c0.48-0.312,1.175-0.516,1.907-0.516c1.775,0,2.207,1.211,2.207,2.374v2.171c0,0.504,0.024,0.995,0.096,1.391H250.773z
		 M250.617,399.653c-1.151-0.024-2.458,0.18-2.458,1.308c0,0.684,0.456,1.008,0.996,1.008c0.755,0,1.235-0.48,1.403-0.973
		c0.036-0.107,0.06-0.228,0.06-0.336V399.653z"/>
	<path d="M254.566,395.145v1.666h1.511v0.804h-1.511v3.13c0,0.721,0.204,1.128,0.792,1.128c0.276,0,0.479-0.036,0.611-0.071
		l0.048,0.791c-0.204,0.084-0.528,0.145-0.936,0.145c-0.492,0-0.888-0.156-1.14-0.444c-0.3-0.312-0.408-0.827-0.408-1.511v-3.167
		h-0.899v-0.804h0.899v-1.391L254.566,395.145z"/>
	<path d="M257.782,399.905c0.024,1.427,0.935,2.015,1.991,2.015c0.755,0,1.211-0.132,1.607-0.3l0.18,0.756
		c-0.372,0.168-1.007,0.36-1.931,0.36c-1.787,0-2.854-1.176-2.854-2.928c0-1.75,1.032-3.129,2.723-3.129
		c1.895,0,2.399,1.666,2.399,2.734c0,0.215-0.024,0.383-0.036,0.491H257.782z M260.876,399.149c0.012-0.671-0.276-1.715-1.463-1.715
		c-1.067,0-1.535,0.983-1.619,1.715H260.876z"/>
</g>
<g>
	<rect x="425.443" y="301.363" fill="none" width="50.945" height="13.81"/>
	<path d="M438.72,308.301c0,0.6,0.012,1.127,0.049,1.582h-0.936l-0.061-0.947h-0.023c-0.276,0.468-0.888,1.08-1.92,1.08
		c-0.91,0-2.002-0.504-2.002-2.543v-3.395h1.055v3.215c0,1.104,0.336,1.847,1.296,1.847c0.708,0,1.199-0.491,1.392-0.96
		c0.06-0.155,0.096-0.348,0.096-0.539v-3.562h1.055V308.301z"/>
	<path d="M440.475,305.974c0-0.743-0.024-1.343-0.048-1.896h0.947l0.049,0.996h0.023c0.432-0.708,1.115-1.127,2.062-1.127
		c1.403,0,2.459,1.187,2.459,2.949c0,2.088-1.271,3.119-2.639,3.119c-0.768,0-1.439-0.336-1.787-0.912h-0.023v3.154h-1.044V305.974z
		 M441.519,307.521c0,0.156,0.023,0.3,0.047,0.432c0.192,0.731,0.828,1.235,1.584,1.235c1.115,0,1.763-0.911,1.763-2.242
		c0-1.164-0.612-2.159-1.728-2.159c-0.719,0-1.391,0.516-1.595,1.308c-0.036,0.131-0.071,0.287-0.071,0.432V307.521z"/>
	<path d="M452.316,301.368v7.017c0,0.516,0.012,1.103,0.048,1.498h-0.947l-0.048-1.007h-0.023c-0.324,0.647-1.032,1.14-1.979,1.14
		c-1.403,0-2.483-1.188-2.483-2.951c-0.012-1.931,1.188-3.117,2.604-3.117c0.887,0,1.486,0.419,1.751,0.887h0.024v-3.466H452.316z
		 M451.261,306.441c0-0.133-0.013-0.312-0.049-0.443c-0.156-0.672-0.731-1.225-1.523-1.225c-1.091,0-1.738,0.96-1.738,2.244
		c0,1.175,0.575,2.146,1.715,2.146c0.707,0,1.355-0.469,1.547-1.26c0.036-0.145,0.049-0.287,0.049-0.455V306.441z"/>
	<path d="M457.285,309.883l-0.084-0.73h-0.035c-0.324,0.455-0.947,0.863-1.775,0.863c-1.176,0-1.775-0.828-1.775-1.668
		c0-1.402,1.248-2.17,3.49-2.158v-0.12c0-0.479-0.132-1.343-1.318-1.343c-0.541,0-1.104,0.168-1.512,0.432l-0.24-0.695
		c0.48-0.312,1.176-0.516,1.907-0.516c1.774,0,2.206,1.211,2.206,2.374v2.171c0,0.504,0.024,0.995,0.097,1.391H457.285z
		 M457.128,306.921c-1.15-0.024-2.458,0.18-2.458,1.308c0,0.684,0.456,1.008,0.995,1.008c0.756,0,1.236-0.48,1.404-0.973
		c0.035-0.107,0.059-0.228,0.059-0.336V306.921z"/>
	<path d="M461.079,302.412v1.666h1.511v0.804h-1.511v3.13c0,0.721,0.204,1.128,0.792,1.128c0.275,0,0.479-0.036,0.611-0.071
		l0.048,0.791c-0.204,0.084-0.528,0.145-0.936,0.145c-0.491,0-0.888-0.156-1.14-0.444c-0.3-0.312-0.408-0.827-0.408-1.511v-3.167
		h-0.898v-0.804h0.898v-1.391L461.079,302.412z"/>
	<path d="M464.294,307.173c0.023,1.427,0.936,2.015,1.99,2.015c0.756,0,1.212-0.132,1.607-0.3l0.18,0.756
		c-0.371,0.168-1.007,0.36-1.931,0.36c-1.787,0-2.854-1.176-2.854-2.928c0-1.75,1.031-3.129,2.723-3.129
		c1.895,0,2.398,1.666,2.398,2.734c0,0.215-0.023,0.383-0.035,0.491H464.294z M467.388,306.417c0.012-0.671-0.275-1.715-1.463-1.715
		c-1.067,0-1.535,0.983-1.619,1.715H467.388z"/>
</g>
<g>
	<rect x="440.123" y="180.605" fill="none" width="95.531" height="34.786"/>
	<path d="M455.971,188.862c-0.384,0.192-1.151,0.384-2.135,0.384c-2.278,0-3.994-1.439-3.994-4.09c0-2.531,1.716-4.246,4.222-4.246
		c1.008,0,1.643,0.216,1.919,0.36l-0.252,0.851c-0.396-0.191-0.96-0.335-1.631-0.335c-1.896,0-3.154,1.211-3.154,3.334
		c0,1.979,1.14,3.25,3.106,3.25c0.635,0,1.283-0.132,1.703-0.336L455.971,188.862z"/>
	<path d="M462.367,186.175c0,2.146-1.486,3.082-2.89,3.082c-1.571,0-2.782-1.151-2.782-2.986c0-1.943,1.271-3.082,2.878-3.082
		C461.24,183.189,462.367,184.4,462.367,186.175z M457.761,186.235c0,1.271,0.732,2.231,1.764,2.231
		c1.008,0,1.764-0.947,1.764-2.255c0-0.983-0.492-2.23-1.74-2.23C458.302,183.98,457.761,185.132,457.761,186.235z"/>
	<path d="M463.703,180.61h1.055v8.515h-1.055V180.61z"/>
	<path d="M466.535,180.61h1.055v8.515h-1.055V180.61z"/>
	<path d="M472.581,189.125l-0.084-0.731h-0.036c-0.324,0.456-0.947,0.863-1.775,0.863c-1.175,0-1.774-0.828-1.774-1.667
		c0-1.403,1.247-2.171,3.489-2.159v-0.12c0-0.479-0.131-1.343-1.318-1.343c-0.54,0-1.104,0.168-1.512,0.432l-0.24-0.695
		c0.48-0.312,1.176-0.516,1.908-0.516c1.774,0,2.206,1.211,2.206,2.375v2.171c0,0.503,0.024,0.995,0.097,1.391H472.581z
		 M472.425,186.163c-1.152-0.024-2.459,0.18-2.459,1.307c0,0.684,0.455,1.008,0.995,1.008c0.755,0,1.235-0.48,1.403-0.972
		c0.035-0.108,0.061-0.228,0.061-0.336V186.163z"/>
	<path d="M475.102,189.125c0.024-0.396,0.048-0.983,0.048-1.499v-7.016h1.043v3.646h0.024c0.372-0.648,1.044-1.067,1.979-1.067
		c1.438,0,2.458,1.199,2.446,2.962c0,2.075-1.308,3.106-2.603,3.106c-0.84,0-1.512-0.324-1.943-1.091h-0.035l-0.049,0.959H475.102z
		 M476.193,186.799c0,0.132,0.024,0.264,0.049,0.384c0.203,0.731,0.814,1.235,1.582,1.235c1.104,0,1.764-0.899,1.764-2.231
		c0-1.163-0.6-2.159-1.727-2.159c-0.721,0-1.392,0.492-1.607,1.295c-0.023,0.12-0.061,0.264-0.061,0.432V186.799z"/>
	<path d="M487.23,186.175c0,2.146-1.486,3.082-2.89,3.082c-1.571,0-2.782-1.151-2.782-2.986c0-1.943,1.271-3.082,2.878-3.082
		C486.103,183.189,487.23,184.4,487.23,186.175z M482.625,186.235c0,1.271,0.732,2.231,1.764,2.231c1.008,0,1.764-0.947,1.764-2.255
		c0-0.983-0.492-2.23-1.74-2.23C483.166,183.98,482.625,185.132,482.625,186.235z"/>
	<path d="M488.566,185.132c0-0.684-0.012-1.271-0.049-1.811h0.924l0.036,1.139h0.048c0.264-0.779,0.899-1.271,1.607-1.271
		c0.119,0,0.203,0.012,0.299,0.036v0.996c-0.107-0.024-0.215-0.036-0.359-0.036c-0.743,0-1.271,0.564-1.415,1.355
		c-0.024,0.144-0.048,0.312-0.048,0.492v3.094h-1.043V185.132z"/>
	<path d="M495.644,189.125l-0.084-0.731h-0.037c-0.323,0.456-0.947,0.863-1.774,0.863c-1.175,0-1.774-0.828-1.774-1.667
		c0-1.403,1.246-2.171,3.489-2.159v-0.12c0-0.479-0.132-1.343-1.319-1.343c-0.539,0-1.104,0.168-1.511,0.432l-0.24-0.695
		c0.479-0.312,1.175-0.516,1.907-0.516c1.775,0,2.207,1.211,2.207,2.375v2.171c0,0.503,0.023,0.995,0.096,1.391H495.644z
		 M495.488,186.163c-1.152-0.024-2.459,0.18-2.459,1.307c0,0.684,0.456,1.008,0.996,1.008c0.755,0,1.234-0.48,1.402-0.972
		c0.036-0.108,0.061-0.228,0.061-0.336V186.163z"/>
	<path d="M499.437,181.654v1.667h1.511v0.803h-1.511v3.13c0,0.72,0.203,1.127,0.791,1.127c0.275,0,0.479-0.036,0.611-0.072
		l0.049,0.792c-0.205,0.084-0.528,0.144-0.936,0.144c-0.492,0-0.889-0.156-1.141-0.444c-0.299-0.312-0.407-0.828-0.407-1.511v-3.167
		h-0.899v-0.803h0.899v-1.391L499.437,181.654z"/>
	<path d="M507.318,186.175c0,2.146-1.486,3.082-2.891,3.082c-1.57,0-2.782-1.151-2.782-2.986c0-1.943,1.271-3.082,2.878-3.082
		C506.191,183.189,507.318,184.4,507.318,186.175z M502.712,186.235c0,1.271,0.732,2.231,1.764,2.231
		c1.007,0,1.763-0.947,1.763-2.255c0-0.983-0.491-2.23-1.739-2.23C503.252,183.98,502.712,185.132,502.712,186.235z"/>
	<path d="M508.653,185.132c0-0.684-0.013-1.271-0.048-1.811h0.924l0.035,1.139h0.049c0.264-0.779,0.898-1.271,1.606-1.271
		c0.12,0,0.204,0.012,0.3,0.036v0.996c-0.107-0.024-0.216-0.036-0.359-0.036c-0.744,0-1.271,0.564-1.416,1.355
		c-0.023,0.144-0.047,0.312-0.047,0.492v3.094h-1.044V185.132z"/>
	<path d="M515.361,189.125l0.312-2.351h-0.983v-0.708h1.092l0.228-1.739h-1.032v-0.708h1.141l0.311-2.291h0.696l-0.3,2.291h1.247
		l0.312-2.291h0.708l-0.3,2.291h0.983v0.708h-1.091l-0.217,1.739h1.031v0.708h-1.139l-0.312,2.351h-0.719l0.312-2.351h-1.247
		l-0.312,2.351H515.361z M517.748,186.067l0.228-1.739h-1.247l-0.229,1.739H517.748z"/>
	<path d="M521,187.914c0.3,0.192,0.995,0.492,1.728,0.492c1.355,0,1.774-0.863,1.763-1.511c-0.013-1.091-0.995-1.559-2.015-1.559
		h-0.588v-0.792h0.588c0.768,0,1.738-0.396,1.738-1.319c0-0.624-0.396-1.175-1.367-1.175c-0.623,0-1.223,0.276-1.559,0.516
		l-0.275-0.768c0.407-0.3,1.199-0.6,2.038-0.6c1.535,0,2.231,0.912,2.231,1.859c0,0.804-0.48,1.487-1.439,1.835v0.024
		c0.959,0.192,1.738,0.911,1.738,2.003c0,1.247-0.971,2.338-2.842,2.338c-0.875,0-1.643-0.276-2.027-0.528L521,187.914z"/>
	<path d="M447.562,195.442h1.043v7.208h3.455v0.875h-4.498V195.442z"/>
	<path d="M458.275,200.575c0,2.146-1.486,3.082-2.891,3.082c-1.57,0-2.782-1.151-2.782-2.986c0-1.943,1.271-3.082,2.878-3.082
		C457.148,197.589,458.275,198.8,458.275,200.575z M453.669,200.635c0,1.271,0.732,2.231,1.764,2.231
		c1.007,0,1.763-0.947,1.763-2.255c0-0.983-0.491-2.23-1.739-2.23C454.209,198.38,453.669,199.532,453.669,200.635z"/>
	<path d="M463.748,203.31c-0.275,0.144-0.887,0.336-1.667,0.336c-1.751,0-2.891-1.188-2.891-2.962c0-1.787,1.224-3.083,3.118-3.083
		c0.624,0,1.176,0.156,1.463,0.3l-0.239,0.815c-0.252-0.144-0.647-0.275-1.224-0.275c-1.331,0-2.051,0.983-2.051,2.194
		c0,1.343,0.863,2.171,2.016,2.171c0.6,0,0.995-0.156,1.295-0.288L463.748,203.31z"/>
	<path d="M468.201,203.525l-0.084-0.731h-0.037c-0.323,0.456-0.947,0.863-1.774,0.863c-1.175,0-1.774-0.828-1.774-1.667
		c0-1.403,1.246-2.171,3.489-2.159v-0.12c0-0.479-0.132-1.343-1.319-1.343c-0.539,0-1.104,0.168-1.511,0.432l-0.24-0.695
		c0.479-0.312,1.175-0.516,1.907-0.516c1.775,0,2.207,1.211,2.207,2.375v2.171c0,0.503,0.023,0.995,0.096,1.391H468.201z
		 M468.044,200.563c-1.152-0.024-2.459,0.18-2.459,1.307c0,0.684,0.456,1.008,0.996,1.008c0.755,0,1.234-0.48,1.402-0.972
		c0.036-0.108,0.061-0.228,0.061-0.336V200.563z"/>
	<path d="M470.77,195.01h1.056v8.515h-1.056V195.01z"/>
	<path d="M476.182,195.55c0.528-0.108,1.283-0.168,2.003-0.168c1.115,0,1.835,0.204,2.338,0.66c0.408,0.36,0.637,0.912,0.637,1.535
		c0,1.067-0.672,1.775-1.523,2.063v0.036c0.623,0.216,0.995,0.792,1.188,1.631c0.264,1.127,0.455,1.907,0.623,2.219h-1.079
		c-0.132-0.228-0.312-0.923-0.54-1.931c-0.24-1.115-0.672-1.535-1.619-1.571h-0.982v3.502h-1.044V195.55z M477.226,199.232h1.066
		c1.115,0,1.823-0.612,1.823-1.535c0-1.043-0.755-1.5-1.858-1.511c-0.504,0-0.863,0.048-1.031,0.096V199.232z"/>
	<path d="M483.238,200.815c0.023,1.427,0.936,2.015,1.99,2.015c0.756,0,1.212-0.132,1.607-0.3l0.18,0.756
		c-0.371,0.168-1.007,0.36-1.931,0.36c-1.787,0-2.854-1.176-2.854-2.927s1.031-3.13,2.723-3.13c1.895,0,2.398,1.667,2.398,2.734
		c0,0.216-0.023,0.384-0.035,0.492H483.238z M486.332,200.059c0.012-0.671-0.275-1.715-1.463-1.715
		c-1.067,0-1.535,0.983-1.619,1.715H486.332z"/>
	<path d="M488.662,199.616c0-0.744-0.023-1.343-0.048-1.895h0.947l0.048,0.995h0.024c0.432-0.708,1.115-1.127,2.062-1.127
		c1.403,0,2.459,1.187,2.459,2.95c0,2.087-1.271,3.118-2.639,3.118c-0.768,0-1.439-0.336-1.787-0.912h-0.024v3.154h-1.043V199.616z
		 M489.705,201.163c0,0.156,0.024,0.3,0.049,0.432c0.191,0.732,0.827,1.235,1.582,1.235c1.116,0,1.764-0.911,1.764-2.243
		c0-1.163-0.611-2.159-1.727-2.159c-0.721,0-1.392,0.516-1.596,1.307c-0.035,0.132-0.072,0.288-0.072,0.432V201.163z"/>
	<path d="M500.742,200.575c0,2.146-1.486,3.082-2.89,3.082c-1.571,0-2.782-1.151-2.782-2.986c0-1.943,1.271-3.082,2.878-3.082
		C499.615,197.589,500.742,198.8,500.742,200.575z M496.136,200.635c0,1.271,0.732,2.231,1.764,2.231
		c1.008,0,1.764-0.947,1.764-2.255c0-0.983-0.492-2.23-1.74-2.23C496.677,198.38,496.136,199.532,496.136,200.635z"/>
	<path d="M501.933,202.446c0.312,0.204,0.863,0.42,1.392,0.42c0.768,0,1.127-0.384,1.127-0.863c0-0.504-0.3-0.78-1.079-1.068
		c-1.043-0.372-1.535-0.947-1.535-1.643c0-0.935,0.756-1.703,2.003-1.703c0.587,0,1.103,0.167,1.427,0.359l-0.264,0.768
		c-0.228-0.144-0.647-0.335-1.188-0.335c-0.623,0-0.971,0.36-0.971,0.792c0,0.479,0.348,0.695,1.104,0.983
		c1.007,0.384,1.522,0.888,1.522,1.751c0,1.02-0.792,1.739-2.171,1.739c-0.635,0-1.223-0.156-1.631-0.396L501.933,202.446z"/>
	<path d="M508.004,196.089c0.013,0.36-0.252,0.648-0.671,0.648c-0.373,0-0.637-0.288-0.637-0.648c0-0.372,0.276-0.66,0.66-0.66
		C507.752,195.43,508.004,195.718,508.004,196.089z M506.83,203.525v-5.805h1.055v5.805H506.83z"/>
	<path d="M510.909,196.054v1.667h1.511v0.803h-1.511v3.13c0,0.72,0.204,1.127,0.792,1.127c0.275,0,0.479-0.036,0.611-0.072
		l0.048,0.792c-0.204,0.084-0.528,0.144-0.936,0.144c-0.491,0-0.888-0.156-1.14-0.444c-0.3-0.312-0.408-0.828-0.408-1.511v-3.167
		h-0.898v-0.803h0.898v-1.392L510.909,196.054z"/>
	<path d="M518.791,200.575c0,2.146-1.487,3.082-2.891,3.082c-1.571,0-2.783-1.151-2.783-2.986c0-1.943,1.271-3.082,2.879-3.082
		C517.664,197.589,518.791,198.8,518.791,200.575z M514.185,200.635c0,1.271,0.731,2.231,1.763,2.231
		c1.007,0,1.763-0.947,1.763-2.255c0-0.983-0.491-2.23-1.738-2.23C514.724,198.38,514.185,199.532,514.185,200.635z"/>
	<path d="M520.125,199.532c0-0.684-0.012-1.271-0.047-1.811H521l0.036,1.139h0.048c0.264-0.779,0.899-1.271,1.606-1.271
		c0.121,0,0.205,0.012,0.301,0.036v0.996c-0.108-0.024-0.217-0.036-0.359-0.036c-0.744,0-1.271,0.564-1.416,1.355
		c-0.023,0.144-0.048,0.312-0.048,0.492v3.094h-1.044V199.532z"/>
	<path d="M524.732,197.721l1.271,3.43c0.133,0.384,0.276,0.839,0.372,1.187h0.024c0.107-0.348,0.228-0.792,0.371-1.211l1.152-3.406
		h1.115l-1.584,4.138c-0.756,1.991-1.271,3.01-1.99,3.634c-0.516,0.456-1.031,0.636-1.295,0.684l-0.265-0.887
		c0.265-0.084,0.612-0.252,0.924-0.516c0.288-0.228,0.647-0.635,0.888-1.175c0.047-0.108,0.084-0.192,0.084-0.251
		c0-0.06-0.024-0.144-0.072-0.276l-2.146-5.349H524.732z"/>
</g>
<g>
</g>
<g>
</g>
<g>
</g>
<g>
</g>
<g>
</g>
<g>
</g>
<g>
</g>
<g>
</g>
<g>
</g>
<g>
</g>
<g>
</g>
<g>
</g>
<g>
</g>
<g>
</g>
<g>
</g>
<g>
</g>
</svg>
