<svg xmlns="http://www.w3.org/2000/svg" viewBox="0 0 800 1186"><style>.st0{display:none;} .st1{display:inline;} .st2{fill:#FFFFFF;} .st3{fill:none;stroke:#9882CE;stroke-width:4;stroke-miterlimit:10;} .st4{fill:#B3E3FF;stroke:#404040;stroke-width:4;stroke-miterlimit:10;} .st5{fill:#FFFFFF;stroke:#404040;stroke-width:4;stroke-miterlimit:10;} .st6{fill:none;stroke:#404040;stroke-width:4;stroke-linecap:round;stroke-linejoin:round;stroke-miterlimit:10;} .st7{fill:#B18BE8;stroke:#404040;stroke-width:4;stroke-linecap:round;stroke-linejoin:round;stroke-miterlimit:10;} .st8{fill:#404040;} .st9{fill:none;stroke:#404040;stroke-width:4;stroke-miterlimit:10;} .st10{fill:#B18BE8;stroke:#404040;stroke-width:4;stroke-miterlimit:10;} .st11{fill:#4ED1A1;stroke:#404040;stroke-width:4;stroke-miterlimit:10;} .st12{fill:none;stroke:#CCCCCC;stroke-width:7;stroke-linecap:round;stroke-linejoin:round;stroke-miterlimit:10;} .st13{fill:#FFFFFF;stroke:#CCCCCC;stroke-width:7;stroke-linecap:round;stroke-linejoin:round;stroke-miterlimit:10;} .st14{fill:none;stroke:#404040;stroke-width:7;stroke-miterlimit:10;} .st15{fill:#B3E3FF;stroke:#404040;stroke-width:7;stroke-miterlimit:10;} .st16{fill:#CCCCCC;} .st17{fill:#FFFFFF;stroke:#404040;stroke-width:4;stroke-linejoin:round;stroke-miterlimit:10;} .st18{fill:#FFFFFF;stroke:#404040;stroke-width:4;stroke-linecap:round;stroke-linejoin:round;stroke-miterlimit:10;} .st19{fill:#B3E3FF;stroke:#404040;stroke-width:4;stroke-linejoin:round;stroke-miterlimit:10;} .st20{fill:none;stroke:#CCCCCC;stroke-linecap:round;stroke-linejoin:round;stroke-miterlimit:10;} .st21{fill:#999999;} .st22{fill:#4ED1A1;stroke:#404040;stroke-width:4;stroke-linecap:round;stroke-linejoin:round;stroke-miterlimit:10;} .st23{fill:#4CD3D6;stroke:#404040;stroke-width:4;stroke-linejoin:round;stroke-miterlimit:10;} .st24{fill:none;stroke:#59AFE1;stroke-width:4;stroke-miterlimit:10;} .st25{fill:#59AFE1;stroke:#404040;stroke-width:4;stroke-linejoin:round;stroke-miterlimit:10;} .st26{fill:#FFFFFF;stroke:#59AFE1;stroke-width:4;stroke-miterlimit:10;} .st27{fill:#B3E3FF;stroke:#404040;stroke-width:4;stroke-linecap:round;stroke-linejoin:round;stroke-miterlimit:10;} .st28{fill:#FC8363;stroke:#404040;stroke-width:4;stroke-linecap:round;stroke-linejoin:round;stroke-miterlimit:10;} .st29{fill:#CCCCCC;stroke:#404040;stroke-width:4;stroke-miterlimit:10;} .st30{fill:#FFFFFF;stroke:#6693ED;stroke-width:4;stroke-miterlimit:10;} .st31{fill:none;stroke:#A97CDD;stroke-width:4;stroke-linecap:round;stroke-linejoin:round;stroke-miterlimit:10;} .st32{fill:none;stroke:#B3E3FF;stroke-width:4;stroke-linecap:round;stroke-linejoin:round;stroke-miterlimit:10;} .st33{fill:none;stroke:#4ED1A1;stroke-width:4;stroke-linecap:round;stroke-miterlimit:10;} .st34{fill:none;stroke:#4ED1A1;stroke-width:4;stroke-linecap:round;stroke-linejoin:round;stroke-miterlimit:10;} .st35{fill:#E24B88;stroke:#404040;stroke-width:4;stroke-linecap:round;stroke-linejoin:round;stroke-miterlimit:10;} .st36{fill:none;stroke:#DEEFF8;stroke-width:4;stroke-miterlimit:10;} .st37{fill:none;stroke:#CCCCCC;stroke-width:4;stroke-linecap:round;stroke-linejoin:round;} .st38{fill:none;stroke:#CCCCCC;stroke-width:4;stroke-linecap:round;stroke-linejoin:round;stroke-dasharray:0,14.3051;} .st39{fill:none;stroke:#CCCCCC;stroke-width:4;stroke-linecap:round;stroke-linejoin:round;stroke-dasharray:0,14.1689;} .st40{fill:none;stroke:#CCCCCC;stroke-width:4;stroke-linecap:round;stroke-linejoin:round;stroke-dasharray:0,13.9788;} .st41{fill:none;stroke:#CCCCCC;stroke-width:4;stroke-linecap:round;stroke-linejoin:round;stroke-dasharray:0,14.7877;} .st42{fill:none;stroke:#CCCCCC;stroke-width:4;stroke-linecap:round;stroke-linejoin:round;stroke-dasharray:0,14.9632;} .st43{fill:none;stroke:#CCCCCC;stroke-width:4;stroke-linecap:round;stroke-linejoin:round;stroke-dasharray:0,12.543;} .st44{fill:none;stroke:#CCCCCC;stroke-width:4;stroke-linecap:round;stroke-linejoin:round;stroke-dasharray:0,13.6844;} .st45{fill:none;stroke:#CCCCCC;stroke-width:4;stroke-linecap:round;stroke-linejoin:round;stroke-dasharray:0,13.7717;} .st46{fill:none;stroke:#CCCCCC;stroke-width:4;stroke-linecap:round;stroke-linejoin:round;stroke-dasharray:0,13.6492;} .st47{fill:none;stroke:#CCCCCC;stroke-width:4;stroke-linecap:round;stroke-linejoin:round;stroke-dasharray:0,13.907;} .st48{fill:#4CD3D6;stroke:#404040;stroke-width:4;stroke-linecap:round;stroke-linejoin:round;stroke-miterlimit:10;} .st49{fill:none;stroke:#CCCCCC;stroke-width:4;stroke-linecap:round;stroke-linejoin:round;stroke-dasharray:0,14.9858;} .st50{fill:none;stroke:#CCCCCC;stroke-width:4;stroke-linecap:round;stroke-linejoin:round;stroke-dasharray:0,14.0118;} .st51{fill:none;stroke:#CCCCCC;stroke-width:4;stroke-linecap:round;stroke-linejoin:round;stroke-dasharray:0,14.1243;} .st52{fill:none;} .st53{fill:#FFFFFF;stroke:#404040;stroke-width:7;stroke-linecap:round;stroke-linejoin:round;stroke-miterlimit:10;} .st54{fill:#59AFE1;stroke:#404040;stroke-width:7;stroke-linejoin:round;stroke-miterlimit:10;} .st55{fill:#E24B88;stroke:#404040;stroke-width:7;stroke-linecap:round;stroke-linejoin:round;stroke-miterlimit:10;} .st56{fill:none;stroke:#404040;stroke-width:7;stroke-linecap:round;stroke-linejoin:round;stroke-miterlimit:10;} .st57{fill:none;stroke:#CCCCCC;stroke-width:4;stroke-linecap:round;stroke-linejoin:round;stroke-miterlimit:10;} .st58{fill:#FFFFFF;stroke:#CCCCCC;stroke-width:4;stroke-linecap:round;stroke-linejoin:round;stroke-miterlimit:10;} .st59{fill:#F5F5F5;} .st60{fill:#3873AE;} .st61{fill:#75706C;} .st62{fill:none;stroke:#B3E3FF;stroke-width:4;stroke-miterlimit:10;} .st63{fill:#6F6F6F;} .st64{fill:none;stroke:#6F6F6F;stroke-width:2;stroke-miterlimit:10;} .st65{fill:none;stroke:#6F6F6F;stroke-width:3;stroke-miterlimit:10;} .st66{fill:#FFFFFF;stroke:#404040;stroke-width:6;stroke-miterlimit:10;} .st67{fill:#B3E3FF;stroke:#404040;stroke-width:6;stroke-miterlimit:10;}</style><g id="migrating_x5F_convert_x5F_3"><path class="st21" d="M293.7 16.5c-.1-.8-.8-1.8-2.2-1.8-1.2 0-2.1.8-2.1 1.8 0 .8.5 1.4 1.4 1.5l1.6.3c1.8.4 2.8 1.5 2.8 3 0 1.6-1.4 3.1-3.7 3.1-2.6 0-3.8-1.6-4-3.2l1.4-.4c.1 1.2.9 2.3 2.5 2.3 1.5 0 2.2-.8 2.2-1.7 0-.8-.5-1.4-1.6-1.6l-1.5-.3c-1.5-.3-2.6-1.3-2.6-2.9 0-1.7 1.5-3.2 3.5-3.2 2.4 0 3.4 1.5 3.6 2.6l-1.3.5zm5.8.6h1.6v1.3h-1.6v3.8c0 .7.3 1 1 1 .2 0 .4 0 .6-.1v1.2c-.1 0-.5.1-1 .1-1.2 0-2-.8-2-2.1v-4h-1.4v-1.3h.4c.8 0 1.1-.5 1.1-1.1v-1.2h1.3v2.4zm8.1 1.4h-.6c-1.2 0-2 .6-2 2.2v3.6h-1.4v-7.2h1.4v1.3c.5-1.1 1.4-1.4 2.2-1.4h.5v1.5zm4.9 6c-1.7 0-2.7-1.3-2.7-2.9v-4.5h1.4v4.3c0 1 .5 1.9 1.6 1.9s1.7-.8 1.7-1.8v-4.4h1.4v5.9c0 .6 0 1.1.1 1.3h-1.3c0-.2-.1-.6-.1-.9-.3.8-1.2 1.1-2.1 1.1zm7.4-3.8c0 1.6 1 2.5 2.2 2.5 1.3 0 1.8-.9 2-1.5l1.2.5c-.3 1-1.4 2.2-3.3 2.2-2.1 0-3.6-1.6-3.6-3.8 0-2.2 1.6-3.8 3.6-3.8 1.9 0 2.9 1.2 3.2 2.3l-1.3.5c-.2-.7-.7-1.5-1.9-1.5-1.1.1-2.1.9-2.1 2.6zm9.7-3.6h1.6v1.3h-1.6v3.8c0 .7.3 1 1 1 .2 0 .4 0 .6-.1v1.2c-.1 0-.5.1-1 .1-1.2 0-2-.8-2-2.1v-4h-1.4v-1.3h.4c.8 0 1.1-.5 1.1-1.1v-1.2h1.3v2.4zm6.9 7.4c-1.7 0-2.7-1.3-2.7-2.9v-4.5h1.4v4.3c0 1 .5 1.9 1.6 1.9s1.7-.8 1.7-1.8v-4.4h1.4v5.9c0 .6 0 1.1.1 1.3h-1.4c0-.2-.1-.6-.1-.9-.3.8-1.2 1.1-2 1.1zm10.6-6h-.6c-1.2 0-2 .6-2 2.2v3.6h-1.4v-7.2h1.4v1.3c.5-1.1 1.4-1.4 2.2-1.4h.5v1.5zm8.4 3.7c-.4 1.3-1.6 2.3-3.2 2.3-1.9 0-3.6-1.4-3.6-3.9 0-2.3 1.6-3.8 3.5-3.8 2.2 0 3.5 1.5 3.5 3.8v.4h-5.4c0 1.3 1 2.2 2.2 2.2 1.2 0 1.8-.6 2-1.5l1 .5zm-1.4-2.2c0-1-.7-1.8-2-1.8-1.2 0-1.9.9-2 1.8h4zm15.3.7c0 2.2-1.5 3.8-3.7 3.8s-3.7-1.6-3.7-3.8c0-2.2 1.5-3.8 3.7-3.8s3.7 1.6 3.7 3.8zm-1.4 0c0-1.7-1-2.6-2.2-2.6s-2.2.9-2.2 2.6c0 1.7 1 2.6 2.2 2.6s2.2-.9 2.2-2.6zm5.8-2.3v5.9h-1.5v-5.9h-1.3v-1.3h1.3v-1.2c0-1.6 1.1-2.5 2.4-2.5.5 0 .8.1.8.2v1.3c-.1 0-.3-.1-.6-.1-.5 0-1.1.2-1.1 1.2v1.1h1.7v1.3h-1.7zm15.3 2.3c0 2.2-1.5 3.8-3.7 3.8s-3.7-1.6-3.7-3.8c0-2.2 1.5-3.8 3.7-3.8s3.7 1.6 3.7 3.8zm-1.4 0c0-1.7-1.1-2.6-2.2-2.6-1.2 0-2.2.9-2.2 2.6 0 1.7 1 2.6 2.2 2.6 1.1 0 2.2-.9 2.2-2.6zm8-2.2h-.6c-1.2 0-2 .6-2 2.2v3.6h-1.4v-7.2h1.4v1.3c.5-1.1 1.4-1.4 2.2-1.4h.5v1.5zm2.9-5.2c.6 0 1 .4 1 1s-.5 1-1 1c-.6 0-1-.5-1-1s.5-1 1-1zm-.7 11v-7.2h1.4v7.2h-1.4zm5.4.1c.1 1 .9 1.8 2 1.8 1.5 0 2.2-.8 2.2-2.3v-1c-.3.7-1.1 1.2-2.2 1.2-1.9 0-3.3-1.5-3.3-3.5 0-1.9 1.3-3.5 3.3-3.5 1.1 0 1.9.4 2.2 1.1v-1h1.4v6.7c0 1.8-.9 3.6-3.6 3.6-1.8 0-3.1-1.1-3.3-2.7l1.3-.4zm4.3-3.9c0-1.4-.8-2.3-2.1-2.3-1.2 0-2.1.9-2.1 2.3s.8 2.3 2.1 2.3c1.2 0 2.1-.9 2.1-2.3zm5-7.2c.6 0 1 .4 1 1s-.5 1-1 1c-.6 0-1-.5-1-1s.4-1 1-1zm-.7 11v-7.2h1.4v7.2h-1.4zm6 0h-1.4v-7.2h1.4v1c.5-.9 1.4-1.2 2.2-1.2 1.7 0 2.6 1.2 2.6 2.9v4.6h-1.4v-4.4c0-1-.4-1.8-1.7-1.8-1.1 0-1.7.9-1.7 2v4.1zm9.5-4.1l2-.3c.4-.1.6-.3.6-.5 0-.7-.5-1.3-1.6-1.3-1 0-1.5.6-1.6 1.5l-1.4-.3c.2-1.4 1.4-2.3 3-2.3 2.2 0 3 1.2 3 2.6v3.6c0 .6.1 1 .1 1.2h-1.5c0-.2-.1-.5-.1-1-.3.5-1 1.2-2.3 1.2-1.5 0-2.4-1-2.4-2.2 0-1.3.9-2 2.2-2.2zm2.5 1v-.3l-2.2.3c-.6.1-1 .4-1 1.1 0 .5.5 1 1.2 1 1 0 2-.5 2-2.1zm4.3 3.1v-10.9h1.4v10.9h-1.4zm14.7-7.8c-.1-.8-.8-1.8-2.2-1.8-1.2 0-2.1.8-2.1 1.8 0 .8.5 1.4 1.4 1.5l1.6.3c1.8.4 2.8 1.5 2.8 3 0 1.6-1.4 3.1-3.7 3.1-2.6 0-3.8-1.6-4-3.2l1.4-.4c.1 1.2.9 2.3 2.5 2.3 1.5 0 2.2-.8 2.2-1.7 0-.8-.5-1.4-1.6-1.6l-1.5-.3c-1.5-.3-2.6-1.3-2.6-2.9 0-1.7 1.5-3.2 3.5-3.2 2.4 0 3.4 1.5 3.6 2.6l-1.3.5zm11-2.8h1.5l-4.1 10.6h-1.5l-4-10.6h1.6l3.2 8.7 3.3-8.7zm11 10.6l-5.7-8.7v8.7h-1.5v-10.6h2l5.3 8.2v-8.2h1.5v10.6h-1.6zm13.3-5.8h-.6c-1.2 0-2 .6-2 2.2v3.6h-1.4v-7.2h1.4v1.3c.5-1.1 1.4-1.4 2.2-1.4h.5v1.5zm8.5 3.7c-.4 1.3-1.6 2.3-3.2 2.3-1.9 0-3.6-1.4-3.6-3.9 0-2.3 1.6-3.8 3.5-3.8 2.2 0 3.5 1.5 3.5 3.8v.4h-5.4c0 1.3 1 2.2 2.2 2.2 1.2 0 1.8-.6 2-1.5l1 .5zm-1.4-2.2c0-1-.7-1.8-2-1.8-1.2 0-1.9.9-2 1.8h4zm4 7.2v-10.1h1.4v1.1c.4-.7 1.2-1.3 2.4-1.3 2.2 0 3.3 1.7 3.3 3.8 0 2.1-1.2 3.8-3.4 3.8-1.1 0-2-.5-2.3-1.2v3.8h-1.4zm3.5-9c-1.3 0-2.1 1.1-2.1 2.5 0 1.5.9 2.5 2.1 2.5 1.3 0 2.1-1.1 2.1-2.5 0-1.5-.8-2.5-2.1-2.5zm12.9 2.5c0 2.2-1.5 3.8-3.7 3.8s-3.7-1.6-3.7-3.8c0-2.2 1.5-3.8 3.7-3.8s3.7 1.6 3.7 3.8zm-1.4 0c0-1.7-1.1-2.6-2.2-2.6-1.2 0-2.2.9-2.2 2.6 0 1.7 1 2.6 2.2 2.6 1.1 0 2.2-.9 2.2-2.6z"/><path id="repo1_326_" class="st11" d="M153.8 231.1c0-12.4 28.2-22.4 63-22.4s63 10 63 22.4m-126 0v27.9c0 3 1.7 5.9 4.7 8.5 9.4 8.2 32 13.9 58.3 13.9 26.4 0 48.9-5.8 58.3-13.9 3-2.6 4.7-5.5 4.7-8.5v-27.9"/><path class="st5" d="M279.8 231.1c0 12.4-28.2 22.4-63 22.4s-63-10-63-22.4c0-12.4 28.2-22.4 63-22.4s63 10 63 22.4z"/><path id="repo1_325_" class="st11" d="M153.8 203.1c0-12.4 28.2-22.4 63-22.4s63 10 63 22.4m-126 0v27.9c0 3 1.7 5.9 4.7 8.5 9.4 8.2 32 13.9 58.3 13.9 26.4 0 48.9-5.8 58.3-13.9 3-2.6 4.7-5.5 4.7-8.5v-27.9"/><path class="st5" d="M279.8 203.1c0 12.4-28.2 22.4-63 22.4s-63-10-63-22.4c0-12.4 28.2-22.4 63-22.4s63 10 63 22.4z"/><path id="repo1_324_" class="st11" d="M153.8 175.3c0-12.4 28.2-22.4 63-22.4s63 10 63 22.4m-126 0v27.9c0 3 1.7 5.9 4.7 8.5 9.4 8.2 32 13.9 58.3 13.9 26.4 0 48.9-5.8 58.3-13.9 3-2.6 4.7-5.5 4.7-8.5v-27.9"/><path class="st5" d="M279.8 175.3c0 12.4-28.2 22.4-63 22.4s-63-10-63-22.4c0-12.4 28.2-22.4 63-22.4s63 10 63 22.4z"/><path id="repo1_323_" class="st11" d="M153.8 147.4c0-12.4 28.2-22.4 63-22.4s63 10 63 22.4m-126 0v27.9c0 3 1.7 5.9 4.7 8.5 9.4 8.2 32 13.9 58.3 13.9 26.4 0 48.9-5.8 58.3-13.9 3-2.6 4.7-5.5 4.7-8.5v-27.9"/><path class="st5" d="M279.8 147.4c0 12.4-28.2 22.4-63 22.4s-63-10-63-22.4c0-12.4 28.2-22.4 63-22.4s63 10 63 22.4z"/><path class="st8" d="M207.8 308.2c-.1-.8-.8-1.8-2.2-1.8-1.2 0-2.1.8-2.1 1.8 0 .8.5 1.4 1.4 1.5l1.6.3c1.8.4 2.8 1.5 2.8 3 0 1.6-1.4 3.1-3.7 3.1-2.6 0-3.8-1.6-4-3.2l1.4-.4c.1 1.2.9 2.3 2.5 2.3 1.5 0 2.2-.8 2.2-1.7 0-.8-.5-1.4-1.6-1.6l-1.5-.3c-1.5-.3-2.6-1.3-2.6-2.9 0-1.7 1.5-3.2 3.5-3.2 2.4 0 3.4 1.5 3.6 2.6l-1.3.5zm11-2.9h1.5l-4.1 10.6h-1.5l-4-10.6h1.6l3.2 8.7 3.3-8.7zm11 10.7l-5.7-8.7v8.7h-1.5v-10.6h2l5.3 8.2v-8.2h1.5v10.6h-1.6z"/><path class="st9" d="M354.6 161.9c0 22.6-18.4 41-41 41h-33.9 142.7m-67.8-40.5c0-22.6 18.4-41 41-41h26.7m-67.7 123c0-22.6-18.4-41-41-41h-33.9m74.9 40.5v52.1m67.7 41h-26.7c-22.6 0-41-18.4-41-41"/><path class="st22" d="M422.7 96.4h109.2v50h-109.2z"/><path class="st8" d="M460.7 120.2h1.6v1.3h-1.6v3.8c0 .7.3 1 1 1 .2 0 .4 0 .6-.1v1.2c-.1 0-.5.1-1 .1-1.2 0-2-.8-2-2.1v-4h-1.3v-1.3h.4c.8 0 1.1-.5 1.1-1.1v-1.2h1.3v2.4zm8.1 1.4h-.6c-1.2 0-2 .6-2 2.2v3.6h-1.4v-7.2h1.4v1.3c.5-1.1 1.4-1.4 2.2-1.4h.5v1.5zm4.9 6c-1.7 0-2.7-1.3-2.7-2.9v-4.5h1.4v4.3c0 1 .5 1.9 1.6 1.9s1.7-.8 1.7-1.8v-4.4h1.4v5.9c0 .6 0 1.1.1 1.3h-1.3c0-.2-.1-.6-.1-.9-.3.8-1.2 1.1-2.1 1.1zm8.1-.2h-1.4v-7.2h1.4v1c.5-.9 1.4-1.2 2.2-1.2 1.7 0 2.6 1.2 2.6 2.9v4.6h-1.4v-4.5c0-1-.4-1.8-1.7-1.8-1.1 0-1.7.9-1.7 2v4.2zm11.1-4.2l3.1 4.2h-1.8l-2.4-3.2-1 1v2.2h-1.4v-10.9h1.4v6.8l3.1-3.2h2l-3 3.1z"/><path class="st22" d="M422.7 177.9h109.2v50h-109.2z"/><path class="st8" d="M444.5 208.9v-10.9h1.4v4.7c.3-.6 1.2-1.2 2.4-1.2 2.2 0 3.3 1.7 3.3 3.8 0 2.1-1.2 3.8-3.4 3.8-1.1 0-1.9-.5-2.3-1.2v1h-1.4zm3.5-6.2c-1.2 0-2.1 1-2.1 2.5 0 1.6.9 2.6 2.1 2.6 1.3 0 2.1-1 2.1-2.6.1-1.5-.8-2.5-2.1-2.5zm10.2.4h-.6c-1.2 0-2 .6-2 2.2v3.6h-1.4v-7.2h1.4v1.3c.5-1.1 1.4-1.4 2.2-1.4h.5v1.5zm4 1.6l2-.3c.4-.1.6-.3.6-.5 0-.7-.5-1.3-1.6-1.3-1 0-1.5.6-1.6 1.5l-1.3-.3c.2-1.4 1.4-2.3 3-2.3 2.2 0 3 1.2 3 2.6v3.6c0 .6.1 1 .1 1.2h-1.4c0-.2-.1-.5-.1-1-.3.5-1 1.2-2.3 1.2-1.5 0-2.4-1-2.4-2.2-.2-1.3.7-2 2-2.2zm2.5 1.1v-.3l-2.2.3c-.6.1-1 .4-1 1.1 0 .5.5 1 1.2 1 1 0 2-.5 2-2.1zm5.7 3.1h-1.4v-7.2h1.4v1c.5-.9 1.4-1.2 2.2-1.2 1.7 0 2.6 1.2 2.6 2.9v4.6h-1.4v-4.3c0-1-.4-1.8-1.7-1.8-1.1 0-1.7.9-1.7 2v4zm8.6-3.6c0 1.6 1 2.5 2.2 2.5 1.3 0 1.8-.9 2-1.5l1.2.5c-.3 1-1.4 2.2-3.3 2.2-2.1 0-3.6-1.6-3.6-3.8 0-2.2 1.6-3.8 3.6-3.8 1.9 0 2.9 1.2 3.2 2.3l-1.3.5c-.2-.7-.7-1.5-1.9-1.5-1 0-2.1.9-2.1 2.6zm9.3 3.6h-1.4v-10.9h1.4v4.5c.5-.8 1.4-1.1 2.2-1.1 1.7 0 2.6 1.2 2.6 2.9v4.6h-1.4v-4.3c0-1-.4-1.8-1.7-1.8-1.1 0-1.7.8-1.7 1.9v4.2zm14.1-2.1c-.4 1.3-1.6 2.3-3.2 2.3-1.9 0-3.6-1.4-3.6-3.9 0-2.3 1.6-3.8 3.5-3.8 2.2 0 3.5 1.5 3.5 3.8v.4h-5.4c0 1.3 1 2.2 2.2 2.2 1.2 0 1.8-.6 2-1.5l1 .5zm-1.5-2.3c0-1-.7-1.8-2-1.8-1.2 0-1.9.9-2 1.8h4zm4.7 2c.1.8.7 1.3 1.7 1.3.8 0 1.2-.4 1.2-1 0-.4-.3-.8-.9-.9l-1.2-.3c-1.1-.2-1.8-1-1.8-2 0-1.2 1.2-2.3 2.6-2.3 2 0 2.6 1.3 2.7 1.9l-1.2.5c-.1-.4-.4-1.2-1.5-1.2-.7 0-1.2.5-1.2 1 0 .4.3.8.8.9l1.2.3c1.3.3 2 1.1 2 2.1s-.9 2.2-2.6 2.2c-2 0-2.8-1.3-2.9-2.1l1.1-.4z"/><path class="st22" d="M422.7 312h109.2v50h-109.2z"/><path class="st8" d="M464.6 335.8h1.6v1.3h-1.6v3.8c0 .7.3 1 1 1 .2 0 .4 0 .6-.1v1.2c-.1 0-.5.1-1 .1-1.2 0-2-.8-2-2.1v-4h-1.4v-1.3h.4c.8 0 1.1-.5 1.1-1.1v-1.2h1.3v2.4zm5.9 3.1l2-.3c.4-.1.6-.3.6-.5 0-.7-.5-1.3-1.6-1.3-1 0-1.5.6-1.6 1.5l-1.3-.3c.2-1.4 1.4-2.3 3-2.3 2.2 0 3 1.2 3 2.6v3.6c0 .6.1 1 .1 1.2h-1.4c0-.2-.1-.5-.1-1-.3.5-1 1.2-2.3 1.2-1.5 0-2.4-1-2.4-2.2-.2-1.3.8-2.1 2-2.2zm2.5 1v-.3l-2.2.3c-.6.1-1 .4-1 1.1 0 .5.5 1 1.2 1 1.1 0 2-.5 2-2.1zm5.2 3.2c.1 1 .9 1.8 2 1.8 1.5 0 2.2-.8 2.2-2.3v-1c-.3.7-1.1 1.2-2.2 1.2-1.9 0-3.3-1.5-3.3-3.5 0-1.9 1.3-3.5 3.3-3.5 1.1 0 1.9.4 2.2 1.1v-1h1.4v6.7c0 1.8-.9 3.6-3.6 3.6-1.8 0-3.2-1.1-3.3-2.7l1.3-.4zm4.2-4c0-1.4-.8-2.3-2.1-2.3-1.2 0-2.1.9-2.1 2.3s.8 2.3 2.1 2.3c1.3.1 2.1-.9 2.1-2.3zm5 1.6c.1.8.7 1.3 1.7 1.3.8 0 1.2-.4 1.2-1 0-.4-.3-.8-.9-.9l-1.2-.3c-1.1-.2-1.8-1-1.8-2 0-1.2 1.2-2.3 2.6-2.3 2 0 2.6 1.3 2.7 1.9l-1.2.5c-.1-.4-.4-1.2-1.5-1.2-.7 0-1.2.5-1.2 1 0 .4.3.8.8.9l1.2.3c1.3.3 2 1.1 2 2.1s-.9 2.2-2.6 2.2c-2 0-2.8-1.3-2.9-2.1l1.1-.4z"/><path class="st9" d="M443.2 228.4m67.8 40.5h-26.7c-22.6 0-41-18.4-41-41"/><path class="st22" d="M511.4 243.9h134.8v50h-134.8z"/><path class="st8" d="M533.3 272.5c.1.8.7 1.3 1.7 1.3.8 0 1.2-.4 1.2-1 0-.4-.3-.8-.9-.9l-1.2-.3c-1.1-.2-1.8-1-1.8-2 0-1.2 1.2-2.3 2.6-2.3 2 0 2.6 1.3 2.7 1.9l-1.2.5c-.1-.4-.4-1.2-1.5-1.2-.7 0-1.2.5-1.2 1 0 .4.3.8.8.9l1.2.3c1.3.3 2 1.1 2 2.1s-.9 2.2-2.6 2.2c-2 0-2.8-1.3-2.9-2.1l1.1-.4zm13.7-1.2c0 2.2-1.5 3.8-3.7 3.8s-3.7-1.6-3.7-3.8c0-2.2 1.5-3.8 3.7-3.8s3.7 1.6 3.7 3.8zm-1.5 0c0-1.7-1.1-2.6-2.2-2.6-1.2 0-2.2.9-2.2 2.6 0 1.7 1 2.6 2.2 2.6 1.2-.1 2.2-1 2.2-2.6zm4 3.6v-7.2h1.3v1c.4-.8 1.3-1.2 2.2-1.2.9 0 1.8.4 2.2 1.4.6-1 1.5-1.4 2.4-1.4 1.3 0 2.5.9 2.5 2.7v4.7h-1.4v-4.5c0-.9-.5-1.6-1.5-1.6s-1.7.8-1.7 1.8v4.4h-1.4v-4.5c0-.9-.5-1.6-1.5-1.6s-1.7.8-1.7 1.8v4.3h-1.4zm19.9-2.1c-.4 1.3-1.6 2.3-3.2 2.3-1.9 0-3.6-1.4-3.6-3.9 0-2.3 1.6-3.8 3.5-3.8 2.2 0 3.5 1.5 3.5 3.8v.4h-5.6c0 1.3 1 2.2 2.2 2.2 1.2 0 1.8-.6 2-1.5l1.2.5zm-1.4-2.3c0-1-.7-1.8-2-1.8-1.2 0-1.9.9-2 1.8h4zm3.5.7v-1.2h4.1v1.2h-4.1zm8.6-2.3v5.9h-1.5v-5.9h-1.3v-1.3h1.3v-1.2c0-1.6 1.1-2.5 2.4-2.5.5 0 .8.1.8.2v1.3c-.1 0-.3-.1-.6-.1-.5 0-1.1.2-1.1 1.2v1.1h1.7v1.3h-1.7zm9.9 3.9c-.4 1.3-1.6 2.3-3.2 2.3-1.9 0-3.6-1.4-3.6-3.9 0-2.3 1.6-3.8 3.5-3.8 2.2 0 3.5 1.5 3.5 3.8v.4h-5.4c0 1.3 1 2.2 2.2 2.2 1.2 0 1.8-.6 2-1.5l1 .5zm-1.4-2.3c0-1-.7-1.8-2-1.8-1.2 0-1.9.9-2 1.8h4zm5.8.2l2-.3c.4-.1.6-.3.6-.5 0-.7-.5-1.3-1.6-1.3-1 0-1.5.6-1.6 1.5l-1.3-.3c.2-1.4 1.4-2.3 3-2.3 2.2 0 3 1.2 3 2.6v3.6c0 .6.1 1 .1 1.2h-1.6c0-.2-.1-.5-.1-1-.3.5-1 1.2-2.3 1.2-1.5 0-2.4-1-2.4-2.2 0-1.3.9-2 2.2-2.2zm2.5 1.1v-.3l-2.2.3c-.6.1-1 .4-1 1.1 0 .5.5 1 1.2 1 1.1 0 2-.5 2-2.1zm6.2-4.1h1.6v1.3h-1.6v3.8c0 .7.3 1 1 1 .2 0 .4 0 .6-.1v1.2c-.1 0-.5.1-1 .1-1.2 0-2-.8-2-2.1v-4h-1.4v-1.3h.4c.8 0 1.1-.5 1.1-1.1v-1.2h1.3v2.4zm6.8 7.4c-1.7 0-2.7-1.3-2.7-2.9v-4.5h1.4v4.3c0 1 .5 1.9 1.6 1.9s1.7-.8 1.7-1.8v-4.4h1.4v5.9c0 .6 0 1.1.1 1.3h-1.4c0-.2-.1-.6-.1-.9-.2.7-1.1 1.1-2 1.1zm10.7-6h-.6c-1.2 0-2 .6-2 2.2v3.6h-1.4v-7.2h1.4v1.3c.5-1.1 1.4-1.4 2.2-1.4h.5v1.5zm8.4 3.7c-.4 1.3-1.6 2.3-3.2 2.3-1.9 0-3.6-1.4-3.6-3.9 0-2.3 1.6-3.8 3.5-3.8 2.2 0 3.5 1.5 3.5 3.8v.4h-5.4c0 1.3 1 2.2 2.2 2.2 1.2 0 1.8-.6 2-1.5l1 .5zm-1.4-2.3c0-1-.7-1.8-2-1.8-1.2 0-1.9.9-2 1.8h4z"/><path class="st22" d="M511.4 378h63.1v50h-63.1z"/><path class="st8" d="M535.1 409h-1.4l-2.9-7.2h1.6l2.1 5.6 2.1-5.6h1.5l-3 7.2zm6.5 0v-6.9h-2.4v-1c1.3 0 2.3-.8 2.5-1.8h1.3v9.7h-1.4zm5.2-2c.6 0 1 .5 1 1s-.5 1-1 1-1-.5-1-1 .5-1 1-1zm4.2-6.4c.6-.9 1.6-1.6 3-1.6s2.4.6 3 1.6c.6 1 .9 2.2.9 3.5s-.2 2.6-.9 3.5c-.6.9-1.6 1.6-3 1.6s-2.4-.6-3-1.6c-.6-1-.9-2.2-.9-3.5s.3-2.5.9-3.5zm1.5 6.7c.4.4.9.6 1.5.6.7 0 1.2-.2 1.5-.6.6-.6.9-1.7.9-3.1s-.3-2.5-.9-3.1c-.4-.4-.9-.6-1.5-.6-.7 0-1.2.2-1.5.6-.6.6-.9 1.7-.9 3.1s.3 2.5.9 3.1z"/><path class="st9" d="M511 469h-26.7c-22.6 0-41-18.4-41-41v-66c0 22.6 18.4 41 41 41h26.7"/><path class="st22" d="M511.4 444h63.1v50h-63.1z"/><path class="st8" d="M537.4 475h-1.4l-2.9-7.2h1.6l2.1 5.6 2.1-5.6h1.5l-3 7.2zm6.5 0v-6.9h-2.4v-1c1.3 0 2.3-.8 2.5-1.8h1.3v9.7h-1.4zm5.3-2c.6 0 1 .5 1 1s-.5 1-1 1c-.6 0-1-.5-1-1s.4-1 1-1zm4.5 2v-6.9h-2.4v-1c1.3 0 2.3-.8 2.5-1.8h1.3v9.7h-1.4z"/><path class="st20" d="M129.3 596h541.4"/></g><g id="migrating_x5F_convert_x5F_4"><path id="repo1_330_" class="st27" d="M126.3 915.3c0-12.4 28.2-22.4 63-22.4s63 10 63 22.4m-126 0v27.9c0 3 1.7 5.9 4.7 8.5 9.4 8.2 32 13.9 58.3 13.9 26.4 0 48.9-5.8 58.3-13.9 3-2.6 4.7-5.5 4.7-8.5v-27.9"/><path class="st5" d="M252.3 915.3c0 12.4-28.2 22.4-63 22.4s-63-10-63-22.4c0-12.4 28.2-22.4 63-22.4s63 10 63 22.4z"/><path id="repo1_329_" class="st27" d="M126.3 887.4c0-12.4 28.2-22.4 63-22.4s63 10 63 22.4m-126 0v27.9c0 3 1.7 5.9 4.7 8.5 9.4 8.2 32 13.9 58.3 13.9 26.4 0 48.9-5.8 58.3-13.9 3-2.6 4.7-5.5 4.7-8.5v-27.9"/><path class="st5" d="M252.3 887.4c0 12.4-28.2 22.4-63 22.4s-63-10-63-22.4c0-12.4 28.2-22.4 63-22.4s63 10 63 22.4z"/><path id="repo1_328_" class="st27" d="M126.3 859.5c0-12.4 28.2-22.4 63-22.4s63 10 63 22.4m-126 0v27.9c0 3 1.7 5.9 4.7 8.5 9.4 8.2 32 13.9 58.3 13.9 26.4 0 48.9-5.8 58.3-13.9 3-2.6 4.7-5.5 4.7-8.5v-27.9"/><path class="st5" d="M252.3 859.5c0 12.4-28.2 22.4-63 22.4s-63-10-63-22.4c0-12.4 28.2-22.4 63-22.4s63 10 63 22.4z"/><path id="repo1_327_" class="st27" d="M126.3 831.6c0-12.4 28.2-22.4 63-22.4s63 10 63 22.4m-126 0v27.9c0 3 1.7 5.9 4.7 8.5 9.4 8.2 32 13.9 58.3 13.9 26.4 0 48.9-5.8 58.3-13.9 3-2.6 4.7-5.5 4.7-8.5v-27.9"/><path class="st5" d="M252.3 831.6c0 12.4-28.2 22.4-63 22.4s-63-10-63-22.4c0-12.4 28.2-22.4 63-22.4s63 10 63 22.4z"/><path class="st8" d="M187.6 1000.2l-.1-1.5c-.5.8-1.6 1.7-3.4 1.7-2.7 0-5.2-2-5.2-5.5 0-3.6 2.6-5.5 5.3-5.5 2.3 0 4.1 1.3 4.7 3.2l-1.3.6c-.5-1.5-1.7-2.4-3.4-2.4-1.9 0-3.8 1.4-3.8 4.2s1.8 4.2 3.7 4.2c2.4 0 3.2-1.7 3.3-2.8h-3.7v-1.4h5.1v5.2h-1.2zm4.7-10.9c.6 0 1 .4 1 1s-.5 1-1 1c-.6 0-1-.5-1-1 0-.6.5-1 1-1zm-.6 10.9v-7.2h1.4v7.2h-1.4zm6.4-7.2h1.6v1.3h-1.6v3.8c0 .7.3 1 1 1 .2 0 .4 0 .6-.1v1.2c-.1 0-.5.1-1 .1-1.2 0-2-.8-2-2.1v-4h-1.4v-1.2h.4c.8 0 1.1-.5 1.1-1.1v-1.2h1.3v2.3z"/><path class="st9" d="M327 846.1c0 22.6-18.4 41-41 41h-33.9 142.7m-67.8-40.5c0-22.6 18.4-41 41-41h26.7"/><path class="st27" d="M538.9 926.7h134.8v50h-134.8z"/><path class="st8" d="M592 950.5h1.6v1.3h-1.6v3.8c0 .7.3 1 1 1 .2 0 .4 0 .6-.1v1.2c-.1 0-.5.1-1 .1-1.2 0-2-.8-2-2.1v-4h-1.4v-1.3h.4c.8 0 1.1-.5 1.1-1.1v-1.2h1.3v2.4zm8 1.4h-.6c-1.2 0-2 .6-2 2.2v3.6h-1.4v-7.2h1.4v1.3c.5-1.1 1.4-1.4 2.2-1.4h.5v1.5zm5 6c-1.7 0-2.7-1.3-2.7-2.9v-4.5h1.4v4.3c0 1 .5 1.9 1.6 1.9s1.7-.8 1.7-1.8v-4.4h1.4v5.9c0 .6 0 1.1.1 1.3h-1.4c0-.2-.1-.6-.1-.9-.3.8-1.2 1.1-2 1.1zm8-.2h-1.4v-7.2h1.4v1c.5-.9 1.4-1.2 2.2-1.2 1.7 0 2.6 1.2 2.6 2.9v4.6h-1.4v-4.3c0-1-.4-1.8-1.7-1.8-1.1 0-1.7.9-1.7 2v4zm11.2-4.2l3.1 4.2h-1.8l-2.4-3.2-1 1v2.2h-1.4v-10.9h1.4v6.8l3.1-3.2h1.9l-2.9 3.1z"/><path class="st27" d="M538.9 993.8h134.8v50h-134.8z"/><path class="st8" d="M560.9 1022.4c.1.8.7 1.3 1.7 1.3.8 0 1.2-.4 1.2-1 0-.4-.3-.8-.9-.9l-1.2-.3c-1.1-.2-1.8-1-1.8-2 0-1.2 1.2-2.3 2.6-2.3 2 0 2.6 1.3 2.7 1.9l-1.2.5c-.1-.4-.4-1.2-1.5-1.2-.7 0-1.2.5-1.2 1 0 .4.3.8.8.9l1.2.3c1.3.3 2 1.1 2 2.1s-.9 2.2-2.6 2.2c-2 0-2.8-1.3-2.9-2.1l1.1-.4zm13.6-1.3c0 2.2-1.5 3.8-3.7 3.8s-3.7-1.6-3.7-3.8c0-2.2 1.5-3.8 3.7-3.8s3.7 1.7 3.7 3.8zm-1.4 0c0-1.7-1-2.6-2.2-2.6s-2.2.9-2.2 2.6c0 1.7 1 2.6 2.2 2.6s2.2-.9 2.2-2.6zm4 3.7v-7.2h1.4v1c.5-.8 1.3-1.2 2.2-1.2.9 0 1.8.4 2.2 1.4.6-1 1.5-1.4 2.4-1.4 1.3 0 2.5.9 2.5 2.7v4.7h-1.4v-4.5c0-.9-.5-1.6-1.5-1.6s-1.7.8-1.7 1.8v4.4h-1.4v-4.5c0-.9-.5-1.6-1.5-1.6s-1.7.8-1.7 1.8v4.3h-1.5zm19.9-2.1c-.4 1.3-1.6 2.3-3.2 2.3-1.9 0-3.6-1.4-3.6-3.9 0-2.3 1.6-3.8 3.5-3.8 2.2 0 3.5 1.5 3.5 3.8v.4h-5.4c0 1.3 1 2.2 2.2 2.2 1.2 0 1.8-.6 2-1.5l1 .5zm-1.5-2.3c0-1-.7-1.8-2-1.8-1.2 0-1.9.9-2 1.8h4zm3.5.7v-1.2h4.1v1.2h-4.1zm8.6-2.3v5.9h-1.5v-5.9h-1.3v-1.3h1.3v-1.2c0-1.6 1.1-2.5 2.4-2.5.5 0 .8.1.8.2v1.3c-.1 0-.3-.1-.6-.1-.5 0-1.1.2-1.1 1.2v1.1h1.7v1.3h-1.7zm10 3.9c-.4 1.3-1.6 2.3-3.2 2.3-1.9 0-3.6-1.4-3.6-3.9 0-2.3 1.6-3.8 3.5-3.8 2.2 0 3.5 1.5 3.5 3.8v.4h-5.4c0 1.3 1 2.2 2.2 2.2 1.2 0 1.8-.6 2-1.5l1 .5zm-1.4-2.3c0-1-.7-1.8-2-1.8-1.2 0-1.9.9-2 1.8h4zm5.7.2l1.9-.3c.4-.1.6-.3.6-.5 0-.7-.5-1.3-1.6-1.3-1 0-1.5.6-1.6 1.5l-1.3-.3c.1-1.4 1.4-2.3 3-2.3 2.2 0 3 1.2 3 2.6v3.6c0 .6.1 1 .1 1.2h-1.4c0-.2-.1-.5-.1-1-.3.5-1 1.2-2.3 1.2-1.5 0-2.4-1-2.4-2.2 0-1.3.9-2 2.1-2.2zm2.6 1.1v-.3l-2.2.3c-.6.1-1 .4-1 1.1 0 .5.4 1 1.2 1 1 0 2-.6 2-2.1zm6.2-4.2h1.6v1.3h-1.6v3.8c0 .7.3 1 1 1 .2 0 .4 0 .6-.1v1.2c-.1 0-.5.1-1 .1-1.2 0-2-.8-2-2.1v-4h-1.4v-1.3h.4c.8 0 1.1-.5 1.1-1.1v-1.2h1.3v2.4zm6.8 7.5c-1.7 0-2.7-1.3-2.7-2.9v-4.5h1.4v4.3c0 1 .5 1.9 1.6 1.9s1.7-.8 1.7-1.8v-4.4h1.4v5.9c0 .6 0 1.1.1 1.3h-1.4c0-.2-.1-.6-.1-.9-.3.7-1.2 1.1-2 1.1zm10.6-6h-.6c-1.2 0-2 .6-2 2.2v3.6h-1.4v-7.2h1.4v1.3c.5-1.1 1.4-1.4 2.2-1.4h.5v1.5zm8.5 3.7c-.4 1.3-1.6 2.3-3.2 2.3-1.9 0-3.6-1.4-3.6-3.9 0-2.3 1.6-3.8 3.5-3.8 2.2 0 3.5 1.5 3.5 3.8v.4h-5.4c0 1.3 1 2.2 2.2 2.2 1.2 0 1.8-.6 2-1.5l1 .5zm-1.4-2.3c0-1-.7-1.8-2-1.8-1.2 0-1.9.9-2 1.8h4z"/><path class="st27" d="M538.9 1060.8h134.8v50h-134.8z"/><path class="st8" d="M577.8 1084.6h1.6v1.3h-1.6v3.8c0 .7.3 1 1 1 .2 0 .4 0 .6-.1v1.2c-.1 0-.5.1-1 .1-1.2 0-2-.8-2-2.1v-4h-1.4v-1.3h.4c.8 0 1.1-.5 1.1-1.1v-1.2h1.3v2.4zm5.9 3.1l2-.3c.4-.1.6-.3.6-.5 0-.7-.5-1.3-1.6-1.3-1 0-1.5.6-1.6 1.5l-1.3-.3c.2-1.4 1.4-2.3 3-2.3 2.2 0 3 1.2 3 2.6v3.6c0 .6.1 1 .1 1.2h-1.4c0-.2-.1-.5-.1-1-.3.5-1 1.2-2.3 1.2-1.5 0-2.4-1-2.4-2.2-.2-1.3.8-2 2-2.2zm2.5 1v-.3l-2.2.3c-.6.1-1 .4-1 1.1 0 .5.5 1 1.2 1 1.1.1 2-.5 2-2.1zm5.2 3.2c.1 1 .9 1.8 2 1.8 1.5 0 2.2-.8 2.2-2.3v-1c-.3.7-1.1 1.2-2.2 1.2-1.9 0-3.3-1.5-3.3-3.5 0-1.9 1.3-3.5 3.3-3.5 1.1 0 1.9.4 2.2 1.1v-1h1.4v6.7c0 1.8-.9 3.6-3.6 3.6-1.8 0-3.1-1.1-3.3-2.7l1.3-.4zm4.3-3.9c0-1.4-.8-2.3-2.1-2.3-1.2 0-2.1.9-2.1 2.3s.8 2.3 2.1 2.3c1.2 0 2.1-.9 2.1-2.3zm4.9 1.5c.1.8.7 1.3 1.7 1.3.8 0 1.2-.4 1.2-1 0-.4-.3-.8-.9-.9l-1.2-.3c-1.1-.2-1.8-1-1.8-2 0-1.2 1.2-2.3 2.6-2.3 2 0 2.6 1.3 2.7 1.9l-1.2.5c-.1-.4-.4-1.2-1.5-1.2-.7 0-1.2.5-1.2 1 0 .4.3.8.8.9l1.2.3c1.3.3 2 1.1 2 2.1s-.9 2.2-2.6 2.2c-2 0-2.8-1.3-2.9-2.1l1.1-.4zm7.2 2.3h-1.4l5.1-10.6h1.4l-5.1 10.6zm10.3 0h-1.4l-2.9-7.2h1.6l2.1 5.6 2.1-5.6h1.5l-3 7.2zm6.5 0v-6.9h-2.4v-1c1.3 0 2.3-.8 2.5-1.8h1.3v9.7h-1.4zm5.3-2c.6 0 1 .5 1 1s-.5 1-1 1-1-.5-1-1 .4-1 1-1zm4.1-6.4c.6-.9 1.6-1.6 3-1.6s2.4.6 3 1.6c.6 1 .9 2.2.9 3.5s-.2 2.6-.9 3.5c-.6.9-1.6 1.6-3 1.6s-2.4-.6-3-1.6c-.6-1-.9-2.2-.9-3.5s.3-2.5.9-3.5zm1.5 6.7c.4.4.9.6 1.5.6.7 0 1.2-.2 1.5-.6.6-.6.9-1.7.9-3.1s-.3-2.5-.9-3.1c-.4-.4-.9-.6-1.5-.6-.7 0-1.2.2-1.5.6-.6.6-.9 1.7-.9 3.1s.3 2.5.9 3.1z"/><path class="st27" d="M538.9 1127.9h134.8v50h-134.8z"/><path class="st8" d="M580.1 1151.7h1.6v1.3h-1.6v3.8c0 .7.3 1 1 1 .2 0 .4 0 .6-.1v1.2c-.1 0-.5.1-1 .1-1.2 0-2-.8-2-2.1v-4h-1.4v-1.3h.4c.8 0 1.1-.5 1.1-1.1v-1.2h1.3v2.4zm6 3.1l2-.3c.4-.1.6-.3.6-.5 0-.7-.5-1.3-1.6-1.3-1 0-1.5.6-1.6 1.5l-1.4-.3c.2-1.4 1.4-2.3 3-2.3 2.2 0 3 1.2 3 2.6v3.6c0 .6.1 1 .1 1.2h-1.4c0-.2-.1-.5-.1-1-.3.5-1 1.2-2.3 1.2-1.5 0-2.4-1-2.4-2.2-.1-1.3.8-2 2.1-2.2zm2.5 1v-.3l-2.2.3c-.6.1-1 .4-1 1.1 0 .5.5 1 1.2 1 1 0 2-.5 2-2.1zm5.2 3.2c.1 1 .9 1.8 2 1.8 1.5 0 2.2-.8 2.2-2.3v-1c-.3.7-1.1 1.2-2.2 1.2-1.9 0-3.3-1.5-3.3-3.5 0-1.9 1.3-3.5 3.3-3.5 1.1 0 1.9.4 2.2 1.1v-1h1.4v6.7c0 1.8-.9 3.6-3.6 3.6-1.8 0-3.1-1.1-3.3-2.7l1.3-.4zm4.2-3.9c0-1.4-.8-2.3-2.1-2.3-1.2 0-2.1.9-2.1 2.3s.8 2.3 2.1 2.3c1.2 0 2.1-.9 2.1-2.3zm4.9 1.5c.1.8.7 1.3 1.7 1.3.8 0 1.2-.4 1.2-1 0-.4-.3-.8-.9-.9l-1.2-.3c-1.1-.2-1.8-1-1.8-2 0-1.2 1.2-2.3 2.6-2.3 2 0 2.6 1.3 2.7 1.9l-1.2.5c-.1-.4-.4-1.2-1.5-1.2-.7 0-1.2.5-1.2 1 0 .4.3.8.8.9l1.2.3c1.3.3 2 1.1 2 2.1s-.9 2.2-2.6 2.2c-2 0-2.8-1.3-2.9-2.1l1.1-.4zm7.3 2.3h-1.4l5.1-10.6h1.4l-5.1 10.6zm10.2 0h-1.4l-2.9-7.2h1.6l2.1 5.6 2.1-5.6h1.5l-3 7.2zm6.5 0v-6.9h-2.4v-1c1.4 0 2.3-.8 2.5-1.8h1.3v9.7h-1.4zm5.3-2c.6 0 1 .5 1 1s-.5 1-1 1-1-.5-1-1 .4-1 1-1zm4.5 2v-6.9h-2.4v-1c1.3 0 2.3-.8 2.5-1.8h1.3v9.7h-1.4z"/><path class="st27" d="M394.7 861.8h164.8v50h-164.8z"/><path class="st8" d="M420 887h-.6c-1.2 0-2 .6-2 2.2v3.6h-1.4v-7.2h1.4v1.3c.5-1.1 1.4-1.4 2.2-1.4h.5v1.5zm8.5 3.7c-.4 1.3-1.6 2.3-3.2 2.3-1.9 0-3.6-1.4-3.6-3.9 0-2.3 1.6-3.8 3.4-3.8 2.2 0 3.5 1.5 3.5 3.8v.4h-5.4c0 1.3 1 2.2 2.2 2.2 1.2 0 1.8-.6 2-1.5l1.1.5zm-1.4-2.3c0-1-.7-1.8-2-1.8-1.2 0-1.9.9-2 1.8h4zm4 4.4v-7.2h1.3v1c.5-.8 1.3-1.2 2.2-1.2.9 0 1.8.4 2.2 1.4.6-1 1.5-1.4 2.4-1.4 1.3 0 2.5.9 2.5 2.7v4.7h-1.4v-4.5c0-.9-.5-1.6-1.5-1.6s-1.7.8-1.7 1.8v4.4h-1.4v-4.5c0-.9-.5-1.6-1.5-1.6s-1.7.8-1.7 1.8v4.3h-1.4zm20.4-3.7c0 2.2-1.5 3.8-3.7 3.8s-3.7-1.6-3.7-3.8c0-2.2 1.5-3.8 3.7-3.8s3.7 1.7 3.7 3.8zm-1.5 0c0-1.7-1-2.6-2.2-2.6s-2.2.9-2.2 2.6c0 1.7 1 2.6 2.2 2.6s2.2-.9 2.2-2.6zm5.9-3.6h1.6v1.3h-1.6v3.8c0 .7.3 1 1 1 .2 0 .4 0 .6-.1v1.2c-.1 0-.5.1-1 .1-1.2 0-2-.8-2-2.1v-4h-1.4v-1.3h.4c.8 0 1.1-.5 1.1-1.1v-1.2h1.3v2.4zm10.3 5.2c-.4 1.3-1.6 2.3-3.2 2.3-1.9 0-3.6-1.4-3.6-3.9 0-2.3 1.6-3.8 3.4-3.8 2.2 0 3.5 1.5 3.5 3.8v.4h-5.4c0 1.3 1 2.2 2.2 2.2 1.2 0 1.8-.6 2-1.5l1.1.5zm-1.4-2.3c0-1-.7-1.8-2-1.8-1.2 0-1.9.9-2 1.8h4zm8.5 4.4v-10.9h1.4v4.7c.3-.6 1.2-1.2 2.4-1.2 2.2 0 3.3 1.7 3.3 3.8 0 2.1-1.2 3.8-3.4 3.8-1.1 0-1.9-.5-2.3-1.2v1h-1.4zm3.6-6.2c-1.2 0-2.1 1-2.1 2.5 0 1.6.9 2.6 2.1 2.6 1.3 0 2.1-1 2.1-2.6 0-1.5-.8-2.5-2.1-2.5zm10.1.4h-.6c-1.2 0-2 .6-2 2.2v3.6h-1.4v-7.2h1.4v1.3c.5-1.1 1.4-1.4 2.2-1.4h.5v1.5zm4 1.6l2-.3c.4-.1.6-.3.6-.5 0-.7-.5-1.3-1.6-1.3-1 0-1.5.6-1.6 1.5l-1.3-.3c.1-1.4 1.4-2.3 3-2.3 2.2 0 3 1.2 3 2.6v3.6c0 .6.1 1 .1 1.2h-1.4c0-.2-.1-.5-.1-1-.3.5-1 1.2-2.3 1.2-1.5 0-2.4-1-2.4-2.2-.2-1.3.7-2 2-2.2zm2.5 1.1v-.3l-2.2.3c-.6.1-1.1.4-1.1 1.1 0 .5.5 1 1.2 1 1.2 0 2.1-.6 2.1-2.1zm5.7 3.1h-1.4v-7.2h1.4v1c.5-.9 1.4-1.2 2.2-1.2 1.7 0 2.6 1.2 2.6 2.9v4.6h-1.4v-4.3c0-1-.4-1.8-1.7-1.8-1.1 0-1.7.9-1.7 2v4zm8.7-3.7c0 1.6 1 2.5 2.2 2.5 1.3 0 1.8-.9 2-1.5l1.2.5c-.3 1-1.4 2.2-3.3 2.2-2.1 0-3.6-1.6-3.6-3.8 0-2.2 1.6-3.8 3.6-3.8 1.9 0 2.9 1.2 3.2 2.3l-1.3.5c-.2-.7-.7-1.5-1.9-1.5-1.1.1-2.1 1-2.1 2.6zm9.2 3.7h-1.4v-10.9h1.4v4.5c.5-.8 1.4-1.1 2.2-1.1 1.7 0 2.6 1.2 2.6 2.9v4.6h-1.4v-4.3c0-1-.4-1.8-1.7-1.8-1.1 0-1.6.8-1.7 1.9v4.2zm14.1-2.1c-.4 1.3-1.6 2.3-3.2 2.3-1.9 0-3.6-1.4-3.6-3.9 0-2.3 1.6-3.8 3.5-3.8 2.2 0 3.5 1.5 3.5 3.8v.4h-5.4c0 1.3 1 2.2 2.2 2.2 1.2 0 1.8-.6 2-1.5l1 .5zm-1.4-2.3c0-1-.7-1.8-2-1.8-1.2 0-1.9.9-2 1.8h4zm4.6 2c.1.8.7 1.3 1.7 1.3.8 0 1.2-.4 1.2-1 0-.4-.3-.8-.9-.9l-1.2-.3c-1.1-.2-1.8-1-1.8-2 0-1.2 1.2-2.3 2.6-2.3 2 0 2.6 1.3 2.7 1.9l-1.2.5c-.1-.4-.4-1.2-1.5-1.2-.7 0-1.2.5-1.2 1 0 .4.3.8.8.9l1.2.3c1.3.3 2 1.1 2 2.1s-.9 2.2-2.6 2.2c-2 0-2.8-1.3-2.9-2.1l1.1-.4z"/><path class="st27" d="M394.7 780.6h164.8v50h-164.8z"/><path class="st8" d="M453.2 811.6v-7.2h1.3v1c.5-.8 1.4-1.2 2.2-1.2.9 0 1.8.4 2.2 1.4.6-1 1.5-1.4 2.4-1.4 1.3 0 2.5.9 2.5 2.7v4.7h-1.4v-4.5c0-.9-.5-1.6-1.5-1.6s-1.7.8-1.7 1.8v4.4h-1.4v-4.5c0-.9-.4-1.6-1.5-1.6-1 0-1.7.8-1.7 1.8v4.3h-1.4zm15.4-4.1l2-.3c.4-.1.6-.3.6-.5 0-.7-.5-1.3-1.6-1.3-1 0-1.5.6-1.6 1.5l-1.4-.3c.2-1.4 1.4-2.3 3-2.3 2.2 0 3 1.2 3 2.6v3.6c0 .6.1 1 .1 1.2h-1.4c0-.2-.1-.5-.1-1-.3.5-1 1.2-2.3 1.2-1.5 0-2.4-1-2.4-2.2-.1-1.3.8-2 2.1-2.2zm2.5 1v-.3l-2.2.3c-.6.1-1.1.4-1.1 1.1 0 .5.5 1 1.2 1 1.2.1 2.1-.5 2.1-2.1zm4.9.8c.1.8.7 1.3 1.7 1.3.8 0 1.2-.4 1.2-1 0-.4-.3-.8-.9-.9l-1.2-.3c-1.1-.2-1.8-1-1.8-2 0-1.2 1.2-2.3 2.6-2.3 2 0 2.6 1.3 2.7 1.9l-1.2.5c-.1-.4-.4-1.2-1.5-1.2-.7 0-1.2.5-1.2 1 0 .4.3.8.8.9l1.2.3c1.3.3 2 1.1 2 2.1s-.9 2.2-2.6 2.2c-2 0-2.8-1.3-2.9-2.1l1.1-.4zm8.9-4.9h1.6v1.3h-1.6v3.8c0 .7.3 1 1 1 .2 0 .4 0 .6-.1v1.2c-.1 0-.5.1-1 .1-1.2 0-2-.8-2-2.1v-4h-1.4v-1.3h.4c.8 0 1.1-.5 1.1-1.1v-1.2h1.3v2.4zm10.4 5.2c-.4 1.3-1.6 2.3-3.2 2.3-1.9 0-3.6-1.4-3.6-3.9 0-2.3 1.6-3.8 3.4-3.8 2.2 0 3.5 1.5 3.5 3.8v.4h-5.4c0 1.3 1 2.2 2.2 2.2 1.2 0 1.8-.6 2-1.5l1.1.5zm-1.5-2.3c0-1-.7-1.8-2-1.8-1.2 0-1.9.9-2 1.8h4zm8.1-1.5h-.6c-1.2 0-2 .6-2 2.2v3.6h-1.4v-7.2h1.4v1.3c.5-1.1 1.4-1.4 2.2-1.4h.5v1.5z"/><path class="st9" d="M538.5 1018.8h-26.7c-22.6 0-41-18.4-41-41v-66c0 22.6 18.4 41 41 41h26.7m0 203.1h-26.7c-22.6 0-41-18.4-41-41v-66c0 22.6 18.4 41 41 41h26.7m-67.7-178.1v197.8"/></g><path class="st21" d="M302 700.3c-.1-.8-.8-1.8-2.2-1.8-1.2 0-2.1.8-2.1 1.8 0 .8.5 1.4 1.4 1.5l1.6.3c1.8.4 2.8 1.5 2.8 3 0 1.6-1.4 3.1-3.7 3.1-2.6 0-3.8-1.6-4-3.2l1.4-.4c.1 1.2.9 2.3 2.5 2.3 1.5 0 2.2-.8 2.2-1.7 0-.8-.5-1.4-1.6-1.6l-1.5-.3c-1.5-.3-2.6-1.3-2.6-2.9 0-1.7 1.5-3.2 3.5-3.2 2.4 0 3.4 1.5 3.6 2.6l-1.3.5zm5.8.5h1.6v1.3h-1.6v3.8c0 .7.3 1 1 1 .2 0 .4 0 .6-.1v1.2c-.1 0-.5.1-1 .1-1.2 0-2-.8-2-2.1v-4h-1.4v-1.3h.4c.8 0 1.1-.5 1.1-1.1v-1.2h1.3v2.4zm8.1 1.4h-.6c-1.2 0-2 .6-2 2.2v3.6h-1.4v-7.2h1.4v1.3c.5-1.1 1.4-1.4 2.2-1.4h.5v1.5zm4.9 6c-1.7 0-2.7-1.3-2.7-2.9v-4.5h1.4v4.3c0 1 .5 1.9 1.6 1.9s1.7-.8 1.7-1.8v-4.4h1.4v5.9c0 .6 0 1.1.1 1.3h-1.3c0-.2-.1-.6-.1-.9-.4.8-1.3 1.1-2.1 1.1zm7.4-3.8c0 1.6 1 2.5 2.2 2.5 1.3 0 1.8-.9 2-1.5l1.2.5c-.3 1-1.4 2.2-3.3 2.2-2.1 0-3.6-1.6-3.6-3.8 0-2.2 1.6-3.8 3.6-3.8 1.9 0 2.9 1.2 3.2 2.3l-1.3.5c-.2-.7-.7-1.5-1.9-1.5-1.1.1-2.1.9-2.1 2.6zm9.7-3.6h1.6v1.3h-1.6v3.8c0 .7.3 1 1 1 .2 0 .4 0 .6-.1v1.2c-.1 0-.5.1-1 .1-1.2 0-2-.8-2-2.1v-4h-1.4v-1.3h.4c.8 0 1.1-.5 1.1-1.1v-1.2h1.3v2.4zm6.8 7.4c-1.7 0-2.7-1.3-2.7-2.9v-4.5h1.4v4.3c0 1 .4 1.9 1.6 1.9 1.1 0 1.7-.8 1.7-1.8v-4.4h1.4v5.9c0 .6 0 1.1.1 1.3h-1.4c0-.2-.1-.6-.1-.9-.2.8-1.1 1.1-2 1.1zm10.7-6h-.6c-1.2 0-2 .6-2 2.2v3.6h-1.4v-7.2h1.4v1.3c.5-1.1 1.4-1.4 2.2-1.4h.5v1.5zm8.4 3.8c-.4 1.3-1.6 2.3-3.2 2.3-1.9 0-3.6-1.4-3.6-3.9 0-2.3 1.6-3.8 3.4-3.8 2.2 0 3.5 1.5 3.5 3.8v.4h-5.4c0 1.3 1 2.2 2.2 2.2 1.2 0 1.8-.6 2-1.5l1.1.5zm-1.4-2.3c0-1-.7-1.8-2-1.8-1.2 0-1.9.9-2 1.8h4zm15.3.7c0 2.2-1.5 3.8-3.7 3.8s-3.7-1.6-3.7-3.8c0-2.2 1.5-3.8 3.7-3.8s3.7 1.6 3.7 3.8zm-1.4 0c0-1.7-1.1-2.6-2.2-2.6-1.2 0-2.2.9-2.2 2.6 0 1.7 1 2.6 2.2 2.6 1.1 0 2.2-.9 2.2-2.6zm5.8-2.3v5.9h-1.5v-5.9h-1.3v-1.3h1.3v-1.2c0-1.6 1.1-2.5 2.4-2.5.5 0 .8.1.8.2v1.3c-.1 0-.3-.1-.6-.1-.5 0-1.1.2-1.1 1.2v1.1h1.7v1.3h-1.7zm9.4 2.3c0 1.6 1 2.5 2.2 2.5 1.3 0 1.8-.9 2-1.5l1.2.5c-.3 1-1.4 2.2-3.3 2.2-2.1 0-3.6-1.6-3.6-3.8 0-2.2 1.6-3.8 3.6-3.8 1.9 0 2.9 1.2 3.2 2.3l-1.3.5c-.2-.7-.7-1.5-1.9-1.5-1.1.1-2.1.9-2.1 2.6zm7.8 3.6v-10.9h1.4v10.9h-1.4zm11.4-3.6c0 2.2-1.5 3.8-3.7 3.8s-3.7-1.6-3.7-3.8c0-2.2 1.5-3.8 3.7-3.8s3.7 1.6 3.7 3.8zm-1.5 0c0-1.7-1.1-2.6-2.2-2.6-1.2 0-2.2.9-2.2 2.6 0 1.7 1 2.6 2.2 2.6 1.2 0 2.2-.9 2.2-2.6zm5.4 3.6h-1.4v-7.2h1.4v1c.5-.9 1.4-1.2 2.2-1.2 1.7 0 2.6 1.2 2.6 2.9v4.6h-1.4v-4.3c0-1-.4-1.8-1.7-1.8-1.1 0-1.7.9-1.7 2v4zm14.1-2c-.4 1.3-1.6 2.3-3.2 2.3-1.9 0-3.6-1.4-3.6-3.9 0-2.3 1.6-3.8 3.5-3.8 2.2 0 3.5 1.5 3.5 3.8v.4h-5.4c0 1.3 1 2.2 2.2 2.2 1.2 0 1.8-.6 2-1.5l1 .5zm-1.4-2.3c0-1-.7-1.8-2-1.8-1.2 0-1.9.9-2 1.8h4zm9.1 3.2c-.3.7-1.1 1.3-2.2 1.3-2.1 0-3.4-1.7-3.4-3.8 0-2 1.4-3.8 3.4-3.8 1.3 0 2 .6 2.2 1.2v-4.7h1.4v9.5c0 .7.1 1.2.1 1.3h-1.4c0-.2-.1-.5-.1-1zm-2.1.1c1.3 0 2.1-1.1 2.1-2.6s-.8-2.5-2.1-2.5-2.1 1-2.1 2.5.7 2.6 2.1 2.6zm19.2 1l-.1-1.5c-.5.8-1.6 1.7-3.4 1.7-2.7 0-5.2-2-5.2-5.5 0-3.6 2.6-5.5 5.3-5.5 2.3 0 4.1 1.3 4.7 3.2l-1.3.6c-.5-1.5-1.7-2.4-3.4-2.4-1.9 0-3.8 1.4-3.8 4.2s1.8 4.2 3.7 4.2c2.4 0 3.2-1.7 3.3-2.8h-3.7v-1.3h5.1v5.2h-1.2zm4.8-11c.6 0 1 .4 1 1s-.5 1-1 1c-.6 0-1-.5-1-1s.4-1 1-1zm-.7 11v-7.2h1.4v7.2h-1.4zm6.4-7.2h1.6v1.3h-1.6v3.8c0 .7.3 1 1 1 .2 0 .4 0 .6-.1v1.2c-.1 0-.5.1-1 .1-1.2 0-2-.8-2-2.1v-4h-1.4v-1.3h.4c.8 0 1.1-.5 1.1-1.1v-1.2h1.3v2.4zm12.7 1.4h-.6c-1.2 0-2 .6-2 2.2v3.6h-1.4v-7.2h1.4v1.3c.5-1.1 1.4-1.4 2.2-1.4h.5v1.5zm8.5 3.8c-.4 1.3-1.6 2.3-3.2 2.3-1.9 0-3.6-1.4-3.6-3.9 0-2.3 1.6-3.8 3.5-3.8 2.2 0 3.5 1.5 3.5 3.8v.4h-5.4c0 1.3 1 2.2 2.2 2.2 1.2 0 1.8-.6 2-1.5l1 .5zm-1.4-2.3c0-1-.7-1.8-2-1.8-1.2 0-1.9.9-2 1.8h4zm4 7.2v-10.1h1.4v1.1c.4-.7 1.2-1.3 2.4-1.3 2.2 0 3.3 1.7 3.3 3.8 0 2.1-1.2 3.8-3.4 3.8-1.1 0-2-.5-2.3-1.2v3.8h-1.4zm3.5-9c-1.3 0-2.1 1.1-2.1 2.5 0 1.5.9 2.5 2.1 2.5 1.3 0 2.1-1.1 2.1-2.5s-.8-2.5-2.1-2.5zm12.9 2.5c0 2.2-1.5 3.8-3.7 3.8s-3.7-1.6-3.7-3.8c0-2.2 1.5-3.8 3.7-3.8s3.7 1.6 3.7 3.8zm-1.4 0c0-1.7-1-2.6-2.2-2.6s-2.2.9-2.2 2.6c0 1.7 1 2.6 2.2 2.6s2.2-.9 2.2-2.6z"/></svg>